<svg xmlns="http://www.w3.org/2000/svg" width="360.302" height="98.0184" viewBox="0 0 360.302 98.0184"><defs><style>.cls-1{fill:#fff;stroke:#000;stroke-linecap:round;stroke-linejoin:round;stroke-width:0.9441px;}.cls-2{fill:#002d9c;}.cls-3{fill:#a6c8ff;}.cls-4{fill:none;}</style></defs><g id="Translatable_text" data-name="Translatable text"><polygon class="cls-1" points="352.866 7.77 6.923 7.77 6.875 90.161 352.866 90.161 352.866 7.77"/><path class="cls-2" d="M88.1982,61.4V59.3h2.94v-16.74h-2.94v-2.1h8.4v2.1h-2.94V59.3h2.94v2.1Z"/><path class="cls-2" d="M100.9482,61.4V45.92h2.4v2.4912h.12a8.0689,8.0689,0,0,1,.6143-1.1138,3.7863,3.7863,0,0,1,1.9951-1.5146,4.8963,4.8963,0,0,1,1.56-.2227,5.632,5.632,0,0,1,2.8194.7286,4.4063,4.4063,0,0,1,1.9209,2.3935h.0595a4.7482,4.7482,0,0,1,1.5752-2.1851,4.833,4.833,0,0,1,3.1348-.937,4.6381,4.6381,0,0,1,3.7051,1.545,6.4757,6.4757,0,0,1,1.3349,4.3647V61.4h-2.4V51.87a5.0742,5.0742,0,0,0-.8095-3.1269,3.0522,3.0522,0,0,0-2.58-1.0523,5.0491,5.0491,0,0,0-1.3652.1807,3.7139,3.7139,0,0,0-1.1543.541,2.644,2.644,0,0,0-.8106.917,2.7114,2.7114,0,0,0-.3,1.3076V61.4h-2.4V51.87a5.0735,5.0735,0,0,0-.81-3.1269,2.98,2.98,0,0,0-2.52-1.0523,5.2159,5.2159,0,0,0-1.38.1807,3.6988,3.6988,0,0,0-1.17.541,2.8006,2.8006,0,0,0-.8252.917,2.61,2.61,0,0,0-.3144,1.3076V61.4Z"/><path class="cls-2" d="M127.1376,45.92h2.4v2.4912h.12a4.3463,4.3463,0,0,1,1.7548-2.1533,5.2676,5.2676,0,0,1,2.7745-.6978,5.884,5.884,0,0,1,2.61.57,5.6811,5.6811,0,0,1,1.9951,1.62,7.4352,7.4352,0,0,1,1.26,2.55,13.18,13.18,0,0,1,0,6.72,7.4262,7.4262,0,0,1-1.26,2.55,5.6713,5.6713,0,0,1-1.9951,1.62,5.8839,5.8839,0,0,1-2.61.57,4.6863,4.6863,0,0,1-4.5293-2.851h-.12V67.4h-2.4Zm6.3907,13.71a4.1315,4.1315,0,0,0,3.21-1.2813,4.7944,4.7944,0,0,0,1.17-3.3623V52.334a4.794,4.794,0,0,0-1.17-3.3618,4.13,4.13,0,0,0-3.21-1.2818,5.21,5.21,0,0,0-1.5459.2266,4.3079,4.3079,0,0,0-1.2744.6177,2.9734,2.9734,0,0,0-.8555.95,2.3841,2.3841,0,0,0-.3145,1.1909v5.789a2.7991,2.7991,0,0,0,.3145,1.3423,3.0141,3.0141,0,0,0,.8555.9947,3.8629,3.8629,0,0,0,1.2744.6181A5.5819,5.5819,0,0,0,133.5283,59.63Z"/><path class="cls-2" d="M150.3876,61.76a6.9762,6.9762,0,0,1-2.85-.57,6.1391,6.1391,0,0,1-2.2051-1.6352,7.6849,7.6849,0,0,1-1.4248-2.55,11.179,11.179,0,0,1,0-6.6748,7.668,7.668,0,0,1,1.4248-2.565,6.15,6.15,0,0,1,2.2051-1.6352,6.9762,6.9762,0,0,1,2.85-.57,6.8764,6.8764,0,0,1,2.835.57,6.3328,6.3328,0,0,1,2.2051,1.6352,7.5465,7.5465,0,0,1,1.4394,2.565,11.179,11.179,0,0,1,0,6.6748,7.5625,7.5625,0,0,1-1.4394,2.55,6.3217,6.3217,0,0,1-2.2051,1.6352A6.8764,6.8764,0,0,1,150.3876,61.76Zm0-2.13a4.3607,4.3607,0,0,0,3.18-1.2,4.9052,4.9052,0,0,0,1.23-3.66V52.55a4.9064,4.9064,0,0,0-1.23-3.66,4.8133,4.8133,0,0,0-6.36,0,4.9028,4.9028,0,0,0-1.23,3.66v2.22a4.9016,4.9016,0,0,0,1.23,3.66A4.3616,4.3616,0,0,0,150.3876,59.63Z"/><path class="cls-2" d="M161.3369,61.4V45.92h2.4v2.85h.1494a4.68,4.68,0,0,1,1.5-1.98,4.6094,4.6094,0,0,1,2.9707-.87h.93v2.4h-1.41a5.42,5.42,0,0,0-3.0449.7349A2.1675,2.1675,0,0,0,163.7373,50.9V61.4Z"/><path class="cls-2" d="M175.8867,61.4a2.4556,2.4556,0,0,1-1.9043-.7031,2.6153,2.6153,0,0,1-.6455-1.8414V48.05h-2.55V45.92h1.4394a1.4119,1.4119,0,0,0,1.0654-.3149,1.638,1.638,0,0,0,.2852-1.0953V41.63h2.16v4.29h3.39v2.13h-3.39v11.22h3.1494V61.4Z"/><path class="cls-2" d="M201.3261,61.4a2.3548,2.3548,0,0,1-1.9345-.72,3.5582,3.5582,0,0,1-.7354-1.8h-.1494a4.0089,4.0089,0,0,1-1.6807,2.16,5.2194,5.2194,0,0,1-2.79.72,5.4309,5.4309,0,0,1-3.8252-1.26,4.4255,4.4255,0,0,1-1.3643-3.42,3.9052,3.9052,0,0,1,1.6045-3.36,8.54,8.54,0,0,1,4.9951-1.17h3.0606v-1.53a3.3476,3.3476,0,0,0-.9-2.52,3.8391,3.8391,0,0,0-2.76-.87,4.1558,4.1558,0,0,0-2.3554.63,5.195,5.195,0,0,0-1.5752,1.68l-1.44-1.35a5.4706,5.4706,0,0,1,2.01-2.145,6.3328,6.3328,0,0,1,3.48-.8848,6.4012,6.4012,0,0,1,4.38,1.377,4.8465,4.8465,0,0,1,1.56,3.8315v8.5015h1.77V61.4Zm-6.8994-1.68a6.0969,6.0969,0,0,0,1.6494-.21,4.0245,4.0245,0,0,0,1.29-.6,2.9582,2.9582,0,0,0,.84-.9,2.147,2.147,0,0,0,.3008-1.11v-2.55h-3.1807a5.8084,5.8084,0,0,0-3.0146.6,1.939,1.939,0,0,0-.9453,1.74v.63a2.0961,2.0961,0,0,0,.8252,1.77A3.5961,3.5961,0,0,0,194.4267,59.72Z"/><path class="cls-2" d="M218.9355,61.76a7.1268,7.1268,0,0,1-2.9092-.57,5.9409,5.9409,0,0,1-2.1758-1.62,7.2121,7.2121,0,0,1-1.35-2.55,12.3777,12.3777,0,0,1,0-6.72,7.2207,7.2207,0,0,1,1.35-2.55,5.9509,5.9509,0,0,1,2.1758-1.62,7.1268,7.1268,0,0,1,2.9092-.57,6.206,6.206,0,0,1,3.7051,1.0049,6.1254,6.1254,0,0,1,2.0849,2.625l-2.01,1.02a3.6463,3.6463,0,0,0-1.38-1.86,4.1418,4.1418,0,0,0-2.4-.66,4.8042,4.8042,0,0,0-1.89.3447,3.6938,3.6938,0,0,0-1.35.9605,4.0486,4.0486,0,0,0-.81,1.47,6.2107,6.2107,0,0,0-.27,1.875v2.64a5.0217,5.0217,0,0,0,1.0947,3.3447,3.97,3.97,0,0,0,3.2246,1.3052,4.3538,4.3538,0,0,0,4.2-2.7l1.74,1.17a6.1479,6.1479,0,0,1-2.2353,2.67A6.5373,6.5373,0,0,1,218.9355,61.76Z"/><path class="cls-2" d="M233.9062,61.76a6.9453,6.9453,0,0,1-2.8652-.57,6.161,6.161,0,0,1-2.19-1.6352,7.4907,7.4907,0,0,1-1.41-2.55,11.4937,11.4937,0,0,1,0-6.6748,7.4768,7.4768,0,0,1,1.41-2.565,6.1716,6.1716,0,0,1,2.19-1.6352,6.9453,6.9453,0,0,1,2.8652-.57,6.5864,6.5864,0,0,1,2.79.5679,6.1886,6.1886,0,0,1,2.1,1.57,6.9855,6.9855,0,0,1,1.335,2.3765,9.3612,9.3612,0,0,1,.4649,3.02v1.1363h-11.13v.72a5.2959,5.2959,0,0,0,.3154,1.8452,4.3871,4.3871,0,0,0,.8994,1.4849,4.1208,4.1208,0,0,0,1.44.99,4.95,4.95,0,0,0,1.9346.36,4.7061,4.7061,0,0,0,2.5654-.69,4.5326,4.5326,0,0,0,1.6954-1.98l1.71,1.2378a5.9749,5.9749,0,0,1-2.34,2.5811A7.06,7.06,0,0,1,233.9062,61.76Zm0-14.19a4.5642,4.5642,0,0,0-1.8.3433,4.0522,4.0522,0,0,0-1.3955.9687,4.5552,4.5552,0,0,0-.9151,1.4756,5.1152,5.1152,0,0,0-.33,1.8638V52.43h8.5508V52.102a4.707,4.707,0,0,0-1.125-3.2939A3.8408,3.8408,0,0,0,233.9062,47.57Z"/><path class="cls-2" d="M244.5556,61.4V45.92h2.4v2.85h.1494a4.6813,4.6813,0,0,1,1.5-1.98,4.61,4.61,0,0,1,2.9707-.87h.93v2.4h-1.41a5.42,5.42,0,0,0-3.045.7349A2.1678,2.1678,0,0,0,246.956,50.9V61.4Z"/><path class="cls-2" d="M259.1054,61.4a2.4557,2.4557,0,0,1-1.9043-.7031,2.6158,2.6158,0,0,1-.6455-1.8414V48.05h-2.55V45.92h1.44a1.4119,1.4119,0,0,0,1.0654-.3149,1.6386,1.6386,0,0,0,.2851-1.0953V41.63h2.16v4.29h3.39v2.13h-3.39v11.22h3.1494V61.4Z"/><path class="cls-2" d="M267.416,42.2905a1.4654,1.4654,0,0,1-1.125-.375,1.3806,1.3806,0,0,1-.3448-.9751v-.39a1.3823,1.3823,0,0,1,.3448-.9751,1.875,1.875,0,0,1,2.25,0,1.3867,1.3867,0,0,1,.3447.9751v.39a1.385,1.385,0,0,1-.3447.9751A1.4684,1.4684,0,0,1,267.416,42.2905Zm-1.2,3.63h2.4V61.4h-2.4Z"/><path class="cls-2" d="M274.5556,48.05h-2.52V45.92h2.52V42.8a3.8947,3.8947,0,0,1,.8408-2.61,3.1567,3.1567,0,0,1,2.55-.99h2.34v2.13h-3.33v4.59h8.67V61.4h-2.4V48.05H276.956V61.4h-2.4Zm9.87-5.76a1.4654,1.4654,0,0,1-1.125-.375,1.385,1.385,0,0,1-.3447-.9751v-.39a1.3867,1.3867,0,0,1,.3447-.9751,1.875,1.875,0,0,1,2.25,0,1.3873,1.3873,0,0,1,.3457.9751v.39a1.3856,1.3856,0,0,1-.3457.9751A1.4654,1.4654,0,0,1,284.4257,42.2905Z"/><path class="cls-2" d="M296.4843,61.76a7.1268,7.1268,0,0,1-2.9092-.57,5.94,5.94,0,0,1-2.1757-1.62,7.2089,7.2089,0,0,1-1.35-2.55,12.3751,12.3751,0,0,1,0-6.72,7.2175,7.2175,0,0,1,1.35-2.55,5.95,5.95,0,0,1,2.1757-1.62,7.1268,7.1268,0,0,1,2.9092-.57,6.2058,6.2058,0,0,1,3.7051,1.0049,6.1256,6.1256,0,0,1,2.085,2.625l-2.01,1.02a3.6458,3.6458,0,0,0-1.38-1.86,4.1418,4.1418,0,0,0-2.4-.66,4.8033,4.8033,0,0,0-1.89.3447,3.6921,3.6921,0,0,0-1.35.9605,4.0473,4.0473,0,0,0-.8106,1.47,6.2107,6.2107,0,0,0-.2695,1.875v2.64a5.0217,5.0217,0,0,0,1.0947,3.3447,3.97,3.97,0,0,0,3.2246,1.3052,4.3536,4.3536,0,0,0,4.2-2.7l1.74,1.17a6.1482,6.1482,0,0,1-2.2354,2.67A6.5373,6.5373,0,0,1,296.4843,61.76Z"/><path class="cls-2" d="M317.0644,61.4a2.3552,2.3552,0,0,1-1.9346-.72,3.5589,3.5589,0,0,1-.7353-1.8h-.1494a4.0094,4.0094,0,0,1-1.6807,2.16,5.22,5.22,0,0,1-2.79.72,5.4309,5.4309,0,0,1-3.8252-1.26,4.4255,4.4255,0,0,1-1.3643-3.42,3.9052,3.9052,0,0,1,1.6045-3.36,8.54,8.54,0,0,1,4.9951-1.17h3.0606v-1.53a3.3476,3.3476,0,0,0-.9-2.52,3.8391,3.8391,0,0,0-2.76-.87,4.1563,4.1563,0,0,0-2.3555.63,5.1972,5.1972,0,0,0-1.5752,1.68l-1.4394-1.35a5.47,5.47,0,0,1,2.01-2.145,6.3325,6.3325,0,0,1,3.48-.8848,6.4014,6.4014,0,0,1,4.38,1.377,4.8465,4.8465,0,0,1,1.56,3.8315v8.5015h1.7705V61.4Zm-6.8994-1.68a6.0969,6.0969,0,0,0,1.6494-.21,4.0229,4.0229,0,0,0,1.29-.6,2.9574,2.9574,0,0,0,.84-.9,2.147,2.147,0,0,0,.3008-1.11v-2.55h-3.1807a5.8081,5.8081,0,0,0-3.0146.6,1.9391,1.9391,0,0,0-.9454,1.74v.63a2.0963,2.0963,0,0,0,.8252,1.77A3.5964,3.5964,0,0,0,310.165,59.72Z"/><path class="cls-2" d="M325.2548,61.4a2.4557,2.4557,0,0,1-1.9043-.7031,2.6158,2.6158,0,0,1-.6455-1.8414V48.05h-2.55V45.92h1.44a1.4119,1.4119,0,0,0,1.0654-.3149,1.638,1.638,0,0,0,.2852-1.0953V41.63h2.16v4.29h3.39v2.13h-3.39v11.22h3.1494V61.4Z"/><path class="cls-2" d="M338.0644,61.76a6.9453,6.9453,0,0,1-2.8652-.57,6.161,6.161,0,0,1-2.19-1.6352,7.4907,7.4907,0,0,1-1.41-2.55,11.4937,11.4937,0,0,1,0-6.6748,7.4768,7.4768,0,0,1,1.41-2.565,6.1716,6.1716,0,0,1,2.19-1.6352,6.9453,6.9453,0,0,1,2.8652-.57,6.5864,6.5864,0,0,1,2.79.5679,6.19,6.19,0,0,1,2.1,1.57,6.987,6.987,0,0,1,1.3349,2.3765,9.3612,9.3612,0,0,1,.4649,3.02v1.1363h-11.13v.72a5.2959,5.2959,0,0,0,.3154,1.8452,4.3871,4.3871,0,0,0,.8994,1.4849,4.1208,4.1208,0,0,0,1.44.99,4.95,4.95,0,0,0,1.9346.36,4.7061,4.7061,0,0,0,2.5654-.69,4.5326,4.5326,0,0,0,1.6954-1.98l1.71,1.2378a5.9749,5.9749,0,0,1-2.34,2.5811A7.06,7.06,0,0,1,338.0644,61.76Zm0-14.19a4.5642,4.5642,0,0,0-1.8.3433,4.0522,4.0522,0,0,0-1.3955.9687,4.5532,4.5532,0,0,0-.915,1.4756,5.1132,5.1132,0,0,0-.33,1.8638V52.43h8.5508V52.102a4.707,4.707,0,0,0-1.125-3.2939A3.8408,3.8408,0,0,0,338.0644,47.57Z"/><polygon class="cls-2" points="78.968 56.69 45.059 56.69 51.701 50.021 48.071 46.391 35.197 59.264 48.071 72.138 51.701 68.508 45.059 61.839 78.968 61.839 78.968 56.69"/><path class="cls-3" d="M68.6689,43.8158V33.5169a2.5748,2.5748,0,0,0-.7466-1.8281L49.8991,13.6657a2.5749,2.5749,0,0,0-1.8281-.7467H22.3237a5.15,5.15,0,0,0-5.1495,5.15V79.8622a5.15,5.15,0,0,0,5.15,5.1494H63.52a5.1494,5.1494,0,0,0,5.1494-5.1494v-5.15H63.52v5.15H22.3237V18.0685H42.9216V33.5169a5.15,5.15,0,0,0,5.1494,5.15H63.52v5.1494ZM48.071,33.5169V19.1241L62.4638,33.5169Z"/><rect id="_Transparent_Rectangle_" data-name=" Transparent Rectangle " class="cls-4" x="6.8753" y="7.7695" width="82.3916" height="82.3916"/></g></svg>