<svg xmlns="http://www.w3.org/2000/svg" width="183.9193" height="47.8204" viewBox="0 0 183.9193 47.8204"><defs><style>.cls-1{fill:#002d9c;}.cls-2{fill:none;}.cls-3{fill:#4589ff;}.cls-4{fill:#78a9ff;}.cls-5{fill:#a6c8ff;}</style></defs><g id="Translatable_text" data-name="Translatable text"><path class="cls-1" d="M44.952,29.7892a4.7045,4.7045,0,0,1-1.88-.36A3.8291,3.8291,0,0,1,41.6444,28.37a4.9062,4.9062,0,0,1-.9131-1.7339A8.04,8.04,0,0,1,40.409,24.25a7.9659,7.9659,0,0,1,.3223-2.3784,4.9925,4.9925,0,0,1,.9131-1.7339A3.8023,3.8023,0,0,1,43.0721,19.07a5.0641,5.0641,0,0,1,3.752,0,3.7951,3.7951,0,0,1,1.4346,1.0669,4.9923,4.9923,0,0,1,.913,1.7339A7.9627,7.9627,0,0,1,49.494,24.25a8.0371,8.0371,0,0,1-.3223,2.3862,4.906,4.906,0,0,1-.913,1.7339,3.8217,3.8217,0,0,1-1.4346,1.0591A4.7268,4.7268,0,0,1,44.952,29.7892Zm0-1.1353a3.2335,3.2335,0,0,0,1.2735-.2466,2.8382,2.8382,0,0,0,1.0048-.7085,3.2224,3.2224,0,0,0,.6524-1.1084,4.2987,4.2987,0,0,0,.23-1.4477V23.3565a4.3008,4.3008,0,0,0-.23-1.4477A3.2224,3.2224,0,0,0,47.23,20.8a2.8445,2.8445,0,0,0-1.0048-.7085,3.4139,3.4139,0,0,0-2.5479,0,2.8449,2.8449,0,0,0-1.0049.7085,3.2238,3.2238,0,0,0-.6523,1.1084,4.3011,4.3011,0,0,0-.23,1.4477v1.7862a4.299,4.299,0,0,0,.23,1.4477,3.2238,3.2238,0,0,0,.6523,1.1084,2.8386,2.8386,0,0,0,1.0049.7085A3.2347,3.2347,0,0,0,44.952,28.6539Z"/><path class="cls-1" d="M51.6883,29.6051v-7.918h1.2276v1.4575h.0762a2.397,2.397,0,0,1,.7675-1.0127,2.36,2.36,0,0,1,1.52-.4448h.4755v1.2275h-.7216a2.7742,2.7742,0,0,0-1.5576.376,1.1091,1.1091,0,0,0-.56.9439v5.3706Z"/><path class="cls-1" d="M62.2909,28.3307h-.0615a2.4157,2.4157,0,0,1-2.3164,1.4585,3.0134,3.0134,0,0,1-1.336-.2915,2.9017,2.9017,0,0,1-1.02-.8287,3.7775,3.7775,0,0,1-.6435-1.3042,6.7438,6.7438,0,0,1,0-3.4375,3.7837,3.7837,0,0,1,.6435-1.3042,2.9069,2.9069,0,0,1,1.02-.8286,3.0134,3.0134,0,0,1,1.336-.2915,2.6952,2.6952,0,0,1,1.4189.357,2.2221,2.2221,0,0,1,.8975,1.1015h.0615V18.25h1.2275V29.6051H62.2909ZM60.25,28.7a2.85,2.85,0,0,0,.79-.1079,1.969,1.969,0,0,0,.6523-.3164,1.5353,1.5353,0,0,0,.4375-.5088,1.4288,1.4288,0,0,0,.1612-.6865v-2.961A1.22,1.22,0,0,0,62.13,23.51a1.518,1.518,0,0,0-.4375-.4859,2.2006,2.2006,0,0,0-.6523-.3159,2.6675,2.6675,0,0,0-.79-.1157,2.1124,2.1124,0,0,0-1.6416.6553,2.4494,2.4494,0,0,0-.5987,1.72v1.3574a2.4494,2.4494,0,0,0,.5987,1.72A2.1124,2.1124,0,0,0,60.25,28.7Z"/><path class="cls-1" d="M69.1044,29.7892a3.5594,3.5594,0,0,1-1.4659-.2915,3.1661,3.1661,0,0,1-1.12-.8365,3.8449,3.8449,0,0,1-.7207-1.3042,5.889,5.889,0,0,1,0-3.4145,3.84,3.84,0,0,1,.7207-1.312,3.1707,3.1707,0,0,1,1.12-.836,3.5594,3.5594,0,0,1,1.4659-.2915,3.359,3.359,0,0,1,1.4267.2906,3.1539,3.1539,0,0,1,1.0742.8027,3.5816,3.5816,0,0,1,.6836,1.2158,4.8061,4.8061,0,0,1,.2373,1.5444v.5811H66.8329v.3682a2.7086,2.7086,0,0,0,.1611.9438,2.2484,2.2484,0,0,0,.4609.76,2.1094,2.1094,0,0,0,.7364.5063,2.5361,2.5361,0,0,0,.99.1841,2.4067,2.4067,0,0,0,1.3115-.353,2.321,2.321,0,0,0,.8672-1.0127l.875.6333a3.0588,3.0588,0,0,1-1.1972,1.32A3.6088,3.6088,0,0,1,69.1044,29.7892Zm0-7.2583a2.3345,2.3345,0,0,0-.9209.1757,2.06,2.06,0,0,0-.7129.4956,2.3111,2.3111,0,0,0-.4688.7544,2.62,2.62,0,0,0-.1689.9536v.1065h4.374v-.1675a2.4116,2.4116,0,0,0-.5752-1.685A1.9648,1.9648,0,0,0,69.1044,22.5309Z"/><path class="cls-1" d="M74.5526,29.6051v-7.918H75.78v1.4575h.0762a2.3973,2.3973,0,0,1,.7676-1.0127,2.3594,2.3594,0,0,1,1.5195-.4448h.4756v1.2275h-.7217a2.7744,2.7744,0,0,0-1.5576.376,1.1093,1.1093,0,0,0-.56.9439v5.3706Z"/><path class="cls-1" d="M89.5594,29.6051a1.2035,1.2035,0,0,1-.9892-.3682,1.8175,1.8175,0,0,1-.376-.9209h-.0771a2.0467,2.0467,0,0,1-.8594,1.105,2.6657,2.6657,0,0,1-1.4268.3682,2.7787,2.7787,0,0,1-1.957-.6446,2.2657,2.2657,0,0,1-.6983-1.749,1.9986,1.9986,0,0,1,.8213-1.7187,4.364,4.364,0,0,1,2.5547-.5987h1.5655v-.7827a1.7129,1.7129,0,0,0-.46-1.2891,1.9669,1.9669,0,0,0-1.4121-.4448,2.1237,2.1237,0,0,0-1.2041.3223,2.6559,2.6559,0,0,0-.8057.8594l-.7373-.6905a2.796,2.796,0,0,1,1.0283-1.0971,3.24,3.24,0,0,1,1.78-.4527,3.2764,3.2764,0,0,1,2.24.7041,2.4773,2.4773,0,0,1,.7979,1.96v4.3486H90.25v1.0894ZM86.03,28.7457a3.1168,3.1168,0,0,0,.8438-.1074,2.0707,2.0707,0,0,0,.66-.3067,1.5175,1.5175,0,0,0,.43-.46,1.0973,1.0973,0,0,0,.1534-.5679V25.9991h-1.626a2.9717,2.9717,0,0,0-1.543.3067.9916.9916,0,0,0-.4834.89v.3223a1.0732,1.0732,0,0,0,.4219.9052A1.84,1.84,0,0,0,86.03,28.7457Z"/><path class="cls-1" d="M98.5672,29.7892a3.6515,3.6515,0,0,1-1.4892-.2915,3.039,3.039,0,0,1-1.1123-.8287,3.682,3.682,0,0,1-.69-1.3042,6.3431,6.3431,0,0,1,0-3.4375,3.688,3.688,0,0,1,.69-1.3042,3.0443,3.0443,0,0,1,1.1123-.8286,3.6515,3.6515,0,0,1,1.4892-.2915,3.1762,3.1762,0,0,1,1.8946.5137,3.1409,3.1409,0,0,1,1.0664,1.3428l-1.0274.5219a1.8676,1.8676,0,0,0-.706-.9516,2.1238,2.1238,0,0,0-1.2276-.3374,2.4625,2.4625,0,0,0-.9667.1762,1.8849,1.8849,0,0,0-.6905.4913,2.075,2.075,0,0,0-.415.7519,3.18,3.18,0,0,0-.1377.959v1.3506a2.5725,2.5725,0,0,0,.56,1.7109,2.0341,2.0341,0,0,0,1.65.6675,2.2277,2.2277,0,0,0,2.1485-1.3813l.89.5986a3.14,3.14,0,0,1-1.1435,1.3657A3.3428,3.3428,0,0,1,98.5672,29.7892Z"/><path class="cls-1" d="M106.2235,29.7892a3.5586,3.5586,0,0,1-1.4658-.2915,3.1652,3.1652,0,0,1-1.12-.8365,3.8415,3.8415,0,0,1-.7207-1.3042,5.8868,5.8868,0,0,1,0-3.4145,3.8368,3.8368,0,0,1,.7207-1.312,3.17,3.17,0,0,1,1.12-.836,3.5586,3.5586,0,0,1,1.4658-.2915,3.36,3.36,0,0,1,1.4268.2906,3.1549,3.1549,0,0,1,1.0742.8027,3.5816,3.5816,0,0,1,.6836,1.2158,4.8061,4.8061,0,0,1,.2373,1.5444v.5811H103.952v.3682a2.7086,2.7086,0,0,0,.1611.9438,2.25,2.25,0,0,0,.461.76,2.1081,2.1081,0,0,0,.7363.5063,2.5365,2.5365,0,0,0,.99.1841,2.4073,2.4073,0,0,0,1.3116-.353,2.3216,2.3216,0,0,0,.8672-1.0127l.875.6333a3.059,3.059,0,0,1-1.1973,1.32A3.6086,3.6086,0,0,1,106.2235,29.7892Zm0-7.2583a2.3349,2.3349,0,0,0-.9209.1757,2.06,2.06,0,0,0-.7129.4956,2.3109,2.3109,0,0,0-.4687.7544,2.62,2.62,0,0,0-.169.9536v.1065h4.374v-.1675a2.4111,2.4111,0,0,0-.5752-1.685A1.9645,1.9645,0,0,0,106.2235,22.5309Z"/><path class="cls-1" d="M111.6717,29.6051v-7.918h1.2276v1.4575h.0762a2.397,2.397,0,0,1,.7675-1.0127,2.36,2.36,0,0,1,1.52-.4448h.4755v1.2275h-.7216a2.7742,2.7742,0,0,0-1.5576.376,1.1091,1.1091,0,0,0-.56.9439v5.3706Z"/><path class="cls-1" d="M119.1131,29.6051a1.2572,1.2572,0,0,1-.9746-.36,1.3393,1.3393,0,0,1-.33-.9414V22.7765h-1.3038V21.6871h.7364a.7233.7233,0,0,0,.5449-.1611.8391.8391,0,0,0,.1455-.56V19.4928h1.1045v2.1943H120.77v1.0894H119.036v5.7392h1.6113v1.0894Z"/><path class="cls-1" d="M123.3641,19.83a.75.75,0,0,1-.5752-.1919.7056.7056,0,0,1-.1767-.4986v-.2a.7052.7052,0,0,1,.1767-.4985.958.958,0,0,1,1.15,0,.7048.7048,0,0,1,.1768.4985v.2a.7052.7052,0,0,1-.1768.4986A.75.75,0,0,1,123.3641,19.83Zm-.6133,1.8569h1.2276v7.918h-1.2276Z"/><path class="cls-1" d="M127.0165,22.7765h-1.2891V21.6871h1.2891V20.0909a1.99,1.99,0,0,1,.43-1.3349A1.6146,1.6146,0,0,1,128.75,18.25h1.1972V19.339H128.244v2.3481h4.4346v7.918H131.451V22.7765h-3.207v6.8286h-1.2275Zm5.0478-2.9463a.75.75,0,0,1-.5752-.1919.71.71,0,0,1-.1767-.4986v-.2a.7093.7093,0,0,1,.1767-.4985.9595.9595,0,0,1,1.1514,0,.7087.7087,0,0,1,.1758.4985v.2a.7091.7091,0,0,1-.1758.4986A.752.752,0,0,1,132.0643,19.83Z"/><path class="cls-1" d="M138.2342,29.7892a3.6515,3.6515,0,0,1-1.4892-.2915,3.039,3.039,0,0,1-1.1123-.8287,3.6837,3.6837,0,0,1-.69-1.3042,6.3431,6.3431,0,0,1,0-3.4375,3.69,3.69,0,0,1,.69-1.3042,3.0443,3.0443,0,0,1,1.1123-.8286,3.6515,3.6515,0,0,1,1.4892-.2915,3.1762,3.1762,0,0,1,1.8946.5137,3.1409,3.1409,0,0,1,1.0664,1.3428l-1.0274.5219a1.8676,1.8676,0,0,0-.706-.9516,2.1238,2.1238,0,0,0-1.2276-.3374,2.4634,2.4634,0,0,0-.9668.1762,1.8854,1.8854,0,0,0-.69.4913,2.0721,2.0721,0,0,0-.415.7519,3.18,3.18,0,0,0-.1377.959v1.3506a2.5725,2.5725,0,0,0,.56,1.7109,2.0341,2.0341,0,0,0,1.65.6675,2.2278,2.2278,0,0,0,2.1485-1.3813l.89.5986a3.14,3.14,0,0,1-1.1435,1.3657A3.3428,3.3428,0,0,1,138.2342,29.7892Z"/><path class="cls-1" d="M148.76,29.6051a1.2035,1.2035,0,0,1-.9892-.3682,1.8175,1.8175,0,0,1-.376-.9209h-.0772a2.0461,2.0461,0,0,1-.8593,1.105,2.6657,2.6657,0,0,1-1.4268.3682,2.7786,2.7786,0,0,1-1.957-.6446,2.2657,2.2657,0,0,1-.6983-1.749,1.9986,1.9986,0,0,1,.8213-1.7187,4.364,4.364,0,0,1,2.5547-.5987h1.5654v-.7827a1.7129,1.7129,0,0,0-.46-1.2891,1.9669,1.9669,0,0,0-1.4121-.4448,2.1237,2.1237,0,0,0-1.2041.3223,2.6559,2.6559,0,0,0-.8057.8594l-.7373-.6905a2.796,2.796,0,0,1,1.0283-1.0971,3.24,3.24,0,0,1,1.78-.4527,3.2764,3.2764,0,0,1,2.24.7041,2.4773,2.4773,0,0,1,.7979,1.96v4.3486h.9053v1.0894Zm-3.5293-.8594a3.1168,3.1168,0,0,0,.8438-.1074,2.0707,2.0707,0,0,0,.66-.3067,1.5175,1.5175,0,0,0,.43-.46,1.0972,1.0972,0,0,0,.1533-.5679V25.9991h-1.6259a2.9717,2.9717,0,0,0-1.543.3067.9916.9916,0,0,0-.4834.89v.3223a1.0732,1.0732,0,0,0,.4219.9052A1.84,1.84,0,0,0,145.23,28.7457Z"/><path class="cls-1" d="M152.9491,29.6051a1.2569,1.2569,0,0,1-.9746-.36,1.3389,1.3389,0,0,1-.33-.9414V22.7765h-1.3037V21.6871h.7363a.7232.7232,0,0,0,.5449-.1611.8391.8391,0,0,0,.1455-.56V19.4928h1.1045v2.1943h1.7344v1.0894h-1.7344v5.7392h1.6114v1.0894Z"/><path class="cls-1" d="M159.5018,29.7892a3.5586,3.5586,0,0,1-1.4658-.2915,3.1652,3.1652,0,0,1-1.12-.8365,3.8432,3.8432,0,0,1-.7207-1.3042,5.8868,5.8868,0,0,1,0-3.4145,3.8385,3.8385,0,0,1,.7207-1.312,3.17,3.17,0,0,1,1.12-.836,3.5586,3.5586,0,0,1,1.4658-.2915,3.36,3.36,0,0,1,1.4268.2906,3.1549,3.1549,0,0,1,1.0742.8027,3.5816,3.5816,0,0,1,.6836,1.2158,4.8061,4.8061,0,0,1,.2373,1.5444v.5811H157.23v.3682a2.7063,2.7063,0,0,0,.1612.9438,2.2484,2.2484,0,0,0,.4609.76,2.1081,2.1081,0,0,0,.7363.5063,2.5366,2.5366,0,0,0,.99.1841,2.4072,2.4072,0,0,0,1.3115-.353,2.3216,2.3216,0,0,0,.8672-1.0127l.875.6333a3.059,3.059,0,0,1-1.1973,1.32A3.6086,3.6086,0,0,1,159.5018,29.7892Zm0-7.2583a2.3349,2.3349,0,0,0-.9209.1757,2.0606,2.0606,0,0,0-.7129.4956,2.3109,2.3109,0,0,0-.4687.7544,2.62,2.62,0,0,0-.169.9536v.1065h4.3741v-.1675a2.4116,2.4116,0,0,0-.5752-1.685A1.9648,1.9648,0,0,0,159.5018,22.5309Z"/><rect id="_Transparent_Rectangle_" data-name=" Transparent Rectangle " class="cls-2" x="2.7891" y="2.865" width="42.1439" height="42.1439"/><rect class="cls-3" x="13.2604" y="23.9079" width="9.2035" height="2.7823"/><rect class="cls-4" x="13.2604" y="18.3434" width="13.8563" height="2.7823"/><rect class="cls-5" x="13.2604" y="12.7788" width="11.9051" height="2.7823"/><path class="cls-5" d="M20.201,37.8192H10.766V9.9966H33.41V23.9079h1.887V9.9966c0-1.5366-.8449-2.7823-1.887-2.7823H10.766c-1.0421,0-1.887,1.2457-1.887,2.7823V37.8192c0,1.5367.8449,2.7823,1.887,2.7823h9.435Z"/><polygon class="cls-1" points="25.598 35.745 22.095 31.916 20.189 34 25.598 39.913 36.418 28.087 34.511 26.002 25.598 35.745"/><rect id="_Transparent_Rectangle_2" data-name=" Transparent Rectangle " class="cls-2" x="3.3867" y="-1.1092" width="39.4766" height="50.1371"/></g></svg>