<svg xmlns="http://www.w3.org/2000/svg" width="183.9193" height="47.8204" viewBox="0 0 183.9193 47.8204"><defs><style>.cls-1{fill:#002d9c;}.cls-2{fill:none;}.cls-3{fill:#a6c8ff;}</style></defs><g id="Translatable_text" data-name="Translatable text"><path class="cls-1" d="M40.44,29.6048V28.5305h1.5039V19.968H40.44V18.8938h4.2968V19.968H43.2329v8.5625h1.5039v1.0743Z"/><path class="cls-1" d="M46.9614,29.6048v-7.918H48.189v1.2744h.0615a3.9962,3.9962,0,0,1,.3145-.57,1.9441,1.9441,0,0,1,.43-.4634,1.9693,1.9693,0,0,1,.5909-.3115,2.5033,2.5033,0,0,1,.7978-.1138,2.8834,2.8834,0,0,1,1.4424.3726,2.2527,2.2527,0,0,1,.9814,1.2241h.0313a2.4207,2.4207,0,0,1,.8057-1.1177,2.4736,2.4736,0,0,1,1.6035-.479,2.3741,2.3741,0,0,1,1.8955.79,3.3123,3.3123,0,0,1,.6826,2.2329v5.0791H56.5982V24.73a2.5938,2.5938,0,0,0-.4151-1.6,1.56,1.56,0,0,0-1.3193-.5381,2.58,2.58,0,0,0-.6983.0923,1.9012,1.9012,0,0,0-.5908.2768,1.3447,1.3447,0,0,0-.414.4692,1.3847,1.3847,0,0,0-.1534.669v5.5054H51.78V24.73a2.5945,2.5945,0,0,0-.415-1.6,1.523,1.523,0,0,0-1.2891-.5381,2.656,2.656,0,0,0-.7051.0923,1.8827,1.8827,0,0,0-.5986.2768,1.4289,1.4289,0,0,0-.4219.4692,1.3346,1.3346,0,0,0-.1611.669v5.5054Z"/><path class="cls-1" d="M60.3579,21.6868h1.2276v1.2744h.0615a2.218,2.218,0,0,1,.8974-1.1016,2.6962,2.6962,0,0,1,1.419-.3569,3.0066,3.0066,0,0,1,1.335.2915,2.898,2.898,0,0,1,1.02.8286,3.8019,3.8019,0,0,1,.6445,1.3042,6.7467,6.7467,0,0,1,0,3.4375,3.7974,3.7974,0,0,1-.6445,1.3042,2.8915,2.8915,0,0,1-1.02.8286,3.0053,3.0053,0,0,1-1.335.2915A2.3957,2.3957,0,0,1,61.647,28.33h-.0615v4.3432H60.3579ZM63.6265,28.7a2.1142,2.1142,0,0,0,1.6416-.6553,2.4494,2.4494,0,0,0,.5986-1.72V24.9671a2.45,2.45,0,0,0-.5986-1.72,2.1141,2.1141,0,0,0-1.6416-.6552,2.6748,2.6748,0,0,0-.791.1157,2.2084,2.2084,0,0,0-.6514.3159,1.5187,1.5187,0,0,0-.4375.4858,1.2214,1.2214,0,0,0-.1611.6094V27.08a1.43,1.43,0,0,0,.1611.6865,1.5353,1.5353,0,0,0,.4375.5088,1.9768,1.9768,0,0,0,.6514.3164A2.8616,2.8616,0,0,0,63.6265,28.7Z"/><path class="cls-1" d="M72.2505,29.7888a3.5656,3.5656,0,0,1-1.458-.2915,3.1323,3.1323,0,0,1-1.1279-.8364,3.9268,3.9268,0,0,1-.7286-1.3042,5.72,5.72,0,0,1,0-3.4145,3.9209,3.9209,0,0,1,.7286-1.312,3.1382,3.1382,0,0,1,1.1279-.836,3.5673,3.5673,0,0,1,1.458-.2915,3.52,3.52,0,0,1,1.45.2915,3.2422,3.2422,0,0,1,1.1279.836,3.8686,3.8686,0,0,1,.7364,1.312,5.72,5.72,0,0,1,0,3.4145,3.8743,3.8743,0,0,1-.7364,1.3042,3.2358,3.2358,0,0,1-1.1279.8364A3.5188,3.5188,0,0,1,72.2505,29.7888Zm0-1.0893a2.229,2.229,0,0,0,1.626-.6138,2.507,2.507,0,0,0,.63-1.872V25.0779a2.507,2.507,0,0,0-.63-1.8721,2.4622,2.4622,0,0,0-3.253,0,2.5068,2.5068,0,0,0-.6289,1.8721v1.1358a2.5067,2.5067,0,0,0,.6289,1.872A2.233,2.233,0,0,0,72.2505,28.7Z"/><path class="cls-1" d="M77.8511,29.6048v-7.918h1.2275v1.4575h.0762a2.3973,2.3973,0,0,1,.7676-1.0127,2.3592,2.3592,0,0,1,1.52-.4448h.4756v1.2275h-.7217a2.7744,2.7744,0,0,0-1.5576.376,1.1089,1.1089,0,0,0-.56.9439v5.3706Z"/><path class="cls-1" d="M85.2935,29.6048a1.2573,1.2573,0,0,1-.9746-.36,1.3389,1.3389,0,0,1-.33-.9414V22.7762H82.6851V21.6868h.7363a.7232.7232,0,0,0,.5449-.1611.8393.8393,0,0,0,.1455-.56V19.4925h1.1045v2.1943h1.7344v1.0894H85.2163v5.7392h1.6113v1.0894Z"/><path class="cls-1" d="M98.3052,29.6048a1.2036,1.2036,0,0,1-.9893-.3682,1.8165,1.8165,0,0,1-.3759-.9209h-.0772a2.0463,2.0463,0,0,1-.8594,1.105,2.6653,2.6653,0,0,1-1.4267.3681,2.779,2.779,0,0,1-1.9571-.6445,2.266,2.266,0,0,1-.6982-1.749,1.9987,1.9987,0,0,1,.8213-1.7188,4.3646,4.3646,0,0,1,2.5547-.5986h1.5654v-.7827a1.7125,1.7125,0,0,0-.46-1.2891,1.9663,1.9663,0,0,0-1.4121-.4448,2.1242,2.1242,0,0,0-1.2041.3223,2.6563,2.6563,0,0,0-.8056.8593l-.7373-.69a2.7952,2.7952,0,0,1,1.0283-1.0971,3.24,3.24,0,0,1,1.78-.4527,3.2764,3.2764,0,0,1,2.24.7041,2.4774,2.4774,0,0,1,.7978,1.96v4.3486h.9053v1.0894Zm-3.5293-.8594a3.12,3.12,0,0,0,.8437-.1074,2.0713,2.0713,0,0,0,.66-.3067,1.5187,1.5187,0,0,0,.43-.46,1.0984,1.0984,0,0,0,.1533-.5679V25.9988h-1.626a2.9725,2.9725,0,0,0-1.5429.3066.9918.9918,0,0,0-.4834.89v.3223a1.0734,1.0734,0,0,0,.4218.9052A1.8406,1.8406,0,0,0,94.7759,28.7454Z"/><path class="cls-1" d="M107.313,29.7888a3.6506,3.6506,0,0,1-1.4893-.2915,3.0393,3.0393,0,0,1-1.1123-.8286,3.6844,3.6844,0,0,1-.69-1.3042,6.3431,6.3431,0,0,1,0-3.4375,3.6888,3.6888,0,0,1,.69-1.3042,3.046,3.046,0,0,1,1.1123-.8286,3.6523,3.6523,0,0,1,1.4893-.2915,3.1761,3.1761,0,0,1,1.8945.5137,3.14,3.14,0,0,1,1.0664,1.3428l-1.0273.5219a1.8677,1.8677,0,0,0-.7061-.9516,2.1237,2.1237,0,0,0-1.2275-.3374,2.463,2.463,0,0,0-.9668.1762,1.8855,1.8855,0,0,0-.69.4912,2.075,2.075,0,0,0-.4151.752,3.18,3.18,0,0,0-.1377.959v1.3506a2.573,2.573,0,0,0,.56,1.7109,2.0342,2.0342,0,0,0,1.65.6675,2.2277,2.2277,0,0,0,2.1484-1.3814l.89.5987a3.14,3.14,0,0,1-1.1436,1.3657A3.3425,3.3425,0,0,1,107.313,29.7888Z"/><path class="cls-1" d="M114.97,29.7888a3.5573,3.5573,0,0,1-1.4658-.2915,3.1638,3.1638,0,0,1-1.12-.8364,3.8432,3.8432,0,0,1-.7207-1.3042,5.889,5.889,0,0,1,0-3.4145,3.8385,3.8385,0,0,1,.7207-1.312,3.17,3.17,0,0,1,1.12-.836,3.5589,3.5589,0,0,1,1.4658-.2915,3.3609,3.3609,0,0,1,1.4268.29,3.1565,3.1565,0,0,1,1.0742.8028,3.5816,3.5816,0,0,1,.6836,1.2158,4.8057,4.8057,0,0,1,.2373,1.5444v.5811h-5.6934v.3681a2.7087,2.7087,0,0,0,.1612.9439,2.2484,2.2484,0,0,0,.4609.76,2.1081,2.1081,0,0,0,.7363.5063,2.5366,2.5366,0,0,0,.99.1841,2.4067,2.4067,0,0,0,1.3115-.353,2.3216,2.3216,0,0,0,.8672-1.0127l.875.6333a3.059,3.059,0,0,1-1.1973,1.32A3.6085,3.6085,0,0,1,114.97,29.7888Zm0-7.2583a2.3349,2.3349,0,0,0-.9209.1758,2.0615,2.0615,0,0,0-.7129.4956,2.3109,2.3109,0,0,0-.4687.7544,2.62,2.62,0,0,0-.169.9536v.1065h4.3741v-.1675a2.4118,2.4118,0,0,0-.5752-1.6851A1.9652,1.9652,0,0,0,114.97,22.5305Z"/><path class="cls-1" d="M120.4185,29.6048v-7.918h1.2275v1.4575h.0762a2.3965,2.3965,0,0,1,.7676-1.0127,2.3592,2.3592,0,0,1,1.5195-.4448h.4756v1.2275h-.7217a2.7744,2.7744,0,0,0-1.5576.376,1.1089,1.1089,0,0,0-.56.9439v5.3706Z"/><path class="cls-1" d="M127.86,29.6048a1.2573,1.2573,0,0,1-.9746-.36,1.3389,1.3389,0,0,1-.33-.9414V22.7762h-1.3037V21.6868h.7363a.7232.7232,0,0,0,.5449-.1611.8393.8393,0,0,0,.1455-.56V19.4925h1.1045v2.1943h1.7344v1.0894h-1.7344v5.7392h1.6114v1.0894Z"/><path class="cls-1" d="M132.11,19.83a.75.75,0,0,1-.5752-.1919.7052.7052,0,0,1-.1768-.4986v-.2a.7048.7048,0,0,1,.1768-.4985.958.958,0,0,1,1.15,0,.7052.7052,0,0,1,.1767.4985v.2a.7056.7056,0,0,1-.1767.4986A.75.75,0,0,1,132.11,19.83Zm-.6133,1.8569h1.2275v7.918h-1.2275Z"/><path class="cls-1" d="M135.7632,22.7762h-1.2891V21.6868h1.2891V20.0906a1.9908,1.9908,0,0,1,.43-1.335,1.6146,1.6146,0,0,1,1.3037-.5063h1.1973v1.0894h-1.7032v2.3481h4.4346v7.918h-1.2275V22.7762h-3.2071v6.8286h-1.2275ZM140.811,19.83a.7492.7492,0,0,1-.5751-.1919.71.71,0,0,1-.1768-.4986v-.2a.7093.7093,0,0,1,.1768-.4985.9593.9593,0,0,1,1.1513,0,.7087.7087,0,0,1,.1758.4985v.2a.7091.7091,0,0,1-.1758.4986A.7519.7519,0,0,1,140.811,19.83Z"/><path class="cls-1" d="M146.98,29.7888a3.6506,3.6506,0,0,1-1.4893-.2915,3.0393,3.0393,0,0,1-1.1123-.8286,3.6844,3.6844,0,0,1-.69-1.3042,6.3431,6.3431,0,0,1,0-3.4375,3.6888,3.6888,0,0,1,.69-1.3042,3.046,3.046,0,0,1,1.1123-.8286,3.6523,3.6523,0,0,1,1.4893-.2915,3.1761,3.1761,0,0,1,1.8945.5137,3.14,3.14,0,0,1,1.0664,1.3428l-1.0273.5219a1.8677,1.8677,0,0,0-.7061-.9516,2.1237,2.1237,0,0,0-1.2275-.3374,2.463,2.463,0,0,0-.9668.1762,1.8855,1.8855,0,0,0-.69.4912,2.075,2.075,0,0,0-.4151.752,3.18,3.18,0,0,0-.1377.959v1.3506a2.573,2.573,0,0,0,.56,1.7109,2.0342,2.0342,0,0,0,1.65.6675,2.2277,2.2277,0,0,0,2.1484-1.3814l.89.5987a3.14,3.14,0,0,1-1.1436,1.3657A3.3425,3.3425,0,0,1,146.98,29.7888Z"/><path class="cls-1" d="M157.5064,29.6048a1.2036,1.2036,0,0,1-.9893-.3682,1.8175,1.8175,0,0,1-.376-.9209h-.0771a2.0467,2.0467,0,0,1-.8594,1.105,2.6654,2.6654,0,0,1-1.4268.3681,2.7787,2.7787,0,0,1-1.957-.6445,2.266,2.266,0,0,1-.6982-1.749,1.9987,1.9987,0,0,1,.8213-1.7188,4.3643,4.3643,0,0,1,2.5546-.5986h1.5655v-.7827a1.7125,1.7125,0,0,0-.46-1.2891,1.9663,1.9663,0,0,0-1.4121-.4448,2.1239,2.1239,0,0,0-1.2041.3223,2.6566,2.6566,0,0,0-.8057.8593l-.7373-.69a2.7963,2.7963,0,0,1,1.0284-1.0971,3.24,3.24,0,0,1,1.78-.4527,3.2767,3.2767,0,0,1,2.24.7041,2.4774,2.4774,0,0,1,.7978,1.96v4.3486h.9053v1.0894Zm-3.5293-.8594a3.12,3.12,0,0,0,.8437-.1074,2.0713,2.0713,0,0,0,.66-.3067,1.52,1.52,0,0,0,.43-.46,1.0984,1.0984,0,0,0,.1533-.5679V25.9988h-1.626a2.9729,2.9729,0,0,0-1.543.3066.992.992,0,0,0-.4834.89v.3223a1.0735,1.0735,0,0,0,.4219.9052A1.8406,1.8406,0,0,0,153.9771,28.7454Z"/><path class="cls-1" d="M161.6958,29.6048a1.2573,1.2573,0,0,1-.9746-.36,1.3393,1.3393,0,0,1-.33-.9414V22.7762h-1.3037V21.6868h.7363a.7234.7234,0,0,0,.545-.1611.84.84,0,0,0,.1455-.56V19.4925h1.1045v2.1943h1.7343v1.0894h-1.7343v5.7392H163.23v1.0894Z"/><path class="cls-1" d="M168.2476,29.7888a3.557,3.557,0,0,1-1.4658-.2915,3.1641,3.1641,0,0,1-1.12-.8364,3.8449,3.8449,0,0,1-.7207-1.3042,5.889,5.889,0,0,1,0-3.4145,3.84,3.84,0,0,1,.7207-1.312,3.17,3.17,0,0,1,1.12-.836,3.5586,3.5586,0,0,1,1.4658-.2915,3.36,3.36,0,0,1,1.4267.29,3.1545,3.1545,0,0,1,1.0742.8028,3.58,3.58,0,0,1,.6836,1.2158,4.8057,4.8057,0,0,1,.2373,1.5444v.5811h-5.6933v.3681a2.7087,2.7087,0,0,0,.1611.9439,2.2471,2.2471,0,0,0,.461.76,2.1081,2.1081,0,0,0,.7363.5063,2.5365,2.5365,0,0,0,.99.1841,2.4067,2.4067,0,0,0,1.3115-.353,2.32,2.32,0,0,0,.8672-1.0127l.875.6333a3.0582,3.0582,0,0,1-1.1972,1.32A3.6088,3.6088,0,0,1,168.2476,29.7888Zm0-7.2583a2.3346,2.3346,0,0,0-.9209.1758,2.06,2.06,0,0,0-.7129.4956,2.3111,2.3111,0,0,0-.4688.7544,2.62,2.62,0,0,0-.1689.9536v.1065h4.374v-.1675a2.4118,2.4118,0,0,0-.5752-1.6851A1.965,1.965,0,0,0,168.2476,22.5305Z"/><rect id="_Transparent_Rectangle_" data-name=" Transparent Rectangle " class="cls-2" x="2.7891" y="2.865" width="42.1439" height="42.1439"/><rect id="_Transparent_Rectangle_2" data-name=" Transparent Rectangle " class="cls-2" x="3.3867" y="-1.1092" width="39.4766" height="50.1371"/><rect id="_Transparent_Rectangle_3" data-name=" Transparent Rectangle " class="cls-2" x="3.1626" y="2.7735" width="42.1439" height="42.1439"/><rect id="_Transparent_Rectangle_4" data-name=" Transparent Rectangle " class="cls-2" x="3.7602" y="-1.2006" width="39.4766" height="50.1371"/><polygon class="cls-1" points="35.671 27.394 21.349 27.394 24.155 24.305 22.621 22.624 17.184 28.586 22.621 34.548 24.155 32.867 21.349 29.778 35.671 29.778 35.671 27.394"/><path class="cls-3" d="M33.6,21.4317v-4.77a1.18,1.18,0,0,0-.353-.8466L24.7253,7.4687a1.2306,1.2306,0,0,0-.8643-.3458H11.6873A2.41,2.41,0,0,0,9.2526,9.5077V38.1253A2.41,2.41,0,0,0,11.6873,40.51H31.1652A2.41,2.41,0,0,0,33.6,38.1253V35.7405H31.1652v2.3848H11.6873V9.5077h9.739v7.1544a2.41,2.41,0,0,0,2.4347,2.3848h7.3042v2.3848Zm-9.7389-4.77V9.9966l6.8051,6.6655Z"/></g></svg>