<?xml version="1.0" encoding="utf-8"?>
<svg xmlns="http://www.w3.org/2000/svg" xmlns:xlink="http://www.w3.org/1999/xlink" width="165.2362" height="33.387" viewBox="0 0 165.2362 33.387"><defs><style>.cls-1{fill:none;}.cls-2{fill:#4589ff;}.cls-3{fill:#78a9ff;}.cls-4{fill:#a6c8ff;}.cls-5{clip-path:url(#clip-path);}.cls-6{fill:#002d9c;}</style><clipPath id="clip-path" transform="translate(-8.879 -8.131)"><rect class="cls-1" y="0.0004" width="183.919" height="47.82"/></clipPath></defs><title>getting-started-import</title><g id="Graphics"><rect class="cls-2" x="4.382" y="16.6934" width="9.203" height="2.782"/><rect class="cls-3" x="4.382" y="11.1294" width="13.856" height="2.782"/><rect class="cls-4" x="4.382" y="5.5644" width="11.905" height="2.782"/><g class="cls-5"><path class="cls-4" d="M20.201,38.736H10.766V10.913H33.41V24.825h1.887V10.913c0-1.536-.845-2.782-1.887-2.782H10.766c-1.043,0-1.887,1.246-1.887,2.782V38.736c0,1.537.844,2.782,1.887,2.782h9.435Z" transform="translate(-8.879 -8.131)"/><polygon class="cls-6" points="16.719 28.53 13.216 24.701 11.309 26.785 16.719 32.699 27.538 20.872 25.631 18.788 16.719 28.53"/></g></g><g id="Text"><path class="cls-6" d="M42.916,29.4591V28.3849h1.5034V19.8224H42.916V18.7481h4.2964v1.0743H45.7085v8.5625h1.5039v1.0742Z" transform="translate(-8.879 -8.131)"/><path class="cls-6" d="M49.4375,29.4591v-7.918H50.665v1.2744h.0616a4.0864,4.0864,0,0,1,.3144-.57,1.9326,1.9326,0,0,1,1.0205-.7749,2.5111,2.5111,0,0,1,.7984-.1138,2.8819,2.8819,0,0,1,1.4423.3726,2.2536,2.2536,0,0,1,.982,1.2241h.0307a2.4286,2.4286,0,0,1,.8057-1.1177,2.4729,2.4729,0,0,1,1.6035-.479,2.3708,2.3708,0,0,1,1.895.79,3.3124,3.3124,0,0,1,.6831,2.2329v5.0791h-1.228v-4.875a2.5952,2.5952,0,0,0-.414-1.6,1.5623,1.5623,0,0,0-1.32-.5381,2.5786,2.5786,0,0,0-.6982.0923,1.8959,1.8959,0,0,0-.5908.2768,1.3494,1.3494,0,0,0-.4141.4693,1.3854,1.3854,0,0,0-.1533.6689v5.5054h-1.228v-4.875a2.5945,2.5945,0,0,0-.4141-1.6,1.5255,1.5255,0,0,0-1.2891-.5381,2.6628,2.6628,0,0,0-.706.0923,1.8866,1.8866,0,0,0-.5982.2768,1.4239,1.4239,0,0,0-.4223.4693,1.3342,1.3342,0,0,0-.1612.6689v5.5054Z" transform="translate(-8.879 -8.131)"/><path class="cls-6" d="M62.8335,21.5411H64.061v1.2744h.0616a2.2232,2.2232,0,0,1,.8979-1.1015,2.6946,2.6946,0,0,1,1.4194-.357,3.0091,3.0091,0,0,1,1.335.2915,2.906,2.906,0,0,1,1.02.8286,3.801,3.801,0,0,1,.6445,1.3042,6.7585,6.7585,0,0,1,0,3.4375,3.7892,3.7892,0,0,1-.6445,1.3038,2.9019,2.9019,0,0,1-1.02.8291,3.0093,3.0093,0,0,1-1.335.2919,2.3983,2.3983,0,0,1-2.3173-1.4589H64.061v4.3437H62.8335Zm3.2686,7.0127a2.1133,2.1133,0,0,0,1.642-.6553,2.45,2.45,0,0,0,.5987-1.72V24.8214a2.4512,2.4512,0,0,0-.5987-1.72,2.1133,2.1133,0,0,0-1.642-.6553,2.6725,2.6725,0,0,0-.79.1157,2.21,2.21,0,0,0-.6523.3159,1.5239,1.5239,0,0,0-.4375.4859,1.22,1.22,0,0,0-.1612.6093v2.9615a1.433,1.433,0,0,0,.1612.6865,1.546,1.546,0,0,0,.4375.5088,1.9655,1.9655,0,0,0,.6523.3154A2.8371,2.8371,0,0,0,66.1021,28.5538Z" transform="translate(-8.879 -8.131)"/><path class="cls-6" d="M74.7261,29.6436a3.5687,3.5687,0,0,1-1.458-.2919,3.1405,3.1405,0,0,1-1.128-.836,3.9389,3.9389,0,0,1-.729-1.3047,5.72,5.72,0,0,1,0-3.4145,3.93,3.93,0,0,1,.729-1.312,3.1463,3.1463,0,0,1,1.128-.836,3.5686,3.5686,0,0,1,1.458-.2915,3.5134,3.5134,0,0,1,1.45.2915,3.2339,3.2339,0,0,1,1.1279.836,3.8676,3.8676,0,0,1,.7368,1.312,5.7184,5.7184,0,0,1,0,3.4145,3.8758,3.8758,0,0,1-.7368,1.3047,3.2278,3.2278,0,0,1-1.1279.836A3.5136,3.5136,0,0,1,74.7261,29.6436Zm0-1.09a2.2325,2.2325,0,0,0,1.6264-.6143,2.5068,2.5068,0,0,0,.6289-1.872V24.9317a2.5077,2.5077,0,0,0-.6289-1.8715,2.4624,2.4624,0,0,0-3.2534,0,2.5081,2.5081,0,0,0-.6289,1.8715v1.1358a2.5072,2.5072,0,0,0,.6289,1.872A2.2315,2.2315,0,0,0,74.7261,28.5538Z" transform="translate(-8.879 -8.131)"/><path class="cls-6" d="M80.3267,29.4591v-7.918h1.2275v1.4575h.0771a2.3927,2.3927,0,0,1,.7671-1.0127,2.358,2.358,0,0,1,1.5191-.4448h.4756v1.2275h-.7212a2.7707,2.7707,0,0,0-1.5572.376,1.1081,1.1081,0,0,0-.5605.9439v5.3706Z" transform="translate(-8.879 -8.131)"/><path class="cls-6" d="M87.7075,29.4591a1.2592,1.2592,0,0,1-.9746-.3594,1.3408,1.3408,0,0,1-.33-.9424V22.6305H85.0986V21.5411h.7368a.7234.7234,0,0,0,.545-.1611.8391.8391,0,0,0,.1455-.56V19.3468h1.105v2.1943h1.7338v1.0894H87.6309v5.7387h1.6113v1.09Z" transform="translate(-8.879 -8.131)"/><path class="cls-6" d="M100.72,29.4591a1.205,1.205,0,0,1-.9892-.3682,1.8193,1.8193,0,0,1-.376-.9209h-.0772a2.0431,2.0431,0,0,1-.8593,1.1045,2.6618,2.6618,0,0,1-1.4268.3691,2.7785,2.7785,0,0,1-1.957-.6445,2.2665,2.2665,0,0,1-.6983-1.75,2,2,0,0,1,.8213-1.7187,4.3678,4.3678,0,0,1,2.5547-.5987h1.5654V24.15a1.7129,1.7129,0,0,0-.46-1.2891,1.9684,1.9684,0,0,0-1.4121-.4448,2.1237,2.1237,0,0,0-1.2041.3223,2.6559,2.6559,0,0,0-.8057.8594l-.7373-.6905A2.7952,2.7952,0,0,1,95.6865,21.81a3.24,3.24,0,0,1,1.78-.4527,3.2764,3.2764,0,0,1,2.24.7041,2.4773,2.4773,0,0,1,.7979,1.96v4.3481h.9053v1.09ZM97.19,28.6a3.1367,3.1367,0,0,0,.8438-.1074,2.0686,2.0686,0,0,0,.66-.3067,1.5076,1.5076,0,0,0,.43-.4609,1.0941,1.0941,0,0,0,.1533-.5674V25.8526H97.6514a2.9665,2.9665,0,0,0-1.543.3076.99.99,0,0,0-.4834.89v.3223a1.0732,1.0732,0,0,0,.4219.9052A1.84,1.84,0,0,0,97.19,28.6Z" transform="translate(-8.879 -8.131)"/><path class="cls-6" d="M109.7285,29.6436a3.6515,3.6515,0,0,1-1.4892-.2919,3.04,3.04,0,0,1-1.1123-.8291,3.6768,3.6768,0,0,1-.6905-1.3038,6.3431,6.3431,0,0,1,0-3.4375,3.6882,3.6882,0,0,1,.6905-1.3042,3.0443,3.0443,0,0,1,1.1123-.8286,3.6515,3.6515,0,0,1,1.4892-.2915,3.1759,3.1759,0,0,1,1.8945.5137,3.1411,3.1411,0,0,1,1.0665,1.3428l-1.0274.5219a1.8676,1.8676,0,0,0-.706-.9516,2.124,2.124,0,0,0-1.2276-.3374,2.4615,2.4615,0,0,0-.9668.1763,1.884,1.884,0,0,0-.69.4912,2.0737,2.0737,0,0,0-.4151.7519,3.1824,3.1824,0,0,0-.1376.9585v1.3506a2.57,2.57,0,0,0,.5595,1.7109,2.0331,2.0331,0,0,0,1.65.668,2.2287,2.2287,0,0,0,2.1485-1.3809l.89.5987a3.1475,3.1475,0,0,1-1.1436,1.3652A3.3385,3.3385,0,0,1,109.7285,29.6436Z" transform="translate(-8.879 -8.131)"/><path class="cls-6" d="M117.4,29.6436a3.5587,3.5587,0,0,1-1.4658-.2919,3.1639,3.1639,0,0,1-1.12-.836,3.8439,3.8439,0,0,1-.7207-1.3047,5.8868,5.8868,0,0,1,0-3.4145,3.8368,3.8368,0,0,1,.7207-1.312,3.17,3.17,0,0,1,1.12-.836A3.5586,3.5586,0,0,1,117.4,21.357a3.359,3.359,0,0,1,1.4267.2906,3.1543,3.1543,0,0,1,1.0743.8027,3.5832,3.5832,0,0,1,.6836,1.2158,4.8071,4.8071,0,0,1,.2373,1.5449v.58h-5.6934V26.16a2.7115,2.7115,0,0,0,.1611.9434,2.2454,2.2454,0,0,0,.461.76,2.0938,2.0938,0,0,0,.7363.5058,2.5274,2.5274,0,0,0,.99.1846,2.399,2.399,0,0,0,1.3116-.3535,2.3124,2.3124,0,0,0,.8671-1.0127l.875.6338a3.0594,3.0594,0,0,1-1.1972,1.32A3.613,3.613,0,0,1,117.4,29.6436Zm0-7.2587a2.3367,2.3367,0,0,0-.9209.1757,2.06,2.06,0,0,0-.7129.4956,2.3109,2.3109,0,0,0-.4687.7544,2.618,2.618,0,0,0-.169.9537v.1069h4.374v-.168a2.4116,2.4116,0,0,0-.5752-1.685A1.9646,1.9646,0,0,0,117.4,22.3849Z" transform="translate(-8.879 -8.131)"/><path class="cls-6" d="M122.8477,29.4591v-7.918h1.2275v1.4575h.0762a2.397,2.397,0,0,1,.7675-1.0127,2.36,2.36,0,0,1,1.52-.4448h.4756v1.2275h-.7217a2.7742,2.7742,0,0,0-1.5576.376,1.1091,1.1091,0,0,0-.56.9439v5.3706Z" transform="translate(-8.879 -8.131)"/><path class="cls-6" d="M130.29,29.4591a1.2588,1.2588,0,0,1-.9746-.3594,1.341,1.341,0,0,1-.33-.9424V22.6305h-1.3038V21.5411h.7364a.7233.7233,0,0,0,.5449-.1611.8391.8391,0,0,0,.1455-.56V19.3468h1.1045v2.1943h1.7344v1.0894h-1.7344v5.7387h1.6113v1.09Z" transform="translate(-8.879 -8.131)"/><path class="cls-6" d="M134.54,19.6842a.75.75,0,0,1-.5752-.1919.7056.7056,0,0,1-.1767-.4986v-.2a.7052.7052,0,0,1,.1767-.4985.958.958,0,0,1,1.15,0,.7048.7048,0,0,1,.1768.4985v.2a.7052.7052,0,0,1-.1768.4986A.7494.7494,0,0,1,134.54,19.6842Zm-.6132,1.8569h1.2275v7.918h-1.2275Z" transform="translate(-8.879 -8.131)"/><path class="cls-6" d="M138.1934,22.6305h-1.2891V21.5411h1.2891V19.9449a1.99,1.99,0,0,1,.43-1.3349,1.615,1.615,0,0,1,1.3038-.5064h1.1972V19.193h-1.7031v2.3481h4.4346v7.918h-1.2276V22.6305h-3.207v6.8286h-1.2275Zm5.0478-2.9463a.75.75,0,0,1-.5752-.1919.71.71,0,0,1-.1767-.4986v-.2a.7093.7093,0,0,1,.1767-.4985.9595.9595,0,0,1,1.1514,0,.7087.7087,0,0,1,.1758.4985v.2a.7091.7091,0,0,1-.1758.4986A.752.752,0,0,1,143.2412,19.6842Z" transform="translate(-8.879 -8.131)"/><path class="cls-6" d="M149.41,29.6436a3.6517,3.6517,0,0,1-1.4893-.2919,3.0408,3.0408,0,0,1-1.1123-.8291,3.6767,3.6767,0,0,1-.69-1.3038,6.3431,6.3431,0,0,1,0-3.4375,3.688,3.688,0,0,1,.69-1.3042,3.0451,3.0451,0,0,1,1.1123-.8286,3.6516,3.6516,0,0,1,1.4893-.2915,3.1761,3.1761,0,0,1,1.8945.5137,3.1409,3.1409,0,0,1,1.0664,1.3428l-1.0273.5219a1.8683,1.8683,0,0,0-.7061-.9516,2.1237,2.1237,0,0,0-1.2275-.3374,2.4608,2.4608,0,0,0-.9668.1763,1.8835,1.8835,0,0,0-.69.4912,2.075,2.075,0,0,0-.415.7519,3.1792,3.1792,0,0,0-.1377.9585v1.3506a2.57,2.57,0,0,0,.56,1.7109,2.0329,2.0329,0,0,0,1.65.668,2.2286,2.2286,0,0,0,2.1484-1.3809l.89.5987a3.1473,3.1473,0,0,1-1.1435,1.3652A3.3389,3.3389,0,0,1,149.41,29.6436Z" transform="translate(-8.879 -8.131)"/><path class="cls-6" d="M159.9365,29.4591a1.205,1.205,0,0,1-.9892-.3682,1.8193,1.8193,0,0,1-.376-.9209h-.0772a2.0431,2.0431,0,0,1-.8593,1.1045,2.6618,2.6618,0,0,1-1.4268.3691,2.7785,2.7785,0,0,1-1.957-.6445,2.2665,2.2665,0,0,1-.6983-1.75,2,2,0,0,1,.8213-1.7187,4.3678,4.3678,0,0,1,2.5547-.5987h1.5654V24.15a1.7129,1.7129,0,0,0-.46-1.2891,1.9684,1.9684,0,0,0-1.4121-.4448,2.1237,2.1237,0,0,0-1.2041.3223,2.6549,2.6549,0,0,0-.8057.8594l-.7373-.6905a2.7952,2.7952,0,0,1,1.0283-1.0971,3.24,3.24,0,0,1,1.78-.4527,3.2764,3.2764,0,0,1,2.24.7041,2.4773,2.4773,0,0,1,.7979,1.96v4.3481h.9053v1.09ZM156.4072,28.6a3.1367,3.1367,0,0,0,.8438-.1074,2.0686,2.0686,0,0,0,.66-.3067,1.5076,1.5076,0,0,0,.43-.4609,1.0941,1.0941,0,0,0,.1533-.5674V25.8526h-1.6259a2.9665,2.9665,0,0,0-1.543.3076.99.99,0,0,0-.4834.89v.3223a1.0732,1.0732,0,0,0,.4219.9052A1.84,1.84,0,0,0,156.4072,28.6Z" transform="translate(-8.879 -8.131)"/><path class="cls-6" d="M164.126,29.4591a1.2585,1.2585,0,0,1-.9746-.3594,1.3406,1.3406,0,0,1-.33-.9424V22.6305h-1.3037V21.5411h.7363a.7232.7232,0,0,0,.5449-.1611.8391.8391,0,0,0,.1455-.56V19.3468h1.1045v2.1943h1.7344v1.0894h-1.7344v5.7387H165.66v1.09Z" transform="translate(-8.879 -8.131)"/><path class="cls-6" d="M170.6934,29.6436a3.56,3.56,0,0,1-1.4659-.2919,3.1648,3.1648,0,0,1-1.12-.836,3.8473,3.8473,0,0,1-.7207-1.3047,5.889,5.889,0,0,1,0-3.4145,3.84,3.84,0,0,1,.7207-1.312,3.1707,3.1707,0,0,1,1.12-.836,3.5594,3.5594,0,0,1,1.4659-.2915,3.359,3.359,0,0,1,1.4267.2906,3.1539,3.1539,0,0,1,1.0742.8027,3.58,3.58,0,0,1,.6836,1.2158,4.8071,4.8071,0,0,1,.2373,1.5449v.58h-5.6933V26.16a2.7115,2.7115,0,0,0,.1611.9434,2.2436,2.2436,0,0,0,.4609.76,2.0951,2.0951,0,0,0,.7364.5058,2.5271,2.5271,0,0,0,.99.1846A2.3985,2.3985,0,0,0,172.082,28.2a2.3126,2.3126,0,0,0,.8672-1.0127l.875.6338a3.06,3.06,0,0,1-1.1972,1.32A3.6132,3.6132,0,0,1,170.6934,29.6436Zm0-7.2587a2.3363,2.3363,0,0,0-.9209.1757,2.06,2.06,0,0,0-.7129.4956,2.3111,2.3111,0,0,0-.4688.7544,2.62,2.62,0,0,0-.1689.9537v.1069h4.374v-.168a2.4116,2.4116,0,0,0-.5752-1.685A1.9648,1.9648,0,0,0,170.6934,22.3849Z" transform="translate(-8.879 -8.131)"/></g></svg>