<svg xmlns="http://www.w3.org/2000/svg" width="360.302" height="98.0184" viewBox="0 0 360.302 98.0184"><defs><style>.cls-1{fill:#fff;stroke:#000;stroke-linecap:round;stroke-linejoin:round;stroke-width:0.9441px;}.cls-2{fill:#002d9c;}.cls-3{fill:none;}.cls-4{fill:#4589ff;}.cls-5{fill:#78a9ff;}.cls-6{fill:#a6c8ff;}</style></defs><g id="Translatable_text" data-name="Translatable text"><polygon class="cls-1" points="352.866 7.77 6.923 7.77 6.875 90.161 352.866 90.161 352.866 7.77"/><path class="cls-2" d="M96.8015,62.9062a9.1961,9.1961,0,0,1-3.6749-.705,7.4765,7.4765,0,0,1-2.79-2.07,9.5712,9.5712,0,0,1-1.7851-3.39,17.5334,17.5334,0,0,1,0-9.3149,9.7536,9.7536,0,0,1,1.7851-3.39,7.4228,7.4228,0,0,1,2.79-2.0854,9.8971,9.8971,0,0,1,7.335,0,7.4114,7.4114,0,0,1,2.8047,2.0854,9.7721,9.7721,0,0,1,1.7852,3.39,17.5361,17.5361,0,0,1,0,9.3149,9.5889,9.5889,0,0,1-1.7852,3.39,7.465,7.465,0,0,1-2.8047,2.07A9.2312,9.2312,0,0,1,96.8015,62.9062Zm0-2.22a6.3441,6.3441,0,0,0,2.49-.4814,5.5638,5.5638,0,0,0,1.9648-1.3853,6.3028,6.3028,0,0,0,1.2744-2.1675,8.3767,8.3767,0,0,0,.45-2.83V50.33a8.3764,8.3764,0,0,0-.45-2.83,6.3028,6.3028,0,0,0-1.2744-2.1675,5.5688,5.5688,0,0,0-1.9648-1.3848,6.6752,6.6752,0,0,0-4.9805,0,5.5617,5.5617,0,0,0-1.9648,1.3848,6.3048,6.3048,0,0,0-1.2754,2.1675,8.4016,8.4016,0,0,0-.4492,2.83v3.4922a8.4019,8.4019,0,0,0,.4492,2.83A6.3048,6.3048,0,0,0,92.3464,58.82a5.5566,5.5566,0,0,0,1.9648,1.3853A6.3375,6.3375,0,0,0,96.8015,60.6865Z"/><path class="cls-2" d="M109.9714,62.5464v-15.48h2.4v2.85h.1494a4.6807,4.6807,0,0,1,1.5-1.98,4.6094,4.6094,0,0,1,2.9707-.87h.93v2.4h-1.41a5.42,5.42,0,0,0-3.0449.7349,2.1675,2.1675,0,0,0-1.0947,1.8452v10.5Z"/><path class="cls-2" d="M130.7009,60.0552h-.12a4.7257,4.7257,0,0,1-4.53,2.851,5.8766,5.8766,0,0,1-2.6094-.57,5.6625,5.6625,0,0,1-1.9951-1.62,7.41,7.41,0,0,1-1.2608-2.55,13.21,13.21,0,0,1,0-6.72,7.4188,7.4188,0,0,1,1.2608-2.55,5.6723,5.6723,0,0,1,1.9951-1.62,5.8767,5.8767,0,0,1,2.6094-.57,5.2731,5.2731,0,0,1,2.7754.6978,4.3569,4.3569,0,0,1,1.7549,2.1533h.12V40.3462H133.1v22.2h-2.3994Zm-3.99.7212a5.576,5.576,0,0,0,1.545-.211,3.8686,3.8686,0,0,0,1.2753-.6181,3.0216,3.0216,0,0,0,.8545-.9947,2.8,2.8,0,0,0,.3155-1.3423v-5.789a2.3851,2.3851,0,0,0-.3155-1.1909,2.9807,2.9807,0,0,0-.8545-.95,4.3146,4.3146,0,0,0-1.2753-.6177,5.2048,5.2048,0,0,0-1.545-.2266,4.1286,4.1286,0,0,0-3.21,1.2818,4.7894,4.7894,0,0,0-1.17,3.3618v2.6528a4.79,4.79,0,0,0,1.17,3.3623A4.13,4.13,0,0,0,126.7106,60.7764Z"/><path class="cls-2" d="M144.02,62.9062a6.9453,6.9453,0,0,1-2.8652-.57,6.161,6.161,0,0,1-2.19-1.6352,7.4907,7.4907,0,0,1-1.41-2.55,11.4937,11.4937,0,0,1,0-6.6748,7.4768,7.4768,0,0,1,1.41-2.565,6.17,6.17,0,0,1,2.19-1.6352,6.9453,6.9453,0,0,1,2.8652-.57,6.5864,6.5864,0,0,1,2.79.5679,6.1886,6.1886,0,0,1,2.1,1.57,6.987,6.987,0,0,1,1.3349,2.3765,9.3612,9.3612,0,0,1,.4649,3.02v1.1363H139.58v.72a5.2959,5.2959,0,0,0,.3154,1.8452,4.3871,4.3871,0,0,0,.8994,1.4849,4.1208,4.1208,0,0,0,1.44.99,4.95,4.95,0,0,0,1.9346.36,4.7061,4.7061,0,0,0,2.5654-.69,4.5326,4.5326,0,0,0,1.6954-1.98l1.71,1.2378a5.9749,5.9749,0,0,1-2.34,2.5811A7.06,7.06,0,0,1,144.02,62.9062Zm0-14.19a4.5642,4.5642,0,0,0-1.8.3433,4.0522,4.0522,0,0,0-1.3955.9687,4.5532,4.5532,0,0,0-.915,1.4756,5.1132,5.1132,0,0,0-.33,1.8638v.2085h8.5508V53.248a4.707,4.707,0,0,0-1.125-3.2939A3.8408,3.8408,0,0,0,144.02,48.7163Z"/><path class="cls-2" d="M154.6706,62.5464v-15.48h2.4v2.85h.1494a4.6807,4.6807,0,0,1,1.5-1.98,4.61,4.61,0,0,1,2.9707-.87h.93v2.4h-1.41a5.42,5.42,0,0,0-3.0449.7349,2.1675,2.1675,0,0,0-1.0947,1.8452v10.5Z"/><path class="cls-2" d="M184.01,62.5464a2.3549,2.3549,0,0,1-1.9346-.72,3.559,3.559,0,0,1-.7354-1.8H181.19a4.0092,4.0092,0,0,1-1.6806,2.16,5.22,5.22,0,0,1-2.79.72,5.4312,5.4312,0,0,1-3.8252-1.26,4.4258,4.4258,0,0,1-1.3642-3.42,3.9049,3.9049,0,0,1,1.6045-3.36,8.54,8.54,0,0,1,4.9951-1.17h3.06v-1.53a3.3476,3.3476,0,0,0-.9-2.52,3.839,3.839,0,0,0-2.76-.87,4.1561,4.1561,0,0,0-2.3555.63,5.195,5.195,0,0,0-1.5752,1.68l-1.4394-1.35a5.47,5.47,0,0,1,2.01-2.145,6.3329,6.3329,0,0,1,3.4805-.8848,6.4016,6.4016,0,0,1,4.38,1.377A4.8468,4.8468,0,0,1,183.59,51.915v8.5015H185.36v2.13Zm-6.8995-1.68a6.0971,6.0971,0,0,0,1.6495-.21,4.0239,4.0239,0,0,0,1.29-.6,2.957,2.957,0,0,0,.84-.9,2.147,2.147,0,0,0,.3008-1.11v-2.55H178.01a5.8088,5.8088,0,0,0-3.0147.6,1.9389,1.9389,0,0,0-.9453,1.74v.63a2.0961,2.0961,0,0,0,.8252,1.77A3.5961,3.5961,0,0,0,177.11,60.8662Z"/><path class="cls-2" d="M201.6188,62.9062a7.126,7.126,0,0,1-2.9091-.57,5.9393,5.9393,0,0,1-2.1758-1.62,7.2089,7.2089,0,0,1-1.35-2.55,12.3751,12.3751,0,0,1,0-6.72,7.2175,7.2175,0,0,1,1.35-2.55,5.9492,5.9492,0,0,1,2.1758-1.62,7.126,7.126,0,0,1,2.9091-.57,6.2058,6.2058,0,0,1,3.7051,1.0049,6.1256,6.1256,0,0,1,2.085,2.625l-2.01,1.02a3.6458,3.6458,0,0,0-1.38-1.86,4.1418,4.1418,0,0,0-2.4-.66,4.8015,4.8015,0,0,0-1.89.3447,3.693,3.693,0,0,0-1.35.96,4.0465,4.0465,0,0,0-.8106,1.47,6.2107,6.2107,0,0,0-.2695,1.875v2.64a5.0223,5.0223,0,0,0,1.0947,3.3447,3.97,3.97,0,0,0,3.2246,1.3052,4.3536,4.3536,0,0,0,4.2-2.7l1.74,1.17a6.1482,6.1482,0,0,1-2.2354,2.67A6.5371,6.5371,0,0,1,201.6188,62.9062Z"/><path class="cls-2" d="M216.59,62.9062a6.9453,6.9453,0,0,1-2.8652-.57,6.16,6.16,0,0,1-2.1894-1.6352,7.4909,7.4909,0,0,1-1.41-2.55,11.496,11.496,0,0,1,0-6.6748,7.477,7.477,0,0,1,1.41-2.565,6.1692,6.1692,0,0,1,2.1894-1.6352,6.9453,6.9453,0,0,1,2.8652-.57,6.5866,6.5866,0,0,1,2.79.5679,6.1892,6.1892,0,0,1,2.1,1.57,6.9837,6.9837,0,0,1,1.3349,2.3765,9.3612,9.3612,0,0,1,.4649,3.02v1.1363h-11.13v.72a5.2982,5.2982,0,0,0,.3154,1.8452,4.3858,4.3858,0,0,0,.9,1.4849,4.1208,4.1208,0,0,0,1.44.99,4.95,4.95,0,0,0,1.9346.36,4.7066,4.7066,0,0,0,2.5654-.69A4.5324,4.5324,0,0,0,221,58.1064l1.71,1.2378a5.9745,5.9745,0,0,1-2.34,2.5811A7.06,7.06,0,0,1,216.59,62.9062Zm0-14.19a4.5649,4.5649,0,0,0-1.8.3433,4.0531,4.0531,0,0,0-1.3955.9687,4.5549,4.5549,0,0,0-.915,1.4756,5.1153,5.1153,0,0,0-.33,1.8638v.2085H220.7V53.248a4.707,4.707,0,0,0-1.125-3.2939A3.8408,3.8408,0,0,0,216.59,48.7163Z"/><path class="cls-2" d="M227.239,62.5464v-15.48h2.4v2.85h.15a4.6791,4.6791,0,0,1,1.5-1.98,4.6094,4.6094,0,0,1,2.9707-.87h.93v2.4h-1.41a5.42,5.42,0,0,0-3.0449.7349,2.1677,2.1677,0,0,0-1.0948,1.8452v10.5Z"/><path class="cls-2" d="M241.7888,62.5464a2.4554,2.4554,0,0,1-1.9043-.7031,2.6153,2.6153,0,0,1-.6455-1.8414V49.1963h-2.55v-2.13h1.44a1.4119,1.4119,0,0,0,1.0654-.3149,1.6382,1.6382,0,0,0,.2852-1.0953v-2.88h2.16v4.29h3.39v2.13h-3.39v11.22h3.15v2.13Z"/><path class="cls-2" d="M250.0983,43.4365a1.4654,1.4654,0,0,1-1.125-.375,1.381,1.381,0,0,1-.3447-.9751v-.39a1.3827,1.3827,0,0,1,.3447-.9751,1.875,1.875,0,0,1,2.25,0,1.3868,1.3868,0,0,1,.3448.9751v.39a1.3851,1.3851,0,0,1-.3448.9751A1.4681,1.4681,0,0,1,250.0983,43.4365Zm-1.2,3.63h2.4v15.48h-2.4Z"/><path class="cls-2" d="M257.238,49.1963h-2.52v-2.13h2.52v-3.12a3.8947,3.8947,0,0,1,.8408-2.61,3.1567,3.1567,0,0,1,2.55-.99h2.34v2.13h-3.33v4.59h8.67v15.48h-2.4v-13.35h-6.2695v13.35h-2.4Zm9.87-5.76a1.4654,1.4654,0,0,1-1.125-.375,1.385,1.385,0,0,1-.3447-.9751v-.39a1.3867,1.3867,0,0,1,.3447-.9751,1.875,1.875,0,0,1,2.25,0,1.3873,1.3873,0,0,1,.3457.9751v.39a1.3856,1.3856,0,0,1-.3457.9751A1.4654,1.4654,0,0,1,267.1081,43.4365Z"/><path class="cls-2" d="M279.1677,62.9062a7.1268,7.1268,0,0,1-2.9092-.57,5.9393,5.9393,0,0,1-2.1758-1.62,7.2121,7.2121,0,0,1-1.35-2.55,12.3777,12.3777,0,0,1,0-6.72,7.2207,7.2207,0,0,1,1.35-2.55,5.9492,5.9492,0,0,1,2.1758-1.62,7.1268,7.1268,0,0,1,2.9092-.57,6.2055,6.2055,0,0,1,3.705,1.0049,6.1256,6.1256,0,0,1,2.085,2.625l-2.01,1.02a3.6456,3.6456,0,0,0-1.38-1.86,4.1422,4.1422,0,0,0-2.4-.66,4.8021,4.8021,0,0,0-1.89.3447,3.6938,3.6938,0,0,0-1.35.96,4.0463,4.0463,0,0,0-.81,1.47,6.2107,6.2107,0,0,0-.27,1.875v2.64a5.0218,5.0218,0,0,0,1.0948,3.3447,3.97,3.97,0,0,0,3.2246,1.3052,4.3538,4.3538,0,0,0,4.2-2.7l1.74,1.17a6.1475,6.1475,0,0,1-2.2354,2.67A6.537,6.537,0,0,1,279.1677,62.9062Z"/><path class="cls-2" d="M299.7477,62.5464a2.3548,2.3548,0,0,1-1.9345-.72,3.5582,3.5582,0,0,1-.7354-1.8h-.1494a4.0089,4.0089,0,0,1-1.6807,2.16,5.2191,5.2191,0,0,1-2.79.72,5.4312,5.4312,0,0,1-3.8252-1.26,4.4258,4.4258,0,0,1-1.3642-3.42,3.9051,3.9051,0,0,1,1.6044-3.36,8.54,8.54,0,0,1,4.9952-1.17h3.06v-1.53a3.3476,3.3476,0,0,0-.9-2.52,3.839,3.839,0,0,0-2.76-.87,4.1561,4.1561,0,0,0-2.3555.63,5.195,5.195,0,0,0-1.5752,1.68l-1.44-1.35a5.4713,5.4713,0,0,1,2.01-2.145,6.3329,6.3329,0,0,1,3.4805-.8848,6.4016,6.4016,0,0,1,4.38,1.377,4.8468,4.8468,0,0,1,1.56,3.8315v8.5015h1.77v2.13Zm-6.8994-1.68a6.0969,6.0969,0,0,0,1.6494-.21,4.0245,4.0245,0,0,0,1.29-.6,2.9582,2.9582,0,0,0,.84-.9,2.147,2.147,0,0,0,.3008-1.11v-2.55h-3.1807a5.8086,5.8086,0,0,0-3.0146.6,1.9389,1.9389,0,0,0-.9453,1.74v.63a2.0961,2.0961,0,0,0,.8252,1.77A3.5961,3.5961,0,0,0,292.8483,60.8662Z"/><path class="cls-2" d="M307.9372,62.5464a2.4557,2.4557,0,0,1-1.9043-.7031,2.6153,2.6153,0,0,1-.6455-1.8414V49.1963h-2.55v-2.13h1.4394a1.4123,1.4123,0,0,0,1.0655-.3149,1.6388,1.6388,0,0,0,.2851-1.0953v-2.88h2.16v4.29h3.39v2.13h-3.39v11.22h3.1494v2.13Z"/><path class="cls-2" d="M320.7477,62.9062a6.9453,6.9453,0,0,1-2.8652-.57,6.16,6.16,0,0,1-2.1894-1.6352,7.4909,7.4909,0,0,1-1.41-2.55,11.496,11.496,0,0,1,0-6.6748,7.477,7.477,0,0,1,1.41-2.565,6.1692,6.1692,0,0,1,2.1894-1.6352,6.9453,6.9453,0,0,1,2.8652-.57,6.5866,6.5866,0,0,1,2.79.5679,6.1892,6.1892,0,0,1,2.1,1.57,6.9855,6.9855,0,0,1,1.335,2.3765,9.3639,9.3639,0,0,1,.4648,3.02v1.1363h-11.13v.72a5.2982,5.2982,0,0,0,.3154,1.8452,4.3858,4.3858,0,0,0,.8995,1.4849,4.1208,4.1208,0,0,0,1.44.99,4.95,4.95,0,0,0,1.9346.36,4.7066,4.7066,0,0,0,2.5654-.69,4.5324,4.5324,0,0,0,1.6953-1.98l1.71,1.2378a5.9745,5.9745,0,0,1-2.34,2.5811A7.06,7.06,0,0,1,320.7477,62.9062Zm0-14.19a4.5649,4.5649,0,0,0-1.8.3433,4.0531,4.0531,0,0,0-1.3955.9687,4.5549,4.5549,0,0,0-.915,1.4756,5.1153,5.1153,0,0,0-.33,1.8638v.2085h8.5508V53.248a4.707,4.707,0,0,0-1.125-3.2939A3.8408,3.8408,0,0,0,320.7477,48.7163Z"/><rect id="_Transparent_Rectangle_" data-name=" Transparent Rectangle " class="cls-3" x="6.8753" y="7.7695" width="82.3916" height="82.3916"/><rect class="cls-4" x="25.0294" y="49.2509" width="20.2647" height="6.1261"/><rect class="cls-5" x="25.0294" y="36.9986" width="30.5095" height="6.1261"/><rect class="cls-6" x="25.0294" y="24.7463" width="26.2133" height="6.1261"/><path class="cls-6" d="M40.3116,79.8816H19.5372V18.62H69.3959V49.2509h4.1549V18.62c0-3.3833-1.86-6.1261-4.1549-6.1261H19.5372c-2.2947,0-4.1549,2.7428-4.1549,6.1261V79.8816c0,3.3834,1.86,6.1262,4.1549,6.1262H40.3116Z"/><polygon class="cls-2" points="52.196 75.313 44.483 66.883 40.284 71.472 52.196 84.493 76.018 58.452 71.82 53.862 52.196 75.313"/><rect id="_Transparent_Rectangle_2" data-name=" Transparent Rectangle " class="cls-3" x="8.0435" width="77.177" height="98.0184"/></g></svg>