<svg xmlns="http://www.w3.org/2000/svg" width="177.7773" height="47.8204" viewBox="0 0 177.7773 47.8204"><defs><style>.cls-1{fill:#fff;stroke:#000;stroke-linecap:round;stroke-linejoin:round;stroke-width:0.4752px;}.cls-2{fill:#002d9c;}.cls-3{fill:none;}.cls-4{fill:#a6c8ff;}</style></defs><g id="Translatable_text" data-name="Translatable text"><polygon class="cls-1" points="174.168 2.865 2.813 2.865 2.789 45.009 174.168 45.009 174.168 2.865"/><path class="cls-2" d="M40.4406,29.6048V28.5305h1.5039V19.968H40.4406V18.8938h4.2968V19.968H43.2335v8.5625h1.5039v1.0743Z"/><path class="cls-2" d="M46.9621,29.6048v-7.918H48.19v1.2744h.0615a3.9962,3.9962,0,0,1,.3145-.57,1.9445,1.9445,0,0,1,.43-.4634,1.9676,1.9676,0,0,1,.5908-.3115,2.5033,2.5033,0,0,1,.7978-.1138,2.8834,2.8834,0,0,1,1.4424.3726,2.2528,2.2528,0,0,1,.9815,1.2241h.0312a2.4207,2.4207,0,0,1,.8057-1.1177,2.4736,2.4736,0,0,1,1.6035-.479,2.3741,2.3741,0,0,1,1.8955.79,3.3123,3.3123,0,0,1,.6826,2.2329v5.0791H56.5988V24.73a2.5938,2.5938,0,0,0-.4151-1.6,1.56,1.56,0,0,0-1.3193-.5381,2.5786,2.5786,0,0,0-.6982.0923,1.9018,1.9018,0,0,0-.5909.2768,1.3447,1.3447,0,0,0-.414.4692,1.3847,1.3847,0,0,0-.1533.669v5.5054H51.78V24.73a2.5945,2.5945,0,0,0-.415-1.6,1.523,1.523,0,0,0-1.2891-.5381,2.656,2.656,0,0,0-.7051.0923,1.8837,1.8837,0,0,0-.5986.2768,1.43,1.43,0,0,0-.4219.4692,1.3346,1.3346,0,0,0-.1611.669v5.5054Z"/><path class="cls-2" d="M60.3585,21.6868h1.2276v1.2744h.0615a2.2176,2.2176,0,0,1,.8975-1.1016,2.6959,2.6959,0,0,1,1.4189-.3569,3.0066,3.0066,0,0,1,1.335.2915,2.898,2.898,0,0,1,1.02.8286,3.8019,3.8019,0,0,1,.6445,1.3042,6.7438,6.7438,0,0,1,0,3.4375,3.7974,3.7974,0,0,1-.6445,1.3042,2.8915,2.8915,0,0,1-1.02.8286,3.0053,3.0053,0,0,1-1.335.2915A2.3957,2.3957,0,0,1,61.6476,28.33h-.0615v4.3432H60.3585ZM63.6271,28.7a2.1142,2.1142,0,0,0,1.6416-.6553,2.4494,2.4494,0,0,0,.5986-1.72V24.9671a2.45,2.45,0,0,0-.5986-1.72,2.1141,2.1141,0,0,0-1.6416-.6552,2.6752,2.6752,0,0,0-.791.1157,2.2084,2.2084,0,0,0-.6514.3159,1.5187,1.5187,0,0,0-.4375.4858,1.2214,1.2214,0,0,0-.1611.6094V27.08a1.43,1.43,0,0,0,.1611.6865,1.5353,1.5353,0,0,0,.4375.5088,1.9768,1.9768,0,0,0,.6514.3164A2.8621,2.8621,0,0,0,63.6271,28.7Z"/><path class="cls-2" d="M72.2511,29.7888a3.566,3.566,0,0,1-1.458-.2915,3.1323,3.1323,0,0,1-1.1279-.8364,3.9249,3.9249,0,0,1-.7285-1.3042,5.7184,5.7184,0,0,1,0-3.4145,3.919,3.919,0,0,1,.7285-1.312,3.1382,3.1382,0,0,1,1.1279-.836,3.5676,3.5676,0,0,1,1.458-.2915,3.52,3.52,0,0,1,1.45.2915,3.2412,3.2412,0,0,1,1.1279.836,3.8669,3.8669,0,0,1,.7364,1.312,5.72,5.72,0,0,1,0,3.4145,3.8726,3.8726,0,0,1-.7364,1.3042,3.2349,3.2349,0,0,1-1.1279.8364A3.5185,3.5185,0,0,1,72.2511,29.7888Zm0-1.0893a2.2287,2.2287,0,0,0,1.626-.6138,2.507,2.507,0,0,0,.63-1.872V25.0779a2.507,2.507,0,0,0-.63-1.8721,2.4621,2.4621,0,0,0-3.2529,0,2.5064,2.5064,0,0,0-.6289,1.8721v1.1358a2.5063,2.5063,0,0,0,.6289,1.872A2.2326,2.2326,0,0,0,72.2511,28.7Z"/><path class="cls-2" d="M77.8517,29.6048v-7.918h1.2275v1.4575h.0762a2.3973,2.3973,0,0,1,.7676-1.0127,2.3594,2.3594,0,0,1,1.5195-.4448h.4756v1.2275h-.7217a2.7744,2.7744,0,0,0-1.5576.376,1.1092,1.1092,0,0,0-.56.9439v5.3706Z"/><path class="cls-2" d="M85.2941,29.6048a1.2573,1.2573,0,0,1-.9746-.36,1.3393,1.3393,0,0,1-.33-.9414V22.7762H82.6857V21.6868h.7363a.7232.7232,0,0,0,.5449-.1611.8393.8393,0,0,0,.1455-.56V19.4925h1.1045v2.1943h1.7344v1.0894H85.2169v5.7392h1.6114v1.0894Z"/><path class="cls-2" d="M98.3058,29.6048a1.2033,1.2033,0,0,1-.9892-.3682,1.8175,1.8175,0,0,1-.376-.9209h-.0772a2.0461,2.0461,0,0,1-.8593,1.105,2.6659,2.6659,0,0,1-1.4268.3681,2.7785,2.7785,0,0,1-1.957-.6445,2.2657,2.2657,0,0,1-.6983-1.749,1.9987,1.9987,0,0,1,.8213-1.7188,4.3646,4.3646,0,0,1,2.5547-.5986h1.5654v-.7827a1.7129,1.7129,0,0,0-.46-1.2891,1.9667,1.9667,0,0,0-1.4121-.4448,2.1237,2.1237,0,0,0-1.2041.3223,2.6555,2.6555,0,0,0-.8057.8593l-.7373-.69a2.7952,2.7952,0,0,1,1.0283-1.0971,3.24,3.24,0,0,1,1.78-.4527,3.2764,3.2764,0,0,1,2.24.7041,2.4775,2.4775,0,0,1,.7979,1.96v4.3486h.9052v1.0894Zm-3.5293-.8594a3.1208,3.1208,0,0,0,.8438-.1074,2.0717,2.0717,0,0,0,.66-.3067,1.5175,1.5175,0,0,0,.43-.46,1.0984,1.0984,0,0,0,.1533-.5679V25.9988h-1.626a2.9725,2.9725,0,0,0-1.5429.3066.9918.9918,0,0,0-.4834.89v.3223a1.0732,1.0732,0,0,0,.4219.9052A1.84,1.84,0,0,0,94.7765,28.7454Z"/><path class="cls-2" d="M107.3136,29.7888a3.65,3.65,0,0,1-1.4892-.2915,3.0376,3.0376,0,0,1-1.1123-.8286,3.683,3.683,0,0,1-.6905-1.3042,6.3431,6.3431,0,0,1,0-3.4375,3.6873,3.6873,0,0,1,.6905-1.3042,3.0443,3.0443,0,0,1,1.1123-.8286,3.6515,3.6515,0,0,1,1.4892-.2915,3.1764,3.1764,0,0,1,1.8946.5137,3.141,3.141,0,0,1,1.0664,1.3428l-1.0274.5219a1.8676,1.8676,0,0,0-.706-.9516,2.124,2.124,0,0,0-1.2276-.3374,2.4634,2.4634,0,0,0-.9668.1762,1.8863,1.8863,0,0,0-.69.4912,2.0734,2.0734,0,0,0-.415.752,3.18,3.18,0,0,0-.1377.959v1.3506a2.5729,2.5729,0,0,0,.5595,1.7109,2.0345,2.0345,0,0,0,1.65.6675,2.2279,2.2279,0,0,0,2.1485-1.3814l.89.5987a3.1408,3.1408,0,0,1-1.1435,1.3657A3.3428,3.3428,0,0,1,107.3136,29.7888Z"/><path class="cls-2" d="M114.9708,29.7888a3.5576,3.5576,0,0,1-1.4658-.2915,3.1647,3.1647,0,0,1-1.12-.8364,3.8449,3.8449,0,0,1-.7207-1.3042,5.889,5.889,0,0,1,0-3.4145,3.84,3.84,0,0,1,.7207-1.312,3.1707,3.1707,0,0,1,1.12-.836,3.5593,3.5593,0,0,1,1.4658-.2915,3.3606,3.3606,0,0,1,1.4268.29,3.1565,3.1565,0,0,1,1.0742.8028,3.5816,3.5816,0,0,1,.6836,1.2158,4.8057,4.8057,0,0,1,.2373,1.5444v.5811h-5.6933v.3681a2.7087,2.7087,0,0,0,.1611.9439,2.2484,2.2484,0,0,0,.4609.76,2.1085,2.1085,0,0,0,.7364.5063,2.5361,2.5361,0,0,0,.99.1841,2.4067,2.4067,0,0,0,1.3115-.353,2.321,2.321,0,0,0,.8672-1.0127l.875.6333a3.059,3.059,0,0,1-1.1973,1.32A3.6085,3.6085,0,0,1,114.9708,29.7888Zm0-7.2583a2.3353,2.3353,0,0,0-.9209.1758,2.06,2.06,0,0,0-.7128.4956,2.3111,2.3111,0,0,0-.4688.7544,2.62,2.62,0,0,0-.1689.9536v.1065h4.374v-.1675a2.4118,2.4118,0,0,0-.5752-1.6851A1.9652,1.9652,0,0,0,114.9708,22.5305Z"/><path class="cls-2" d="M120.4191,29.6048v-7.918h1.2275v1.4575h.0762a2.3973,2.3973,0,0,1,.7676-1.0127,2.3592,2.3592,0,0,1,1.52-.4448h.4756v1.2275h-.7217a2.7744,2.7744,0,0,0-1.5576.376,1.1092,1.1092,0,0,0-.56.9439v5.3706Z"/><path class="cls-2" d="M127.8605,29.6048a1.2573,1.2573,0,0,1-.9746-.36,1.3393,1.3393,0,0,1-.33-.9414V22.7762h-1.3037V21.6868h.7363a.723.723,0,0,0,.5449-.1611.8393.8393,0,0,0,.1456-.56V19.4925h1.1044v2.1943h1.7344v1.0894h-1.7344v5.7392h1.6114v1.0894Z"/><path class="cls-2" d="M132.1105,19.83a.75.75,0,0,1-.5752-.1919.7052.7052,0,0,1-.1768-.4986v-.2a.7048.7048,0,0,1,.1768-.4985.958.958,0,0,1,1.15,0,.7048.7048,0,0,1,.1767.4985v.2a.7052.7052,0,0,1-.1767.4986A.75.75,0,0,1,132.1105,19.83Zm-.6133,1.8569h1.2276v7.918h-1.2276Z"/><path class="cls-2" d="M135.7638,22.7762h-1.289V21.6868h1.289V20.0906a1.9908,1.9908,0,0,1,.43-1.335,1.6146,1.6146,0,0,1,1.3037-.5063h1.1973v1.0894h-1.7031v2.3481h4.4345v7.918h-1.2275V22.7762h-3.207v6.8286h-1.2276Zm5.0479-2.9463a.7494.7494,0,0,1-.5752-.1919.71.71,0,0,1-.1768-.4986v-.2a.7093.7093,0,0,1,.1768-.4985.9593.9593,0,0,1,1.1513,0,.7087.7087,0,0,1,.1758.4985v.2a.7091.7091,0,0,1-.1758.4986A.7516.7516,0,0,1,140.8117,19.83Z"/><path class="cls-2" d="M146.9806,29.7888a3.65,3.65,0,0,1-1.4892-.2915,3.0376,3.0376,0,0,1-1.1123-.8286,3.683,3.683,0,0,1-.69-1.3042,6.3431,6.3431,0,0,1,0-3.4375,3.6873,3.6873,0,0,1,.69-1.3042,3.0443,3.0443,0,0,1,1.1123-.8286,3.6515,3.6515,0,0,1,1.4892-.2915,3.1759,3.1759,0,0,1,1.8945.5137,3.1405,3.1405,0,0,1,1.0665,1.3428l-1.0274.5219a1.8676,1.8676,0,0,0-.706-.9516,2.1242,2.1242,0,0,0-1.2276-.3374,2.463,2.463,0,0,0-.9668.1762,1.8855,1.8855,0,0,0-.69.4912,2.075,2.075,0,0,0-.4151.752,3.1834,3.1834,0,0,0-.1376.959v1.3506a2.5729,2.5729,0,0,0,.5595,1.7109,2.0343,2.0343,0,0,0,1.65.6675,2.2279,2.2279,0,0,0,2.1485-1.3814l.89.5987a3.14,3.14,0,0,1-1.1436,1.3657A3.3425,3.3425,0,0,1,146.9806,29.7888Z"/><path class="cls-2" d="M157.507,29.6048a1.2036,1.2036,0,0,1-.9893-.3682,1.8175,1.8175,0,0,1-.376-.9209h-.0771a2.0463,2.0463,0,0,1-.8594,1.105,2.6653,2.6653,0,0,1-1.4267.3681,2.779,2.779,0,0,1-1.9571-.6445,2.266,2.266,0,0,1-.6982-1.749,1.9987,1.9987,0,0,1,.8213-1.7188,4.3646,4.3646,0,0,1,2.5547-.5986h1.5654v-.7827a1.7125,1.7125,0,0,0-.46-1.2891,1.9663,1.9663,0,0,0-1.4121-.4448,2.1242,2.1242,0,0,0-1.2041.3223,2.6563,2.6563,0,0,0-.8056.8593l-.7373-.69a2.7952,2.7952,0,0,1,1.0283-1.0971,3.24,3.24,0,0,1,1.78-.4527,3.2764,3.2764,0,0,1,2.24.7041,2.4774,2.4774,0,0,1,.7978,1.96v4.3486h.9053v1.0894Zm-3.5293-.8594a3.12,3.12,0,0,0,.8437-.1074,2.0713,2.0713,0,0,0,.66-.3067,1.5187,1.5187,0,0,0,.43-.46,1.0984,1.0984,0,0,0,.1533-.5679V25.9988h-1.626a2.9725,2.9725,0,0,0-1.5429.3066.9918.9918,0,0,0-.4834.89v.3223a1.0734,1.0734,0,0,0,.4218.9052A1.8406,1.8406,0,0,0,153.9777,28.7454Z"/><path class="cls-2" d="M161.6964,29.6048a1.2574,1.2574,0,0,1-.9746-.36,1.3393,1.3393,0,0,1-.33-.9414V22.7762H159.088V21.6868h.7364a.7233.7233,0,0,0,.5449-.1611.8393.8393,0,0,0,.1455-.56V19.4925h1.1045v2.1943h1.7344v1.0894h-1.7344v5.7392h1.6113v1.0894Z"/><path class="cls-2" d="M168.2482,29.7888a3.557,3.557,0,0,1-1.4658-.2915,3.1638,3.1638,0,0,1-1.12-.8364,3.8415,3.8415,0,0,1-.7207-1.3042,5.8868,5.8868,0,0,1,0-3.4145,3.8368,3.8368,0,0,1,.7207-1.312,3.17,3.17,0,0,1,1.12-.836,3.5586,3.5586,0,0,1,1.4658-.2915,3.36,3.36,0,0,1,1.4267.29,3.1559,3.1559,0,0,1,1.0743.8028,3.5832,3.5832,0,0,1,.6836,1.2158,4.8057,4.8057,0,0,1,.2373,1.5444v.5811h-5.6934v.3681a2.7087,2.7087,0,0,0,.1611.9439,2.25,2.25,0,0,0,.461.76,2.1081,2.1081,0,0,0,.7363.5063,2.5365,2.5365,0,0,0,.99.1841,2.4073,2.4073,0,0,0,1.3116-.353,2.3216,2.3216,0,0,0,.8672-1.0127l.875.6333a3.059,3.059,0,0,1-1.1973,1.32A3.6085,3.6085,0,0,1,168.2482,29.7888Zm0-7.2583a2.3349,2.3349,0,0,0-.9209.1758,2.06,2.06,0,0,0-.7129.4956,2.3109,2.3109,0,0,0-.4687.7544,2.6178,2.6178,0,0,0-.169.9536v.1065h4.374v-.1675a2.4118,2.4118,0,0,0-.5752-1.6851A1.965,1.965,0,0,0,168.2482,22.5305Z"/><rect id="_Transparent_Rectangle_" data-name=" Transparent Rectangle " class="cls-3" x="2.7891" y="2.865" width="42.1439" height="42.1439"/><rect id="_Transparent_Rectangle_2" data-name=" Transparent Rectangle " class="cls-3" x="3.3867" y="-1.1092" width="39.4766" height="50.1371"/><polygon class="cls-2" points="35.297 27.485 20.975 27.485 23.781 24.397 22.248 22.716 16.811 28.678 22.248 34.64 23.781 32.958 20.975 29.87 35.297 29.87 35.297 27.485"/><path class="cls-4" d="M33.2264,21.5231v-4.77a1.18,1.18,0,0,0-.3531-.8466L24.3518,7.56a1.231,1.231,0,0,0-.8644-.3458H11.3138A2.41,2.41,0,0,0,8.879,9.5991V38.2167a2.41,2.41,0,0,0,2.4348,2.3848H30.7916a2.41,2.41,0,0,0,2.4348-2.3848V35.8319H30.7916v2.3848H11.3138V9.5991h9.7389v7.1544a2.41,2.41,0,0,0,2.4347,2.3848h7.3042v2.3848Zm-9.739-4.77V10.088l6.8051,6.6655Z"/></g></svg>