<svg xmlns="http://www.w3.org/2000/svg" width="240.829" height="65.5768" viewBox="0 0 240.829 65.5768"><defs><style>.cls-1{fill:#fff;stroke:#000;stroke-linecap:round;stroke-linejoin:round;stroke-width:0.6294px;}.cls-2{fill:#002d9c;}.cls-3{fill:none;}.cls-4{fill:#a6c8ff;}</style></defs><g id="Translatable_text" data-name="Translatable text"><polygon class="cls-1" points="236.11 5.407 5.467 5.407 5.435 60.338 236.11 60.338 236.11 5.407"/><path class="cls-2" d="M59.5088,41.9272v-1.4h1.96V29.3667h-1.96v-1.4h5.6006v1.4H63.1485V40.5273h1.9609v1.4Z"/><path class="cls-2" d="M68.0088,41.9272V31.6064h1.6v1.6612h.08a5.368,5.368,0,0,1,.41-.7427,2.5426,2.5426,0,0,1,.5605-.604,2.5882,2.5882,0,0,1,.77-.4058,3.2739,3.2739,0,0,1,1.04-.1484,3.7565,3.7565,0,0,1,1.88.4853,2.9376,2.9376,0,0,1,1.28,1.5962h.04a3.1714,3.1714,0,0,1,1.05-1.457,3.2284,3.2284,0,0,1,2.0908-.6245,3.0918,3.0918,0,0,1,2.47,1.03,4.3147,4.3147,0,0,1,.8907,2.91v6.6206H80.5694v-6.354a3.3811,3.3811,0,0,0-.54-2.0849,2.0354,2.0354,0,0,0-1.72-.7017,3.3644,3.3644,0,0,0-.91.1206,2.4637,2.4637,0,0,0-.77.3609,1.7645,1.7645,0,0,0-.54.6113,1.8146,1.8146,0,0,0-.1992.8716v7.1762H74.2891v-6.354a3.3818,3.3818,0,0,0-.54-2.0849,1.9874,1.9874,0,0,0-1.68-.7017,3.4855,3.4855,0,0,0-.9209.1206,2.45,2.45,0,0,0-.7793.3609,1.8549,1.8549,0,0,0-.5508.6113,1.7418,1.7418,0,0,0-.21.8716v7.1762Z"/><path class="cls-2" d="M85.47,31.6064h1.6v1.6612h.08a2.9034,2.9034,0,0,1,1.17-1.4356,3.5166,3.5166,0,0,1,1.8506-.4653,3.9282,3.9282,0,0,1,1.74.38,3.7939,3.7939,0,0,1,1.33,1.08,4.9611,4.9611,0,0,1,.84,1.7,8.7931,8.7931,0,0,1,0,4.48,4.9521,4.9521,0,0,1-.84,1.7,3.7778,3.7778,0,0,1-1.33,1.08,3.923,3.923,0,0,1-1.74.38,3.1258,3.1258,0,0,1-3.0206-1.9014h-.08v5.6611h-1.6Zm4.26,9.1407a2.7551,2.7551,0,0,0,2.1407-.854,3.197,3.197,0,0,0,.78-2.2417V35.8823a3.1971,3.1971,0,0,0-.78-2.2412,2.7554,2.7554,0,0,0-2.1407-.8545,3.4764,3.4764,0,0,0-1.0293.1509,2.8744,2.8744,0,0,0-.8506.4121,1.9871,1.9871,0,0,0-.57.6333,1.5938,1.5938,0,0,0-.21.7939v3.8594a1.8693,1.8693,0,0,0,.21.895,2.0151,2.0151,0,0,0,.57.6631,2.5734,2.5734,0,0,0,.8506.4121A3.71,3.71,0,0,0,89.73,40.7471Z"/><path class="cls-2" d="M100.9707,42.1675a4.6507,4.6507,0,0,1-1.9-.38,4.0907,4.0907,0,0,1-1.47-1.09,5.1243,5.1243,0,0,1-.95-1.7,7.4551,7.4551,0,0,1,0-4.45,5.1085,5.1085,0,0,1,.95-1.71,4.0978,4.0978,0,0,1,1.47-1.09,4.6571,4.6571,0,0,1,1.9-.38,4.5827,4.5827,0,0,1,1.89.38,4.2315,4.2315,0,0,1,1.4707,1.09,5.0409,5.0409,0,0,1,.96,1.71,7.453,7.453,0,0,1,0,4.45,5.0563,5.0563,0,0,1-.96,1.7,4.2239,4.2239,0,0,1-1.4707,1.09A4.5764,4.5764,0,0,1,100.9707,42.1675Zm0-1.42a2.91,2.91,0,0,0,2.12-.8,3.2731,3.2731,0,0,0,.8193-2.44v-1.48a3.2725,3.2725,0,0,0-.8193-2.44,3.2085,3.2085,0,0,0-4.24,0,3.2687,3.2687,0,0,0-.82,2.44v1.48a3.2693,3.2693,0,0,0,.82,2.4405A2.9065,2.9065,0,0,0,100.9707,40.7471Z"/><path class="cls-2" d="M108.2705,41.9272V31.6064h1.6v1.9h.1a3.1176,3.1176,0,0,1,1-1.32,3.0738,3.0738,0,0,1,1.9805-.58h.6191v1.6h-.9394a3.6113,3.6113,0,0,0-2.03.49,1.4441,1.4441,0,0,0-.73,1.23v7.0005Z"/><path class="cls-2" d="M117.9717,41.9272a1.6393,1.6393,0,0,1-1.27-.4687,1.7435,1.7435,0,0,1-.43-1.2276V33.0268h-1.7v-1.42h.96a.94.94,0,0,0,.71-.21,1.0867,1.0867,0,0,0,.1905-.73v-1.92h1.4394v2.86h2.2608v1.42h-2.2608v7.48h2.1006v1.42Z"/><path class="cls-2" d="M134.9317,41.9272a1.5726,1.5726,0,0,1-1.29-.48,2.38,2.38,0,0,1-.4892-1.2h-.1006a2.6662,2.6662,0,0,1-1.12,1.44,3.4756,3.4756,0,0,1-1.86.48,3.619,3.619,0,0,1-2.55-.84,2.9516,2.9516,0,0,1-.91-2.28,2.6021,2.6021,0,0,1,1.07-2.24,5.69,5.69,0,0,1,3.33-.78h2.04v-1.02a2.2336,2.2336,0,0,0-.6-1.68,2.5616,2.5616,0,0,0-1.8408-.58,2.7686,2.7686,0,0,0-1.5694.42,3.4741,3.4741,0,0,0-1.0508,1.12l-.96-.9a3.6443,3.6443,0,0,1,1.3408-1.43,4.2177,4.2177,0,0,1,2.3193-.59,4.27,4.27,0,0,1,2.9209.918,3.2326,3.2326,0,0,1,1.04,2.5546v5.668h1.18v1.42Zm-4.6-1.12a4.0553,4.0553,0,0,0,1.1-.14,2.6928,2.6928,0,0,0,.86-.4,1.9626,1.9626,0,0,0,.56-.6,1.4287,1.4287,0,0,0,.2-.74v-1.7h-2.12a3.8689,3.8689,0,0,0-2.01.4,1.2924,1.2924,0,0,0-.63,1.16v.42a1.3979,1.3979,0,0,0,.55,1.18A2.3978,2.3978,0,0,0,130.3321,40.8071Z"/><path class="cls-2" d="M146.6719,42.1675a4.7487,4.7487,0,0,1-1.9394-.38,3.9374,3.9374,0,0,1-1.45-1.08,4.81,4.81,0,0,1-.9-1.7,8.2582,8.2582,0,0,1,0-4.48,4.8182,4.8182,0,0,1,.9-1.7,3.9536,3.9536,0,0,1,1.45-1.08,4.7552,4.7552,0,0,1,1.9394-.38,4.1371,4.1371,0,0,1,2.4707.67,4.0874,4.0874,0,0,1,1.39,1.75l-1.34.68a2.428,2.428,0,0,0-.92-1.24,2.7628,2.7628,0,0,0-1.6006-.44,3.2073,3.2073,0,0,0-1.26.23,2.4651,2.4651,0,0,0-.9.64,2.7074,2.7074,0,0,0-.54.98,4.1314,4.1314,0,0,0-.18,1.25v1.76a3.3477,3.3477,0,0,0,.7305,2.23,2.6462,2.6462,0,0,0,2.1494.87,2.904,2.904,0,0,0,2.8008-1.8l1.16.78a4.1,4.1,0,0,1-1.49,1.78A4.36,4.36,0,0,1,146.6719,42.1675Z"/><path class="cls-2" d="M156.6524,42.1675a4.6315,4.6315,0,0,1-1.91-.38,4.1229,4.1229,0,0,1-1.46-1.09,5.0011,5.0011,0,0,1-.9395-1.7,7.6644,7.6644,0,0,1,0-4.45,4.9874,4.9874,0,0,1,.9395-1.71,4.13,4.13,0,0,1,1.46-1.09,4.6378,4.6378,0,0,1,1.91-.38,4.3827,4.3827,0,0,1,1.86.3789,4.1212,4.1212,0,0,1,1.4,1.0464,4.6638,4.6638,0,0,1,.89,1.5845,6.2425,6.2425,0,0,1,.3105,2.0131v.7574h-7.4209v.48a3.5371,3.5371,0,0,0,.21,1.23,2.9033,2.9033,0,0,0,.6006.99,2.7364,2.7364,0,0,0,.96.66,3.3,3.3,0,0,0,1.29.24,3.137,3.137,0,0,0,1.71-.46,3.0183,3.0183,0,0,0,1.13-1.32l1.14.8252a3.9837,3.9837,0,0,1-1.56,1.7207A4.7059,4.7059,0,0,1,156.6524,42.1675Zm0-9.461a3.0454,3.0454,0,0,0-1.2.229,2.6963,2.6963,0,0,0-.93.646,3.0265,3.0265,0,0,0-.61.9839,3.4074,3.4074,0,0,0-.22,1.2422v.1392h5.7V35.728a3.1387,3.1387,0,0,0-.75-2.1963A2.56,2.56,0,0,0,156.6524,32.7065Z"/><path class="cls-2" d="M163.753,41.9272V31.6064h1.6v1.9h.1006a3.116,3.116,0,0,1,1-1.32,3.0735,3.0735,0,0,1,1.98-.58h.6192v1.6h-.9395a3.6115,3.6115,0,0,0-2.03.49,1.4441,1.4441,0,0,0-.73,1.23v7.0005Z"/><path class="cls-2" d="M173.4541,41.9272a1.6393,1.6393,0,0,1-1.27-.4687,1.7435,1.7435,0,0,1-.43-1.2276V33.0268h-1.7v-1.42h.96a.94.94,0,0,0,.71-.21,1.0873,1.0873,0,0,0,.19-.73v-1.92h1.4394v2.86h2.2608v1.42h-2.2608v7.48h2.1006v1.42Z"/><path class="cls-2" d="M178.9942,29.1865a.9766.9766,0,0,1-.75-.25.9217.9217,0,0,1-.23-.65v-.26a.9224.9224,0,0,1,.23-.65,1.25,1.25,0,0,1,1.5,0,.9229.9229,0,0,1,.23.65v.26a.9222.9222,0,0,1-.23.65A.9766.9766,0,0,1,178.9942,29.1865Zm-.8,2.42h1.6V41.9272h-1.6Z"/><path class="cls-2" d="M183.7539,33.0268h-1.68v-1.42h1.68v-2.08a2.5946,2.5946,0,0,1,.5606-1.74,2.1035,2.1035,0,0,1,1.7-.66h1.56v1.42h-2.22v3.06h5.78V41.9272h-1.6006v-8.9h-4.18v8.9h-1.6006Zm6.5811-3.84a.9736.9736,0,0,1-.75-.25.9223.9223,0,0,1-.2305-.65v-.26a.923.923,0,0,1,.2305-.65,1.25,1.25,0,0,1,1.5,0,.9224.9224,0,0,1,.23.65v.26a.9217.9217,0,0,1-.23.65A.9766.9766,0,0,1,190.335,29.1865Z"/><path class="cls-2" d="M198.3741,42.1675a4.7488,4.7488,0,0,1-1.94-.38,3.939,3.939,0,0,1-1.45-1.08,4.8112,4.8112,0,0,1-.9-1.7,8.2582,8.2582,0,0,1,0-4.48,4.82,4.82,0,0,1,.9-1.7,3.9553,3.9553,0,0,1,1.45-1.08,4.7553,4.7553,0,0,1,1.94-.38,4.1375,4.1375,0,0,1,2.4707.67,4.0864,4.0864,0,0,1,1.39,1.75l-1.34.68a2.4288,2.4288,0,0,0-.92-1.24,2.7623,2.7623,0,0,0-1.6005-.44,3.207,3.207,0,0,0-1.26.23,2.4647,2.4647,0,0,0-.9.64,2.7072,2.7072,0,0,0-.54.98,4.1283,4.1283,0,0,0-.18,1.25v1.76a3.3476,3.3476,0,0,0,.73,2.23,2.6465,2.6465,0,0,0,2.1495.87,2.904,2.904,0,0,0,2.8007-1.8l1.16.78a4.1009,4.1009,0,0,1-1.49,1.78A4.36,4.36,0,0,1,198.3741,42.1675Z"/><path class="cls-2" d="M212.0948,41.9272a1.5726,1.5726,0,0,1-1.29-.48,2.38,2.38,0,0,1-.4892-1.2h-.1006a2.6662,2.6662,0,0,1-1.12,1.44,3.4756,3.4756,0,0,1-1.86.48,3.6188,3.6188,0,0,1-2.55-.84,2.9517,2.9517,0,0,1-.91-2.28,2.6022,2.6022,0,0,1,1.07-2.24,5.69,5.69,0,0,1,3.33-.78h2.04v-1.02a2.2336,2.2336,0,0,0-.6-1.68,2.5617,2.5617,0,0,0-1.8409-.58,2.7684,2.7684,0,0,0-1.5693.42,3.4741,3.4741,0,0,0-1.0508,1.12l-.96-.9a3.6435,3.6435,0,0,1,1.3408-1.43,4.2177,4.2177,0,0,1,2.3193-.59,4.27,4.27,0,0,1,2.9209.918,3.2326,3.2326,0,0,1,1.04,2.5546v5.668h1.18v1.42Zm-4.6-1.12a4.0553,4.0553,0,0,0,1.1-.14,2.6928,2.6928,0,0,0,.86-.4,1.9639,1.9639,0,0,0,.56-.6,1.4287,1.4287,0,0,0,.2-.74v-1.7h-2.12a3.8687,3.8687,0,0,0-2.01.4,1.2924,1.2924,0,0,0-.63,1.16v.42a1.3979,1.3979,0,0,0,.55,1.18A2.3978,2.3978,0,0,0,207.4952,40.8071Z"/><path class="cls-2" d="M217.5557,41.9272a1.6393,1.6393,0,0,1-1.27-.4687,1.7435,1.7435,0,0,1-.43-1.2276V33.0268h-1.7v-1.42h.96a.94.94,0,0,0,.71-.21,1.0867,1.0867,0,0,0,.1905-.73v-1.92h1.4394v2.86h2.2608v1.42h-2.2608v7.48h2.1006v1.42Z"/><path class="cls-2" d="M226.0957,42.1675a4.6313,4.6313,0,0,1-1.91-.38,4.1233,4.1233,0,0,1-1.46-1.09,5.0026,5.0026,0,0,1-.9394-1.7,7.6644,7.6644,0,0,1,0-4.45,4.9889,4.9889,0,0,1,.9394-1.71,4.1306,4.1306,0,0,1,1.46-1.09,4.6377,4.6377,0,0,1,1.91-.38,4.3832,4.3832,0,0,1,1.86.3789,4.1212,4.1212,0,0,1,1.4,1.0464,4.6619,4.6619,0,0,1,.89,1.5845,6.24,6.24,0,0,1,.3106,2.0131v.7574h-7.4209v.48a3.5394,3.5394,0,0,0,.21,1.23,2.9064,2.9064,0,0,0,.6006.99,2.7368,2.7368,0,0,0,.96.66,3.3,3.3,0,0,0,1.29.24,3.1374,3.1374,0,0,0,1.71-.46,3.0189,3.0189,0,0,0,1.13-1.32l1.14.8252a3.9825,3.9825,0,0,1-1.56,1.7207A4.7057,4.7057,0,0,1,226.0957,42.1675Zm0-9.461a3.0461,3.0461,0,0,0-1.2.229,2.6959,2.6959,0,0,0-.93.646,3.0265,3.0265,0,0,0-.61.9839,3.4053,3.4053,0,0,0-.22,1.2422v.1392h5.7V35.728a3.1387,3.1387,0,0,0-.75-2.1963A2.56,2.56,0,0,0,226.0957,32.7065Z"/><rect id="_Transparent_Rectangle_" data-name=" Transparent Rectangle " class="cls-3" x="5.4352" y="5.4073" width="54.931" height="54.931"/><rect id="_Transparent_Rectangle_2" data-name=" Transparent Rectangle " class="cls-3" x="6.2141" y="0.2273" width="51.4544" height="65.3495"/><polygon class="cls-2" points="53.866 38.259 30.992 38.259 35.473 33.733 33.024 31.27 24.34 40.006 33.024 48.741 35.473 46.278 30.992 41.753 53.866 41.753 53.866 38.259"/><path class="cls-4" d="M48.9147,29.5229V22.5343a1.6814,1.6814,0,0,0-.5482-1.2405L35.1338,9.0638a1.9735,1.9735,0,0,0-1.3422-.5066H14.8876a3.6459,3.6459,0,0,0-3.7807,3.4942V53.9829a3.646,3.646,0,0,0,3.7807,3.4943H45.1339a3.646,3.646,0,0,0,3.7808-3.4943V50.4886H45.1339v3.4943H14.8876V12.0514H30.0108V22.5343a3.646,3.646,0,0,0,3.7808,3.4943H45.1339v3.4943ZM33.7916,22.5343V12.7678l10.5673,9.7665Z"/></g></svg>