<svg xmlns="http://www.w3.org/2000/svg" width="240.829" height="65.5768" viewBox="0 0 240.829 65.5768"><defs><style>.cls-1{fill:#fff;stroke:#000;stroke-linecap:round;stroke-linejoin:round;stroke-width:0.6294px;}.cls-2{fill:#002d9c;}.cls-3{fill:none;}.cls-4{fill:#4589ff;}.cls-5{fill:#78a9ff;}.cls-6{fill:#a6c8ff;}</style></defs><g id="Translatable_text" data-name="Translatable text"><polygon class="cls-1" points="236.11 5.407 5.467 5.407 5.435 60.338 236.11 60.338 236.11 5.407"/><path class="cls-2" d="M65.3889,42.1675a6.138,6.138,0,0,1-2.45-.47,4.99,4.99,0,0,1-1.8594-1.38,6.3927,6.3927,0,0,1-1.19-2.26,11.6889,11.6889,0,0,1,0-6.21,6.5125,6.5125,0,0,1,1.19-2.26,4.9485,4.9485,0,0,1,1.8594-1.39,6.6,6.6,0,0,1,4.8906,0,4.9392,4.9392,0,0,1,1.87,1.39,6.5125,6.5125,0,0,1,1.19,2.26,11.6915,11.6915,0,0,1,0,6.21,6.3927,6.3927,0,0,1-1.19,2.26,4.9809,4.9809,0,0,1-1.87,1.38A6.1577,6.1577,0,0,1,65.3889,42.1675Zm0-1.48a4.224,4.224,0,0,0,1.66-.3208,3.7112,3.7112,0,0,0,1.3106-.9233,4.2126,4.2126,0,0,0,.85-1.4454,5.5924,5.5924,0,0,0,.3-1.8867V33.7827a5.5944,5.5944,0,0,0-.3-1.8867,4.21,4.21,0,0,0-.85-1.4448,3.71,3.71,0,0,0-1.3106-.9234,4.45,4.45,0,0,0-3.32,0,3.6976,3.6976,0,0,0-1.31.9234,4.1962,4.1962,0,0,0-.8506,1.4448,5.6194,5.6194,0,0,0-.3,1.8867v2.3281a5.6173,5.6173,0,0,0,.3,1.8867,4.1989,4.1989,0,0,0,.8506,1.4454,3.6986,3.6986,0,0,0,1.31.9233A4.2273,4.2273,0,0,0,65.3889,40.687Z"/><path class="cls-2" d="M74.17,41.9272V31.6064h1.6v1.9H75.87a3.116,3.116,0,0,1,1-1.32,3.0736,3.0736,0,0,1,1.9805-.58H79.47v1.6h-.9394a3.6113,3.6113,0,0,0-2.03.49,1.4443,1.4443,0,0,0-.7305,1.23v7.0005Z"/><path class="cls-2" d="M87.99,40.2661h-.08A3.1508,3.1508,0,0,1,84.89,42.1675a3.923,3.923,0,0,1-1.74-.38,3.7778,3.7778,0,0,1-1.33-1.08,4.9521,4.9521,0,0,1-.84-1.7,8.7931,8.7931,0,0,1,0-4.48,4.9611,4.9611,0,0,1,.84-1.7,3.7939,3.7939,0,0,1,1.33-1.08,3.9282,3.9282,0,0,1,1.74-.38,3.5168,3.5168,0,0,1,1.8506.4653,2.908,2.908,0,0,1,1.17,1.4356h.08V27.1265h1.6V41.9272h-1.6Zm-2.66.481a3.71,3.71,0,0,0,1.0293-.1407,2.5719,2.5719,0,0,0,.85-.4121,2.0143,2.0143,0,0,0,.57-.6631,1.8693,1.8693,0,0,0,.21-.895V34.7768a1.5938,1.5938,0,0,0-.21-.7939,1.9863,1.9863,0,0,0-.57-.6333,2.8726,2.8726,0,0,0-.85-.4121,3.4764,3.4764,0,0,0-1.0293-.1509,2.7553,2.7553,0,0,0-2.1407.8545,3.1971,3.1971,0,0,0-.78,2.2412v1.7691a3.197,3.197,0,0,0,.78,2.2417A2.7549,2.7549,0,0,0,85.33,40.7471Z"/><path class="cls-2" d="M96.87,42.1675a4.6318,4.6318,0,0,1-1.91-.38,4.1229,4.1229,0,0,1-1.46-1.09,5.0028,5.0028,0,0,1-.94-1.7,7.6644,7.6644,0,0,1,0-4.45,4.989,4.989,0,0,1,.94-1.71,4.13,4.13,0,0,1,1.46-1.09,4.6381,4.6381,0,0,1,1.91-.38,4.3824,4.3824,0,0,1,1.86.3789,4.1212,4.1212,0,0,1,1.4,1.0464,4.66,4.66,0,0,1,.89,1.5845,6.2425,6.2425,0,0,1,.31,2.0131v.7574H93.91v.48a3.5371,3.5371,0,0,0,.21,1.23,2.9033,2.9033,0,0,0,.6006.99,2.7364,2.7364,0,0,0,.96.66,3.3,3.3,0,0,0,1.29.24,3.137,3.137,0,0,0,1.71-.46,3.0183,3.0183,0,0,0,1.13-1.32l1.14.8252a3.9825,3.9825,0,0,1-1.56,1.7207A4.7059,4.7059,0,0,1,96.87,42.1675Zm0-9.461a3.0458,3.0458,0,0,0-1.2.229,2.6963,2.6963,0,0,0-.93.646,3.0245,3.0245,0,0,0-.61.9839,3.4053,3.4053,0,0,0-.22,1.2422v.1392h5.7V35.728a3.1387,3.1387,0,0,0-.75-2.1963A2.56,2.56,0,0,0,96.87,32.7065Z"/><path class="cls-2" d="M103.9709,41.9272V31.6064h1.6v1.9h.1006a3.116,3.116,0,0,1,1-1.32,3.0735,3.0735,0,0,1,1.98-.58h.6192v1.6h-.94a3.611,3.611,0,0,0-2.03.49,1.4443,1.4443,0,0,0-.7305,1.23v7.0005Z"/><path class="cls-2" d="M123.5314,41.9272a1.5723,1.5723,0,0,1-1.29-.48,2.3788,2.3788,0,0,1-.4893-1.2h-.1006a2.6657,2.6657,0,0,1-1.12,1.44,3.475,3.475,0,0,1-1.86.48,3.6188,3.6188,0,0,1-2.55-.84,2.9514,2.9514,0,0,1-.91-2.28,2.6023,2.6023,0,0,1,1.07-2.24,5.69,5.69,0,0,1,3.33-.78h2.04v-1.02a2.2332,2.2332,0,0,0-.6-1.68,2.5615,2.5615,0,0,0-1.8408-.58,2.7684,2.7684,0,0,0-1.5693.42,3.4741,3.4741,0,0,0-1.0508,1.12l-.96-.9a3.6445,3.6445,0,0,1,1.3409-1.43,4.2177,4.2177,0,0,1,2.3193-.59,4.27,4.27,0,0,1,2.9209.918,3.2326,3.2326,0,0,1,1.04,2.5546v5.668h1.18v1.42Zm-4.6-1.12a4.0553,4.0553,0,0,0,1.1-.14,2.6943,2.6943,0,0,0,.86-.4,1.9651,1.9651,0,0,0,.56-.6,1.43,1.43,0,0,0,.2-.74v-1.7h-2.12a3.8685,3.8685,0,0,0-2.01.4,1.2922,1.2922,0,0,0-.63,1.16v.42a1.3979,1.3979,0,0,0,.55,1.18A2.3976,2.3976,0,0,0,118.9318,40.8071Z"/><path class="cls-2" d="M135.2717,42.1675a4.7491,4.7491,0,0,1-1.94-.38,3.939,3.939,0,0,1-1.45-1.08,4.8128,4.8128,0,0,1-.9-1.7,8.2607,8.2607,0,0,1,0-4.48,4.8214,4.8214,0,0,1,.9-1.7,3.9553,3.9553,0,0,1,1.45-1.08,4.7556,4.7556,0,0,1,1.94-.38,4.1375,4.1375,0,0,1,2.4707.67,4.0864,4.0864,0,0,1,1.39,1.75l-1.34.68a2.4288,2.4288,0,0,0-.92-1.24,2.7623,2.7623,0,0,0-1.6-.44,3.207,3.207,0,0,0-1.26.23,2.4647,2.4647,0,0,0-.9.64,2.7072,2.7072,0,0,0-.54.98,4.1314,4.1314,0,0,0-.18,1.25v1.76a3.3476,3.3476,0,0,0,.73,2.23,2.6465,2.6465,0,0,0,2.15.87,2.904,2.904,0,0,0,2.8007-1.8l1.16.78a4.1009,4.1009,0,0,1-1.49,1.78A4.36,4.36,0,0,1,135.2717,42.1675Z"/><path class="cls-2" d="M145.2521,42.1675a4.6313,4.6313,0,0,1-1.91-.38,4.1233,4.1233,0,0,1-1.46-1.09,5.0026,5.0026,0,0,1-.9394-1.7,7.6644,7.6644,0,0,1,0-4.45,4.9889,4.9889,0,0,1,.9394-1.71,4.1306,4.1306,0,0,1,1.46-1.09,4.6377,4.6377,0,0,1,1.91-.38,4.3832,4.3832,0,0,1,1.86.3789,4.1212,4.1212,0,0,1,1.4,1.0464,4.6619,4.6619,0,0,1,.89,1.5845,6.24,6.24,0,0,1,.3106,2.0131v.7574h-7.4209v.48a3.5394,3.5394,0,0,0,.21,1.23,2.9064,2.9064,0,0,0,.6006.99,2.7368,2.7368,0,0,0,.96.66,3.3,3.3,0,0,0,1.29.24,3.1374,3.1374,0,0,0,1.71-.46,3.0189,3.0189,0,0,0,1.13-1.32l1.14.8252a3.9825,3.9825,0,0,1-1.56,1.7207A4.7057,4.7057,0,0,1,145.2521,42.1675Zm0-9.461a3.0461,3.0461,0,0,0-1.2.229,2.6972,2.6972,0,0,0-.93.646,3.0279,3.0279,0,0,0-.61.9839,3.4053,3.4053,0,0,0-.22,1.2422v.1392h5.7V35.728a3.1387,3.1387,0,0,0-.75-2.1963A2.56,2.56,0,0,0,145.2521,32.7065Z"/><path class="cls-2" d="M152.3527,41.9272V31.6064h1.6v1.9h.1006a3.116,3.116,0,0,1,1-1.32,3.0738,3.0738,0,0,1,1.9805-.58h.6191v1.6h-.9394a3.6113,3.6113,0,0,0-2.03.49,1.4443,1.4443,0,0,0-.73,1.23v7.0005Z"/><path class="cls-2" d="M162.0539,41.9272a1.6391,1.6391,0,0,1-1.27-.4687,1.7435,1.7435,0,0,1-.43-1.2276V33.0268h-1.7v-1.42h.96a.94.94,0,0,0,.71-.21,1.0867,1.0867,0,0,0,.1905-.73v-1.92h1.4394v2.86h2.2607v1.42h-2.2607v7.48h2.1006v1.42Z"/><path class="cls-2" d="M167.593,29.1865a.9766.9766,0,0,1-.75-.25.9212.9212,0,0,1-.23-.65v-.26a.9219.9219,0,0,1,.23-.65,1.25,1.25,0,0,1,1.5,0,.9229.9229,0,0,1,.23.65v.26a.9222.9222,0,0,1-.23.65A.9769.9769,0,0,1,167.593,29.1865Zm-.8,2.42h1.6V41.9272h-1.6Z"/><path class="cls-2" d="M172.3537,33.0268h-1.68v-1.42h1.68v-2.08a2.5946,2.5946,0,0,1,.56-1.74,2.1037,2.1037,0,0,1,1.7-.66h1.56v1.42h-2.22v3.06h5.78V41.9272H178.134v-8.9h-4.18v8.9h-1.6006Zm6.581-3.84a.9739.9739,0,0,1-.75-.25.9222.9222,0,0,1-.23-.65v-.26a.9229.9229,0,0,1,.23-.65,1.25,1.25,0,0,1,1.5,0,.9219.9219,0,0,1,.23.65v.26a.9212.9212,0,0,1-.23.65A.9766.9766,0,0,1,178.9347,29.1865Z"/><path class="cls-2" d="M186.9738,42.1675a4.7487,4.7487,0,0,1-1.9394-.38,3.9374,3.9374,0,0,1-1.45-1.08,4.81,4.81,0,0,1-.9-1.7,8.2582,8.2582,0,0,1,0-4.48,4.8182,4.8182,0,0,1,.9-1.7,3.9536,3.9536,0,0,1,1.45-1.08,4.7552,4.7552,0,0,1,1.9394-.38,4.1371,4.1371,0,0,1,2.4707.67,4.0874,4.0874,0,0,1,1.39,1.75l-1.34.68a2.428,2.428,0,0,0-.92-1.24,2.7628,2.7628,0,0,0-1.6006-.44,3.2073,3.2073,0,0,0-1.26.23,2.4651,2.4651,0,0,0-.9.64,2.7074,2.7074,0,0,0-.54.98,4.1314,4.1314,0,0,0-.18,1.25v1.76a3.3477,3.3477,0,0,0,.7305,2.23,2.6462,2.6462,0,0,0,2.1494.87,2.904,2.904,0,0,0,2.8008-1.8l1.16.78a4.1,4.1,0,0,1-1.49,1.78A4.36,4.36,0,0,1,186.9738,42.1675Z"/><path class="cls-2" d="M200.6945,41.9272a1.5723,1.5723,0,0,1-1.29-.48,2.3788,2.3788,0,0,1-.4893-1.2h-.1006a2.6657,2.6657,0,0,1-1.12,1.44,3.475,3.475,0,0,1-1.86.48,3.6188,3.6188,0,0,1-2.55-.84,2.9514,2.9514,0,0,1-.91-2.28,2.6021,2.6021,0,0,1,1.07-2.24,5.69,5.69,0,0,1,3.33-.78h2.04v-1.02a2.2336,2.2336,0,0,0-.6-1.68,2.5615,2.5615,0,0,0-1.8408-.58,2.7682,2.7682,0,0,0-1.5693.42,3.473,3.473,0,0,0-1.0508,1.12l-.96-.9a3.645,3.645,0,0,1,1.3408-1.43,4.2181,4.2181,0,0,1,2.3194-.59,4.27,4.27,0,0,1,2.9209.918,3.2326,3.2326,0,0,1,1.04,2.5546v5.668h1.18v1.42Zm-4.6-1.12a4.0553,4.0553,0,0,0,1.1-.14,2.6943,2.6943,0,0,0,.86-.4,1.9635,1.9635,0,0,0,.5595-.6,1.4287,1.4287,0,0,0,.2-.74v-1.7h-2.12a3.8692,3.8692,0,0,0-2.01.4,1.2923,1.2923,0,0,0-.63,1.16v.42a1.3979,1.3979,0,0,0,.55,1.18A2.3976,2.3976,0,0,0,196.0949,40.8071Z"/><path class="cls-2" d="M206.1555,41.9272a1.64,1.64,0,0,1-1.2706-.4687,1.7434,1.7434,0,0,1-.43-1.2276V33.0268h-1.7v-1.42h.96a.94.94,0,0,0,.71-.21,1.0873,1.0873,0,0,0,.19-.73v-1.92h1.44v2.86h2.2607v1.42h-2.2607v7.48h2.1006v1.42Z"/><path class="cls-2" d="M214.6955,42.1675a4.6318,4.6318,0,0,1-1.91-.38,4.1229,4.1229,0,0,1-1.46-1.09,5.0011,5.0011,0,0,1-.94-1.7,7.6644,7.6644,0,0,1,0-4.45,4.9874,4.9874,0,0,1,.94-1.71,4.13,4.13,0,0,1,1.46-1.09,4.6381,4.6381,0,0,1,1.91-.38,4.3824,4.3824,0,0,1,1.86.3789,4.1212,4.1212,0,0,1,1.4,1.0464,4.66,4.66,0,0,1,.89,1.5845,6.2425,6.2425,0,0,1,.31,2.0131v.7574h-7.4209v.48a3.5371,3.5371,0,0,0,.21,1.23,2.9033,2.9033,0,0,0,.6006.99,2.7364,2.7364,0,0,0,.96.66,3.3,3.3,0,0,0,1.29.24,3.137,3.137,0,0,0,1.71-.46,3.0183,3.0183,0,0,0,1.13-1.32l1.14.8252a3.9825,3.9825,0,0,1-1.56,1.7207A4.7059,4.7059,0,0,1,214.6955,42.1675Zm0-9.461a3.0454,3.0454,0,0,0-1.2.229,2.6963,2.6963,0,0,0-.93.646,3.0245,3.0245,0,0,0-.61.9839,3.4053,3.4053,0,0,0-.22,1.2422v.1392h5.7V35.728a3.1387,3.1387,0,0,0-.75-2.1963A2.56,2.56,0,0,0,214.6955,32.7065Z"/><rect id="_Transparent_Rectangle_" data-name=" Transparent Rectangle " class="cls-3" x="5.4352" y="5.4073" width="54.931" height="54.931"/><rect class="cls-4" x="17.5387" y="33.0632" width="13.5106" height="4.0843"/><rect class="cls-5" x="17.5387" y="24.8945" width="20.3409" height="4.0843"/><rect class="cls-6" x="17.5387" y="16.7258" width="17.4766" height="4.0843"/><path class="cls-6" d="M27.7274,53.4849H13.877V12.6415H47.1181V33.0632h2.77V12.6415c0-2.2557-1.24-4.0844-2.77-4.0844H13.877c-1.53,0-2.77,1.8287-2.77,4.0844V53.4849c0,2.2557,1.24,4.0844,2.77,4.0844h13.85Z"/><polygon class="cls-2" points="35.651 50.439 30.508 44.818 27.709 47.878 35.651 56.559 51.533 39.198 48.734 36.138 35.651 50.439"/><rect id="_Transparent_Rectangle_2" data-name=" Transparent Rectangle " class="cls-3" x="6.2141" y="0.2273" width="51.4544" height="65.3495"/></g></svg>