<?xml version="1.0" encoding="utf-8"?><svg xmlns="http://www.w3.org/2000/svg" xmlns:xlink="http://www.w3.org/1999/xlink" width="156.5663" height="33.387" viewBox="0 0 156.5663 33.387"><defs><style>.cls-1{fill:none;}.cls-2{fill:#4589ff;}.cls-3{fill:#78a9ff;}.cls-4{fill:#a6c8ff;}.cls-5{clip-path:url(#clip-path);}.cls-6{fill:#002d9c;}</style><clipPath id="clip-path" transform="translate(-8.879 -8.131)"><rect class="cls-1" y="0.0004" width="183.919" height="47.82"/></clipPath></defs><title>getting-started-order</title><g id="Graphics"><rect class="cls-2" x="4.382" y="16.6934" width="9.203" height="2.782"/><rect class="cls-3" x="4.382" y="11.1294" width="13.856" height="2.782"/><rect class="cls-4" x="4.382" y="5.5644" width="11.905" height="2.782"/><g class="cls-5"><path class="cls-4" d="M20.201,38.736H10.766V10.913H33.41V24.825h1.887V10.913c0-1.536-.845-2.782-1.887-2.782H10.766c-1.043,0-1.887,1.246-1.887,2.782V38.736c0,1.537.844,2.782,1.887,2.782h9.435Z" transform="translate(-8.879 -8.131)"/><polygon class="cls-6" points="16.719 28.53 13.216 24.701 11.309 26.785 16.719 32.699 27.538 20.872 25.631 18.788 16.719 28.53"/></g></g><g id="Text"><path class="cls-6" d="M47.4272,29.6436a4.7041,4.7041,0,0,1-1.88-.3613,3.824,3.824,0,0,1-1.4268-1.0586,4.8892,4.8892,0,0,1-.9131-1.7344,8.037,8.037,0,0,1-.3222-2.3857,7.9661,7.9661,0,0,1,.3222-2.3784,4.9858,4.9858,0,0,1,.9131-1.7339,3.7985,3.7985,0,0,1,1.4268-1.0669,5.0638,5.0638,0,0,1,3.7519,0,3.7929,3.7929,0,0,1,1.4351,1.0669,4.9941,4.9941,0,0,1,.9131,1.7339,7.9661,7.9661,0,0,1,.3222,2.3784,8.037,8.037,0,0,1-.3222,2.3857,4.8972,4.8972,0,0,1-.9131,1.7344,3.8183,3.8183,0,0,1-1.4351,1.0586A4.7183,4.7183,0,0,1,47.4272,29.6436Zm0-1.1357a3.2446,3.2446,0,0,0,1.274-.2461,2.8471,2.8471,0,0,0,1.0049-.709,3.2316,3.2316,0,0,0,.6523-1.1084,4.3039,4.3039,0,0,0,.23-1.4482V23.2105a4.3009,4.3009,0,0,0-.23-1.4477,3.2316,3.2316,0,0,0-.6523-1.1084,2.8458,2.8458,0,0,0-1.0049-.7085,3.4127,3.4127,0,0,0-2.5474,0,2.8424,2.8424,0,0,0-1.0054.7085,3.2227,3.2227,0,0,0-.6518,1.1084,4.2883,4.2883,0,0,0-.23,1.4477v1.7857a4.2913,4.2913,0,0,0,.23,1.4482,3.2227,3.2227,0,0,0,.6518,1.1084,2.8436,2.8436,0,0,0,1.0054.709A3.24,3.24,0,0,0,47.4272,28.5079Z" transform="translate(-8.879 -8.131)"/><path class="cls-6" d="M54.1636,29.4591v-7.918h1.2275v1.4575h.0772a2.3911,2.3911,0,0,1,.7671-1.0127,2.3577,2.3577,0,0,1,1.519-.4448H58.23v1.2275h-.7212a2.77,2.77,0,0,0-1.5571.376,1.108,1.108,0,0,0-.5606.9439v5.3706Z" transform="translate(-8.879 -8.131)"/><path class="cls-6" d="M64.7822,28.1847h-.0615a2.4166,2.4166,0,0,1-2.3169,1.4589,3.0083,3.0083,0,0,1-1.335-.2919,2.8984,2.8984,0,0,1-1.0205-.8291,3.7821,3.7821,0,0,1-.6445-1.3038,6.7467,6.7467,0,0,1,0-3.4375,3.7939,3.7939,0,0,1,.6445-1.3042,2.9024,2.9024,0,0,1,1.0205-.8286,3.0082,3.0082,0,0,1,1.335-.2915,2.6966,2.6966,0,0,1,1.4194.357,2.2251,2.2251,0,0,1,.8975,1.1015h.0615V18.1036H66.01V29.4591H64.7822Zm-2.041.3691a2.84,2.84,0,0,0,.7905-.1084,1.9755,1.9755,0,0,0,.6524-.3154,1.5445,1.5445,0,0,0,.437-.5088,1.4341,1.4341,0,0,0,.1611-.6865V23.9732a1.2208,1.2208,0,0,0-.1611-.6093,1.5222,1.5222,0,0,0-.437-.4859,2.223,2.223,0,0,0-.6524-.3159,2.6747,2.6747,0,0,0-.7905-.1157,2.1124,2.1124,0,0,0-1.6416.6553,2.4516,2.4516,0,0,0-.5986,1.72v1.3574a2.45,2.45,0,0,0,.5986,1.72A2.1124,2.1124,0,0,0,62.7412,28.5538Z" transform="translate(-8.879 -8.131)"/><path class="cls-6" d="M71.5952,29.6436a3.5516,3.5516,0,0,1-1.4653-.2919,3.155,3.155,0,0,1-1.12-.836,3.8213,3.8213,0,0,1-.7212-1.3047,5.8779,5.8779,0,0,1,0-3.4145,3.8144,3.8144,0,0,1,.7212-1.312,3.161,3.161,0,0,1,1.12-.836,3.5516,3.5516,0,0,1,1.4653-.2915,3.365,3.365,0,0,1,1.4273.2906,3.16,3.16,0,0,1,1.0742.8027,3.58,3.58,0,0,1,.6826,1.2158,4.7932,4.7932,0,0,1,.2378,1.5449v.58H69.3242V26.16a2.7093,2.7093,0,0,0,.1612.9434,2.2346,2.2346,0,0,0,.46.76,2.0893,2.0893,0,0,0,.7363.5058,2.5233,2.5233,0,0,0,.99.1846,2.4,2.4,0,0,0,1.312-.3535,2.3069,2.3069,0,0,0,.8672-1.0127l.8745.6338a3.059,3.059,0,0,1-1.1968,1.32A3.6154,3.6154,0,0,1,71.5952,29.6436Zm0-7.2587a2.3342,2.3342,0,0,0-.92.1757,2.0683,2.0683,0,0,0-.7139.4956,2.3254,2.3254,0,0,0-.4677.7544,2.61,2.61,0,0,0-.169.9537v.1069h4.3736v-.168a2.4072,2.4072,0,0,0-.5757-1.685A1.9631,1.9631,0,0,0,71.5952,22.3849Z" transform="translate(-8.879 -8.131)"/><path class="cls-6" d="M77.043,29.4591v-7.918h1.2275v1.4575h.0772a2.3916,2.3916,0,0,1,.767-1.0127,2.3582,2.3582,0,0,1,1.5191-.4448h.4756v1.2275h-.7212a2.77,2.77,0,0,0-1.5571.376,1.108,1.108,0,0,0-.5606.9439v5.3706Z" transform="translate(-8.879 -8.131)"/><path class="cls-6" d="M92.0508,29.4591a1.2061,1.2061,0,0,1-.99-.3682,1.8316,1.8316,0,0,1-.3759-.9209h-.0767a2.0451,2.0451,0,0,1-.8594,1.1045,2.6636,2.6636,0,0,1-1.4267.3691,2.776,2.776,0,0,1-1.9566-.6445,2.2633,2.2633,0,0,1-.6982-1.75,1.9986,1.9986,0,0,1,.8208-1.7187,4.37,4.37,0,0,1,2.5552-.5987h1.5649V24.15a1.7112,1.7112,0,0,0-.46-1.2891,1.9651,1.9651,0,0,0-1.4117-.4448,2.1247,2.1247,0,0,0-1.2046.3223,2.6557,2.6557,0,0,0-.8056.8594l-.7363-.6905A2.7938,2.7938,0,0,1,87.0171,21.81a3.2388,3.2388,0,0,1,1.78-.4527,3.2724,3.2724,0,0,1,2.24.7041,2.4782,2.4782,0,0,1,.7988,1.96v4.3481H92.74v1.09ZM88.521,28.6a3.1371,3.1371,0,0,0,.8442-.1074,2.0663,2.0663,0,0,0,.66-.3067,1.5138,1.5138,0,0,0,.43-.4609,1.1,1.1,0,0,0,.1533-.5674V25.8526H88.9814A2.9619,2.9619,0,0,0,87.44,26.16a.99.99,0,0,0-.4834.89v.3223a1.0721,1.0721,0,0,0,.4218.9052A1.838,1.838,0,0,0,88.521,28.6Z" transform="translate(-8.879 -8.131)"/><path class="cls-6" d="M101.0576,29.6436a3.6515,3.6515,0,0,1-1.4892-.2919,3.04,3.04,0,0,1-1.1123-.8291,3.6768,3.6768,0,0,1-.6905-1.3038,6.3431,6.3431,0,0,1,0-3.4375,3.6882,3.6882,0,0,1,.6905-1.3042,3.0443,3.0443,0,0,1,1.1123-.8286,3.6515,3.6515,0,0,1,1.4892-.2915,3.1759,3.1759,0,0,1,1.8945.5137,3.1411,3.1411,0,0,1,1.0665,1.3428l-1.0274.5219a1.8676,1.8676,0,0,0-.706-.9516,2.124,2.124,0,0,0-1.2276-.3374,2.4615,2.4615,0,0,0-.9668.1763,1.884,1.884,0,0,0-.69.4912,2.0721,2.0721,0,0,0-.415.7519,3.1792,3.1792,0,0,0-.1377.9585v1.3506a2.57,2.57,0,0,0,.5595,1.7109,2.0331,2.0331,0,0,0,1.65.668,2.2287,2.2287,0,0,0,2.1485-1.3809l.89.5987a3.1475,3.1475,0,0,1-1.1436,1.3652A3.3385,3.3385,0,0,1,101.0576,29.6436Z" transform="translate(-8.879 -8.131)"/><path class="cls-6" d="M108.7305,29.6436a3.56,3.56,0,0,1-1.4659-.2919,3.1648,3.1648,0,0,1-1.12-.836,3.8473,3.8473,0,0,1-.7207-1.3047,5.889,5.889,0,0,1,0-3.4145,3.84,3.84,0,0,1,.7207-1.312,3.1707,3.1707,0,0,1,1.12-.836,3.5594,3.5594,0,0,1,1.4659-.2915,3.359,3.359,0,0,1,1.4267.2906,3.1539,3.1539,0,0,1,1.0742.8027,3.58,3.58,0,0,1,.6836,1.2158,4.8071,4.8071,0,0,1,.2373,1.5449v.58H106.459V26.16a2.7115,2.7115,0,0,0,.1611.9434,2.2422,2.2422,0,0,0,.461.76,2.0938,2.0938,0,0,0,.7363.5058,2.5274,2.5274,0,0,0,.99.1846,2.3985,2.3985,0,0,0,1.3115-.3535,2.3126,2.3126,0,0,0,.8672-1.0127l.875.6338a3.0594,3.0594,0,0,1-1.1972,1.32A3.6132,3.6132,0,0,1,108.7305,29.6436Zm0-7.2587a2.3363,2.3363,0,0,0-.9209.1757,2.06,2.06,0,0,0-.7129.4956,2.3111,2.3111,0,0,0-.4688.7544,2.62,2.62,0,0,0-.1689.9537v.1069h4.374v-.168a2.4116,2.4116,0,0,0-.5752-1.685A1.9646,1.9646,0,0,0,108.7305,22.3849Z" transform="translate(-8.879 -8.131)"/><path class="cls-6" d="M114.1777,29.4591v-7.918h1.2276v1.4575h.0761a2.3981,2.3981,0,0,1,.7676-1.0127,2.36,2.36,0,0,1,1.52-.4448h.4755v1.2275h-.7216a2.7748,2.7748,0,0,0-1.5577.376,1.1092,1.1092,0,0,0-.5595.9439v5.3706Z" transform="translate(-8.879 -8.131)"/><path class="cls-6" d="M121.62,29.4591a1.2585,1.2585,0,0,1-.9746-.3594,1.341,1.341,0,0,1-.33-.9424V22.6305h-1.3037V21.5411h.7363a.7234.7234,0,0,0,.545-.1611.84.84,0,0,0,.1455-.56V19.3468h1.1045v2.1943h1.7343v1.0894H121.543v5.7387h1.6113v1.09Z" transform="translate(-8.879 -8.131)"/><path class="cls-6" d="M125.87,19.6842a.75.75,0,0,1-.5752-.1919.7056.7056,0,0,1-.1767-.4986v-.2a.7052.7052,0,0,1,.1767-.4985.958.958,0,0,1,1.15,0,.7048.7048,0,0,1,.1768.4985v.2a.7052.7052,0,0,1-.1768.4986A.75.75,0,0,1,125.87,19.6842Zm-.6133,1.8569h1.2276v7.918h-1.2276Z" transform="translate(-8.879 -8.131)"/><path class="cls-6" d="M129.5234,22.6305h-1.289V21.5411h1.289V19.9449a1.99,1.99,0,0,1,.43-1.3349,1.6147,1.6147,0,0,1,1.3037-.5064h1.1973V19.193H130.751v2.3481h4.4345v7.918H133.958V22.6305h-3.207v6.8286h-1.2276Zm5.0479-2.9463a.75.75,0,0,1-.5752-.1919.71.71,0,0,1-.1768-.4986v-.2a.7093.7093,0,0,1,.1768-.4985.9595.9595,0,0,1,1.1514,0,.7091.7091,0,0,1,.1757.4985v.2a.71.71,0,0,1-.1757.4986A.752.752,0,0,1,134.5713,19.6842Z" transform="translate(-8.879 -8.131)"/><path class="cls-6" d="M140.74,29.6436a3.6515,3.6515,0,0,1-1.4892-.2919,3.04,3.04,0,0,1-1.1123-.8291,3.6768,3.6768,0,0,1-.69-1.3038,6.3431,6.3431,0,0,1,0-3.4375,3.6882,3.6882,0,0,1,.69-1.3042,3.0443,3.0443,0,0,1,1.1123-.8286,3.6515,3.6515,0,0,1,1.4892-.2915,3.1764,3.1764,0,0,1,1.8946.5137,3.1409,3.1409,0,0,1,1.0664,1.3428l-1.0274.5219a1.8676,1.8676,0,0,0-.706-.9516,2.124,2.124,0,0,0-1.2276-.3374,2.4615,2.4615,0,0,0-.9668.1763,1.884,1.884,0,0,0-.69.4912,2.0721,2.0721,0,0,0-.415.7519,3.1792,3.1792,0,0,0-.1377.9585v1.3506a2.57,2.57,0,0,0,.5595,1.7109,2.0332,2.0332,0,0,0,1.65.668,2.2287,2.2287,0,0,0,2.1485-1.3809l.89.5987a3.1473,3.1473,0,0,1-1.1435,1.3652A3.339,3.339,0,0,1,140.74,29.6436Z" transform="translate(-8.879 -8.131)"/><path class="cls-6" d="M151.2666,29.4591a1.2052,1.2052,0,0,1-.9893-.3682,1.8184,1.8184,0,0,1-.3759-.9209h-.0772a2.0428,2.0428,0,0,1-.8594,1.1045,2.6612,2.6612,0,0,1-1.4267.3691,2.7785,2.7785,0,0,1-1.957-.6445,2.2665,2.2665,0,0,1-.6983-1.75,2,2,0,0,1,.8213-1.7187,4.3676,4.3676,0,0,1,2.5547-.5987h1.5654V24.15a1.7129,1.7129,0,0,0-.46-1.2891,1.9688,1.9688,0,0,0-1.4122-.4448,2.1242,2.1242,0,0,0-1.2041.3223,2.6557,2.6557,0,0,0-.8056.8594l-.7373-.6905a2.7952,2.7952,0,0,1,1.0283-1.0971,3.24,3.24,0,0,1,1.78-.4527,3.2764,3.2764,0,0,1,2.24.7041,2.4776,2.4776,0,0,1,.7979,1.96v4.3481h.9052v1.09ZM147.7373,28.6a3.1372,3.1372,0,0,0,.8438-.1074,2.07,2.07,0,0,0,.66-.3067,1.5076,1.5076,0,0,0,.43-.4609,1.095,1.095,0,0,0,.1533-.5674V25.8526h-1.626a2.9661,2.9661,0,0,0-1.5429.3076.99.99,0,0,0-.4834.89v.3223a1.0732,1.0732,0,0,0,.4219.9052A1.84,1.84,0,0,0,147.7373,28.6Z" transform="translate(-8.879 -8.131)"/><path class="cls-6" d="M155.4561,29.4591a1.2589,1.2589,0,0,1-.9747-.3594,1.341,1.341,0,0,1-.33-.9424V22.6305h-1.3037V21.5411h.7363a.7233.7233,0,0,0,.5449-.1611.8391.8391,0,0,0,.1455-.56V19.3468h1.1045v2.1943h1.7344v1.0894h-1.7344v5.7387H156.99v1.09Z" transform="translate(-8.879 -8.131)"/><path class="cls-6" d="M162.0234,29.6436a3.559,3.559,0,0,1-1.4658-.2919,3.1639,3.1639,0,0,1-1.12-.836,3.8456,3.8456,0,0,1-.7207-1.3047,5.889,5.889,0,0,1,0-3.4145,3.8385,3.8385,0,0,1,.7207-1.312,3.17,3.17,0,0,1,1.12-.836,3.5589,3.5589,0,0,1,1.4658-.2915,3.3594,3.3594,0,0,1,1.4268.2906,3.1549,3.1549,0,0,1,1.0742.8027,3.5816,3.5816,0,0,1,.6836,1.2158,4.8071,4.8071,0,0,1,.2373,1.5449v.58H159.752V26.16a2.7115,2.7115,0,0,0,.1611.9434,2.2436,2.2436,0,0,0,.4609.76,2.0933,2.0933,0,0,0,.7364.5058,2.5267,2.5267,0,0,0,.99.1846,2.3985,2.3985,0,0,0,1.3115-.3535,2.3126,2.3126,0,0,0,.8672-1.0127l.875.6338a3.06,3.06,0,0,1-1.1973,1.32A3.613,3.613,0,0,1,162.0234,29.6436Zm0-7.2587a2.3367,2.3367,0,0,0-.9209.1757,2.0615,2.0615,0,0,0-.7129.4956,2.3126,2.3126,0,0,0-.4687.7544,2.62,2.62,0,0,0-.1689.9537v.1069h4.374v-.168a2.4116,2.4116,0,0,0-.5752-1.685A1.9648,1.9648,0,0,0,162.0234,22.3849Z" transform="translate(-8.879 -8.131)"/></g></svg>