<svg xmlns="http://www.w3.org/2000/svg" width="138.5384" height="37.1475" viewBox="0 0 138.5384 37.1475"><defs><style>.cls-1{fill:#fff;stroke:#000;stroke-linecap:round;stroke-linejoin:round;stroke-width:0.3556px;}.cls-2{fill:#002d9c;}.cls-3{fill:none;}.cls-4{fill:#4589ff;}.cls-5{fill:#78a9ff;}.cls-6{fill:#a6c8ff;}</style></defs><g id="Translatable_text" data-name="Translatable text"><polygon class="cls-1" points="134.263 3.154 3.958 3.154 3.94 34.188 134.263 34.188 134.263 3.154"/><path class="cls-2" d="M37.8114,23.9219a3.4653,3.4653,0,0,1-1.3838-.2657,2.8089,2.8089,0,0,1-1.0508-.78A3.6133,3.6133,0,0,1,34.704,21.6a6.6039,6.6039,0,0,1,0-3.5088,3.6807,3.6807,0,0,1,.6728-1.2768,2.7871,2.7871,0,0,1,1.0508-.7852,3.7249,3.7249,0,0,1,2.7627,0,2.7913,2.7913,0,0,1,1.0567.7852,3.6793,3.6793,0,0,1,.6718,1.2768,6.6039,6.6039,0,0,1,0,3.5088,3.6119,3.6119,0,0,1-.6718,1.2769,2.8133,2.8133,0,0,1-1.0567.78A3.4778,3.4778,0,0,1,37.8114,23.9219Zm0-.8365a2.3888,2.3888,0,0,0,.9385-.1811,2.1021,2.1021,0,0,0,.74-.522,2.3611,2.3611,0,0,0,.48-.8164A3.1534,3.1534,0,0,0,40.14,20.5V19.1846a3.1578,3.1578,0,0,0-.17-1.066,2.3676,2.3676,0,0,0-.48-.8164,2.1069,2.1069,0,0,0-.74-.5214,2.512,2.512,0,0,0-1.876,0,2.0979,2.0979,0,0,0-.74.5214,2.387,2.387,0,0,0-.48.8164,3.1581,3.1581,0,0,0-.1689,1.066V20.5a3.1538,3.1538,0,0,0,.1689,1.0659,2.38,2.38,0,0,0,.48.8164,2.0931,2.0931,0,0,0,.74.522A2.381,2.381,0,0,0,37.8114,23.0854Z"/><path class="cls-2" d="M42.7724,23.7861V17.9556h.9033v1.0732h.0566a1.7583,1.7583,0,0,1,.5654-.7456,1.7311,1.7311,0,0,1,1.1182-.3276h.3506v.9038h-.5313a2.0387,2.0387,0,0,0-1.1464.2768.8166.8166,0,0,0-.4131.6948v3.9551Z"/><path class="cls-2" d="M50.58,22.8476h-.0449a1.78,1.78,0,0,1-1.7061,1.0743,2.2149,2.2149,0,0,1-.9834-.2149,2.13,2.13,0,0,1-.752-.61,2.8,2.8,0,0,1-.4746-.96,4.9919,4.9919,0,0,1,0-2.5312,2.8044,2.8044,0,0,1,.4746-.96,2.1329,2.1329,0,0,1,.752-.61,2.2149,2.2149,0,0,1,.9834-.2149,1.9883,1.9883,0,0,1,1.0449.2627,1.6442,1.6442,0,0,1,.6612.811H50.58V15.4243h.9043v8.3618H50.58Zm-1.503.272a2.1082,2.1082,0,0,0,.5821-.08,1.466,1.466,0,0,0,.48-.2329,1.1336,1.1336,0,0,0,.3223-.3745,1.0554,1.0554,0,0,0,.1182-.5059v-2.18a.898.898,0,0,0-.1182-.4488A1.12,1.12,0,0,0,50.14,18.94a1.6286,1.6286,0,0,0-.48-.2324,1.96,1.96,0,0,0-.5821-.0854,1.5546,1.5546,0,0,0-1.2089.4829,1.8024,1.8024,0,0,0-.4405,1.2661v1a1.8024,1.8024,0,0,0,.4405,1.2661A1.5546,1.5546,0,0,0,49.077,23.12Z"/><path class="cls-2" d="M55.5976,23.9219a2.6171,2.6171,0,0,1-1.0792-.2149,2.3174,2.3174,0,0,1-.8242-.6157,2.8151,2.8151,0,0,1-.5312-.96,4.3313,4.3313,0,0,1,0-2.5146,2.8042,2.8042,0,0,1,.5312-.9658,2.3174,2.3174,0,0,1,.8242-.6157,2.6171,2.6171,0,0,1,1.0792-.2149,2.4781,2.4781,0,0,1,1.0507.2139,2.3121,2.3121,0,0,1,.791.5913,2.62,2.62,0,0,1,.503.895,3.522,3.522,0,0,1,.1758,1.1372v.4282H53.9257v.271a1.995,1.995,0,0,0,.1181.6953,1.658,1.658,0,0,0,.3389.5591,1.5554,1.5554,0,0,0,.543.3731,1.8653,1.8653,0,0,0,.7285.1357,1.777,1.777,0,0,0,.9668-.26,1.7039,1.7039,0,0,0,.6377-.7456l.6445.4663a2.2521,2.2521,0,0,1-.8818.9721A2.6606,2.6606,0,0,1,55.5976,23.9219Zm0-5.3453a1.7259,1.7259,0,0,0-.6778.1294,1.533,1.533,0,0,0-.5254.3648,1.7235,1.7235,0,0,0-.3447.5561,1.9206,1.9206,0,0,0-.124.7022v.0781h3.2207v-.1235a1.7741,1.7741,0,0,0-.4238-1.2407A1.4485,1.4485,0,0,0,55.5976,18.5766Z"/><path class="cls-2" d="M59.6093,23.7861V17.9556h.9033v1.0732h.0566a1.7578,1.7578,0,0,1,.5655-.7456,1.7306,1.7306,0,0,1,1.1181-.3276h.3506v.9038h-.5312a2.0388,2.0388,0,0,0-1.1465.2768.8166.8166,0,0,0-.4131.6948v3.9551Z"/><path class="cls-2" d="M70.66,23.7861a.89.89,0,0,1-.73-.271,1.345,1.345,0,0,1-.2764-.6782h-.0566a1.5061,1.5061,0,0,1-.6329.8135,1.9618,1.9618,0,0,1-1.0507.2715,2.0435,2.0435,0,0,1-1.44-.4746,1.6686,1.6686,0,0,1-.5146-1.2886,1.4693,1.4693,0,0,1,.6045-1.2652,3.2157,3.2157,0,0,1,1.8818-.4409h1.1524v-.5761a1.2611,1.2611,0,0,0-.3389-.9493,1.4463,1.4463,0,0,0-1.04-.3276,1.5651,1.5651,0,0,0-.8867.2373,1.9533,1.9533,0,0,0-.5927.6328l-.543-.5088a2.0564,2.0564,0,0,1,.7568-.8076,2.8213,2.8213,0,0,1,2.961.1851,1.8253,1.8253,0,0,1,.5878,1.4433v3.2022h.6661v.8022Zm-2.6-.6328a2.3039,2.3039,0,0,0,.6221-.0791,1.5148,1.5148,0,0,0,.4854-.2261,1.1149,1.1149,0,0,0,.3164-.3388.8117.8117,0,0,0,.1133-.418v-.96H68.4a2.1881,2.1881,0,0,0-1.1358.2256.7307.7307,0,0,0-.3564.6558V22.25a.7905.7905,0,0,0,.31.6665A1.3552,1.3552,0,0,0,68.06,23.1533Z"/><path class="cls-2" d="M77.2929,23.9219a2.6828,2.6828,0,0,1-1.0957-.2149,2.2262,2.2262,0,0,1-.8194-.61,2.7183,2.7183,0,0,1-.5088-.96,4.669,4.669,0,0,1,0-2.5312,2.7226,2.7226,0,0,1,.5088-.96,2.2294,2.2294,0,0,1,.8194-.61,2.6828,2.6828,0,0,1,1.0957-.2149,2.3357,2.3357,0,0,1,1.3955.3784,2.3039,2.3039,0,0,1,.7851.9888l-.7568.3843a1.3726,1.3726,0,0,0-.52-.7007,1.5629,1.5629,0,0,0-.9043-.2485,1.8155,1.8155,0,0,0-.712.13,1.39,1.39,0,0,0-.5078.3619,1.5257,1.5257,0,0,0-.3056.5537,2.3462,2.3462,0,0,0-.1016.706v.9947a1.8954,1.8954,0,0,0,.4121,1.26,1.4965,1.4965,0,0,0,1.2149.4917,1.6408,1.6408,0,0,0,1.582-1.0171l.6553.4405a2.3135,2.3135,0,0,1-.8418,1.0058A2.4625,2.4625,0,0,1,77.2929,23.9219Z"/><path class="cls-2" d="M82.9315,23.9219a2.6166,2.6166,0,0,1-1.0791-.2149,2.3174,2.3174,0,0,1-.8242-.6157,2.8134,2.8134,0,0,1-.5312-.96,4.3291,4.3291,0,0,1,0-2.5146,2.8026,2.8026,0,0,1,.5312-.9658,2.3174,2.3174,0,0,1,.8242-.6157,2.6166,2.6166,0,0,1,1.0791-.2149,2.4786,2.4786,0,0,1,1.0508.2139,2.3121,2.3121,0,0,1,.791.5913,2.62,2.62,0,0,1,.503.895,3.5247,3.5247,0,0,1,.1757,1.1372v.4282H81.26v.271a1.995,1.995,0,0,0,.1181.6953,1.658,1.658,0,0,0,.3389.5591,1.5554,1.5554,0,0,0,.543.3731,1.8653,1.8653,0,0,0,.7285.1357,1.777,1.777,0,0,0,.9668-.26,1.7039,1.7039,0,0,0,.6377-.7456l.6445.4663a2.2521,2.2521,0,0,1-.8818.9721A2.6612,2.6612,0,0,1,82.9315,23.9219Zm0-5.3453a1.7258,1.7258,0,0,0-.6777.1294,1.533,1.533,0,0,0-.5254.3648,1.7235,1.7235,0,0,0-.3447.5561,1.9206,1.9206,0,0,0-.124.7022v.0781H84.48v-.1235a1.7737,1.7737,0,0,0-.4239-1.2407A1.4482,1.4482,0,0,0,82.9315,18.5766Z"/><path class="cls-2" d="M86.9433,23.7861V17.9556h.9033v1.0732h.0566a1.7583,1.7583,0,0,1,.5654-.7456,1.7311,1.7311,0,0,1,1.1182-.3276h.3506v.9038h-.5313a2.0387,2.0387,0,0,0-1.1464.2768.8166.8166,0,0,0-.4131.6948v3.9551Z"/><path class="cls-2" d="M92.4237,23.7861a.9277.9277,0,0,1-.7178-.2646.9867.9867,0,0,1-.2431-.6939v-4.07h-.96v-.8022h.542a.5339.5339,0,0,0,.4014-.1187.6181.6181,0,0,0,.1074-.4126v-1.085h.8135v1.6163h1.2763v.8022H92.3671v4.2261h1.1865v.8022Z"/><path class="cls-2" d="M95.5536,16.5879a.5537.5537,0,0,1-.4238-.1411A.5236.5236,0,0,1,95,16.08v-.147a.5245.5245,0,0,1,.13-.3672.707.707,0,0,1,.8476,0,.52.52,0,0,1,.13.3672v.147a.52.52,0,0,1-.13.3672A.5508.5508,0,0,1,95.5536,16.5879Zm-.4512,1.3677h.9034v5.8305h-.9034Z"/><path class="cls-2" d="M98.2431,18.7578h-.9493v-.8022h.9493V16.78a1.4635,1.4635,0,0,1,.3164-.9834,1.1865,1.1865,0,0,1,.96-.3726h.8819v.8023H99.1464v1.729h3.2656v5.8305h-.9033V18.7578H99.1464v5.0283h-.9033Zm3.7168-2.17a.55.55,0,0,1-.4229-.1411.52.52,0,0,1-.1309-.3672v-.147a.521.521,0,0,1,.1309-.3672.7056.7056,0,0,1,.8467,0,.52.52,0,0,1,.13.3672v.147a.52.52,0,0,1-.13.3672A.5511.5511,0,0,1,101.96,16.5879Z"/><path class="cls-2" d="M106.5028,23.9219a2.6834,2.6834,0,0,1-1.0957-.2149,2.2267,2.2267,0,0,1-.8193-.61,2.7167,2.7167,0,0,1-.5088-.96,4.669,4.669,0,0,1,0-2.5312,2.721,2.721,0,0,1,.5088-.96,2.23,2.23,0,0,1,.8193-.61,2.6834,2.6834,0,0,1,1.0957-.2149,2.3355,2.3355,0,0,1,1.3955.3784,2.3049,2.3049,0,0,1,.7852.9888l-.7568.3843a1.3727,1.3727,0,0,0-.52-.7007,1.5625,1.5625,0,0,0-.9043-.2485,1.8146,1.8146,0,0,0-.7119.13,1.39,1.39,0,0,0-.5078.3619,1.5274,1.5274,0,0,0-.3057.5537,2.3494,2.3494,0,0,0-.1015.706v.9947a1.8954,1.8954,0,0,0,.4121,1.26,1.4964,1.4964,0,0,0,1.2148.4917,1.641,1.641,0,0,0,1.5821-1.0171l.6552.4405a2.3121,2.3121,0,0,1-.8418,1.0058A2.4622,2.4622,0,0,1,106.5028,23.9219Z"/><path class="cls-2" d="M114.2548,23.7861a.89.89,0,0,1-.73-.271,1.345,1.345,0,0,1-.2764-.6782h-.0566a1.5064,1.5064,0,0,1-.6328.8135,1.9624,1.9624,0,0,1-1.0508.2715,2.0431,2.0431,0,0,1-1.44-.4746,1.6683,1.6683,0,0,1-.5147-1.2886,1.4693,1.4693,0,0,1,.6045-1.2652,3.2159,3.2159,0,0,1,1.8818-.4409h1.1524v-.5761a1.2611,1.2611,0,0,0-.3389-.9493,1.4462,1.4462,0,0,0-1.04-.3276,1.5651,1.5651,0,0,0-.8867.2373,1.9525,1.9525,0,0,0-.5928.6328l-.543-.5088a2.0572,2.0572,0,0,1,.7568-.8076,2.8213,2.8213,0,0,1,2.961.1851,1.8254,1.8254,0,0,1,.5879,1.4433v3.2022h.666v.8022Zm-2.6-.6328a2.3032,2.3032,0,0,0,.622-.0791,1.5148,1.5148,0,0,0,.4854-.2261,1.1149,1.1149,0,0,0,.3164-.3388.8117.8117,0,0,0,.1133-.418v-.96H111.995a2.1877,2.1877,0,0,0-1.1357.2256.7308.7308,0,0,0-.3565.6558V22.25a.79.79,0,0,0,.3106.6665A1.355,1.355,0,0,0,111.6552,23.1533Z"/><path class="cls-2" d="M117.34,23.7861a.9273.9273,0,0,1-.7177-.2646.9867.9867,0,0,1-.2432-.6939v-4.07h-.96v-.8022h.542a.5339.5339,0,0,0,.4014-.1187.6181.6181,0,0,0,.1074-.4126v-1.085h.8135v1.6163H118.56v.8022h-1.2764v4.2261H118.47v.8022Z"/><path class="cls-2" d="M122.164,23.9219a2.6162,2.6162,0,0,1-1.0791-.2149,2.3168,2.3168,0,0,1-.8243-.6157,2.8151,2.8151,0,0,1-.5312-.96,4.3313,4.3313,0,0,1,0-2.5146,2.8042,2.8042,0,0,1,.5312-.9658,2.3168,2.3168,0,0,1,.8243-.6157,2.6162,2.6162,0,0,1,1.0791-.2149,2.4781,2.4781,0,0,1,1.0507.2139,2.3134,2.3134,0,0,1,.7911.5913,2.6213,2.6213,0,0,1,.5029.895,3.522,3.522,0,0,1,.1758,1.1372v.4282h-4.1924v.271a1.995,1.995,0,0,0,.1181.6953,1.658,1.658,0,0,0,.3389.5591,1.5554,1.5554,0,0,0,.543.3731,1.8653,1.8653,0,0,0,.7285.1357,1.777,1.777,0,0,0,.9668-.26,1.7039,1.7039,0,0,0,.6377-.7456l.6445.4663a2.2521,2.2521,0,0,1-.8818.9721A2.6606,2.6606,0,0,1,122.164,23.9219Zm0-5.3453a1.7259,1.7259,0,0,0-.6778.1294,1.533,1.533,0,0,0-.5254.3648,1.7235,1.7235,0,0,0-.3447.5561,1.9206,1.9206,0,0,0-.124.7022v.0781h3.2207v-.1235a1.7741,1.7741,0,0,0-.4238-1.2407A1.4484,1.4484,0,0,0,122.164,18.5766Z"/><rect id="_Transparent_Rectangle_" data-name=" Transparent Rectangle " class="cls-3" x="3.9398" y="3.1538" width="31.0342" height="31.0342"/><rect class="cls-4" x="10.7778" y="18.7785" width="7.633" height="2.3075"/><rect class="cls-5" x="10.7778" y="14.1634" width="11.4919" height="2.3075"/><rect class="cls-6" x="10.7778" y="9.5484" width="9.8737" height="2.3075"/><path class="cls-6" d="M16.5341,30.316H8.7091V7.2409h18.78V18.7785h1.565V7.2409c0-1.2744-.7007-2.3075-1.565-2.3075H8.7091c-.8643,0-1.565,1.0331-1.565,2.3075V30.316c0,1.2744.7007,2.3076,1.565,2.3076h7.825Z"/><polygon class="cls-2" points="21.01 28.595 18.105 25.42 16.524 27.149 21.01 32.053 29.984 22.244 28.402 20.515 21.01 28.595"/><rect id="_Transparent_Rectangle_2" data-name=" Transparent Rectangle " class="cls-3" x="4.3798" y="0.2273" width="29.07" height="36.9202"/></g></svg>