<svg xmlns="http://www.w3.org/2000/svg" width="138.5384" height="37.1475" viewBox="0 0 138.5384 37.1475"><defs><style>.cls-1{fill:#fff;stroke:#000;stroke-linecap:round;stroke-linejoin:round;stroke-width:0.3556px;}.cls-2{fill:#002d9c;}.cls-3{fill:none;}.cls-4{fill:#a6c8ff;}</style></defs><g id="Translatable_text" data-name="Translatable text"><polygon class="cls-1" points="134.263 3.154 3.958 3.154 3.94 34.188 134.263 34.188 134.263 3.154"/><path class="cls-2" d="M34.4888,23.7861v-.791h1.1074V16.69H34.4888v-.791h3.1641v.791H36.5454v6.3052h1.1075v.791Z"/><path class="cls-2" d="M39.2915,23.7861V17.9556h.9033v.9379h.0459a2.9729,2.9729,0,0,1,.2315-.4194,1.4185,1.4185,0,0,1,.3164-.3413,1.4484,1.4484,0,0,1,.4346-.229,1.84,1.84,0,0,1,.5879-.084,2.125,2.125,0,0,1,1.0625.2744,1.66,1.66,0,0,1,.7226.9014h.0225a1.7885,1.7885,0,0,1,.5937-.8228,1.8206,1.8206,0,0,1,1.1807-.353,1.7462,1.7462,0,0,1,1.3955.582,2.439,2.439,0,0,1,.5029,1.6441v3.74h-.9043v-3.59a1.9122,1.9122,0,0,0-.3047-1.1778,1.1489,1.1489,0,0,0-.9716-.3964,1.9219,1.9219,0,0,0-.5147.0678,1.3923,1.3923,0,0,0-.4346.2041.9866.9866,0,0,0-.3056.3452,1.024,1.024,0,0,0-.1123.4927v4.0542h-.9043v-3.59a1.906,1.906,0,0,0-.3057-1.1778,1.121,1.121,0,0,0-.9482-.3964,1.9812,1.9812,0,0,0-.5205.0678,1.3832,1.3832,0,0,0-.4405.2041,1.0516,1.0516,0,0,0-.31.3452.9832.9832,0,0,0-.1192.4927v4.0542Z"/><path class="cls-2" d="M49.1568,17.9556H50.06v.9379h.0459a1.6376,1.6376,0,0,1,.66-.811A1.99,1.99,0,0,1,51.812,17.82a2.2109,2.2109,0,0,1,.9825.2149,2.1317,2.1317,0,0,1,.7519.61,2.8044,2.8044,0,0,1,.4746.96,4.9624,4.9624,0,0,1,0,2.5312,2.8,2.8,0,0,1-.4746.96,2.1288,2.1288,0,0,1-.7519.61,2.2109,2.2109,0,0,1-.9825.2149,1.7644,1.7644,0,0,1-1.706-1.0743H50.06v3.1983h-.9033ZM51.563,23.12a1.555,1.555,0,0,0,1.209-.4829,1.8034,1.8034,0,0,0,.4414-1.2661v-1a1.8034,1.8034,0,0,0-.4414-1.2661,1.555,1.555,0,0,0-1.209-.4829,1.9592,1.9592,0,0,0-.582.0854,1.6112,1.6112,0,0,0-.48.2324,1.12,1.12,0,0,0-.3223.3579.8989.8989,0,0,0-.1191.4488v2.18a1.0558,1.0558,0,0,0,.1191.5059,1.1336,1.1336,0,0,0,.3223.3745,1.4515,1.4515,0,0,0,.48.2329A2.1075,2.1075,0,0,0,51.563,23.12Z"/><path class="cls-2" d="M57.9136,23.9219A2.6243,2.6243,0,0,1,56.84,23.707a2.3072,2.3072,0,0,1-.8311-.6157,2.907,2.907,0,0,1-.5361-.96,4.2043,4.2043,0,0,1,0-2.5146,2.8945,2.8945,0,0,1,.5361-.9658,2.3072,2.3072,0,0,1,.8311-.6157,2.6243,2.6243,0,0,1,1.0732-.2149,2.587,2.587,0,0,1,1.0674.2149,2.3765,2.3765,0,0,1,.831.6157,2.8387,2.8387,0,0,1,.542.9658,4.2043,4.2043,0,0,1,0,2.5146,2.8506,2.8506,0,0,1-.542.96,2.3765,2.3765,0,0,1-.831.6157A2.587,2.587,0,0,1,57.9136,23.9219Zm0-.8023a1.6426,1.6426,0,0,0,1.1973-.4521,1.8447,1.8447,0,0,0,.4638-1.3784v-.8365a1.8445,1.8445,0,0,0-.4638-1.3784,1.8127,1.8127,0,0,0-2.3955,0,1.8479,1.8479,0,0,0-.4629,1.3784v.8365a1.8481,1.8481,0,0,0,.4629,1.3784A1.6447,1.6447,0,0,0,57.9136,23.12Z"/><path class="cls-2" d="M62.0386,23.7861V17.9556h.9033v1.0732h.0567a1.7567,1.7567,0,0,1,.5654-.7456,1.7306,1.7306,0,0,1,1.1181-.3276h.3506v.9038h-.5312a2.0388,2.0388,0,0,0-1.1465.2768.8166.8166,0,0,0-.4131.6948v3.9551Z"/><path class="cls-2" d="M67.5191,23.7861a.9276.9276,0,0,1-.7178-.2646.9867.9867,0,0,1-.2432-.6939v-4.07h-.96v-.8022h.542a.5335.5335,0,0,0,.4013-.1187.6181.6181,0,0,0,.1074-.4126v-1.085h.8135v1.6163h1.2764v.8022H67.4624v4.2261h1.1865v.8022Z"/><path class="cls-2" d="M77.1011,23.7861a.89.89,0,0,1-.73-.271,1.345,1.345,0,0,1-.2764-.6782h-.0566a1.506,1.506,0,0,1-.6328.8135,1.9624,1.9624,0,0,1-1.0508.2715,2.0431,2.0431,0,0,1-1.44-.4746A1.6683,1.6683,0,0,1,72.4,22.1587a1.4693,1.4693,0,0,1,.6045-1.2652,3.2161,3.2161,0,0,1,1.8819-.4409h1.1523v-.5761a1.2611,1.2611,0,0,0-.3389-.9493A1.4459,1.4459,0,0,0,74.66,18.6a1.5651,1.5651,0,0,0-.8867.2373,1.9536,1.9536,0,0,0-.5928.6328l-.543-.5088a2.0567,2.0567,0,0,1,.7569-.8076,2.8212,2.8212,0,0,1,2.9609.1851,1.8254,1.8254,0,0,1,.5879,1.4433v3.2022h.666v.8022Zm-2.6-.6328a2.3045,2.3045,0,0,0,.6221-.0791,1.5142,1.5142,0,0,0,.4853-.2261,1.1149,1.1149,0,0,0,.3164-.3388.8117.8117,0,0,0,.1133-.418v-.96H74.8413a2.1877,2.1877,0,0,0-1.1357.2256.7308.7308,0,0,0-.3565.6558V22.25a.7906.7906,0,0,0,.3106.6665A1.355,1.355,0,0,0,74.5015,23.1533Z"/><path class="cls-2" d="M83.7329,23.9219a2.6834,2.6834,0,0,1-1.0957-.2149,2.2267,2.2267,0,0,1-.8193-.61,2.7167,2.7167,0,0,1-.5088-.96,4.669,4.669,0,0,1,0-2.5312,2.721,2.721,0,0,1,.5088-.96,2.23,2.23,0,0,1,.8193-.61,2.6834,2.6834,0,0,1,1.0957-.2149,2.3355,2.3355,0,0,1,1.3955.3784,2.3049,2.3049,0,0,1,.7852.9888l-.7568.3843a1.3727,1.3727,0,0,0-.52-.7007,1.5625,1.5625,0,0,0-.9043-.2485,1.8146,1.8146,0,0,0-.7119.13,1.39,1.39,0,0,0-.5078.3619,1.5274,1.5274,0,0,0-.3057.5537,2.3494,2.3494,0,0,0-.1015.706v.9947a1.8954,1.8954,0,0,0,.4121,1.26,1.4964,1.4964,0,0,0,1.2148.4917,1.641,1.641,0,0,0,1.5821-1.0171l.6552.4405a2.3121,2.3121,0,0,1-.8418,1.0058A2.4622,2.4622,0,0,1,83.7329,23.9219Z"/><path class="cls-2" d="M89.3716,23.9219a2.6166,2.6166,0,0,1-1.0791-.2149,2.3174,2.3174,0,0,1-.8242-.6157,2.8153,2.8153,0,0,1-.5313-.96,4.3313,4.3313,0,0,1,0-2.5146,2.8044,2.8044,0,0,1,.5313-.9658,2.3174,2.3174,0,0,1,.8242-.6157,2.6166,2.6166,0,0,1,1.0791-.2149,2.4786,2.4786,0,0,1,1.0508.2139,2.313,2.313,0,0,1,.791.5913,2.6213,2.6213,0,0,1,.5029.895,3.522,3.522,0,0,1,.1758,1.1372v.4282H87.7v.271a1.995,1.995,0,0,0,.1182.6953,1.658,1.658,0,0,0,.3389.5591,1.555,1.555,0,0,0,.5429.3731,1.8656,1.8656,0,0,0,.7285.1357,1.7768,1.7768,0,0,0,.9668-.26,1.7033,1.7033,0,0,0,.6377-.7456l.6446.4663a2.2523,2.2523,0,0,1-.8819.9721A2.6606,2.6606,0,0,1,89.3716,23.9219Zm0-5.3453a1.7258,1.7258,0,0,0-.6777.1294,1.532,1.532,0,0,0-.5254.3648,1.7235,1.7235,0,0,0-.3447.5561,1.9185,1.9185,0,0,0-.1241.7022v.0781H90.92v-.1235a1.7741,1.7741,0,0,0-.4238-1.2407A1.4482,1.4482,0,0,0,89.3716,18.5766Z"/><path class="cls-2" d="M93.3843,23.7861V17.9556h.9033v1.0732h.0567a1.7567,1.7567,0,0,1,.5654-.7456,1.7307,1.7307,0,0,1,1.1182-.3276h.35v.9038h-.5312a2.0388,2.0388,0,0,0-1.1465.2768.8166.8166,0,0,0-.4131.6948v3.9551Z"/><path class="cls-2" d="M98.8638,23.7861a.9276.9276,0,0,1-.7178-.2646.9867.9867,0,0,1-.2431-.6939v-4.07h-.96v-.8022h.542a.5339.5339,0,0,0,.4014-.1187.6186.6186,0,0,0,.1074-.4126v-1.085h.8134v1.6163h1.2764v.8022H98.8071v4.2261h1.1866v.8022Z"/><path class="cls-2" d="M101.9937,16.5879a.5541.5541,0,0,1-.4239-.1411.524.524,0,0,1-.13-.3672v-.147a.5249.5249,0,0,1,.13-.3672.7072.7072,0,0,1,.8477,0,.52.52,0,0,1,.13.3672v.147a.52.52,0,0,1-.13.3672A.5508.5508,0,0,1,101.9937,16.5879Zm-.4512,1.3677h.9033v5.8305h-.9033Z"/><path class="cls-2" d="M104.6841,18.7578h-.9492v-.8022h.9492V16.78a1.4635,1.4635,0,0,1,.3164-.9834,1.1869,1.1869,0,0,1,.96-.3726h.8818v.8023h-1.2549v1.729h3.2656v5.8305H107.95V18.7578h-2.3623v5.0283h-.9033Zm3.7168-2.17a.55.55,0,0,1-.4229-.1411.52.52,0,0,1-.1308-.3672v-.147a.5209.5209,0,0,1,.1308-.3672.7056.7056,0,0,1,.8467,0,.52.52,0,0,1,.13.3672v.147a.52.52,0,0,1-.13.3672A.5508.5508,0,0,1,108.4009,16.5879Z"/><path class="cls-2" d="M112.9429,23.9219a2.6828,2.6828,0,0,1-1.0957-.2149,2.2258,2.2258,0,0,1-.8193-.61,2.7167,2.7167,0,0,1-.5088-.96,4.669,4.669,0,0,1,0-2.5312,2.721,2.721,0,0,1,.5088-.96,2.229,2.229,0,0,1,.8193-.61,2.6828,2.6828,0,0,1,1.0957-.2149,2.3355,2.3355,0,0,1,1.3955.3784,2.3049,2.3049,0,0,1,.7852.9888l-.7569.3843a1.372,1.372,0,0,0-.5195-.7007,1.5627,1.5627,0,0,0-.9043-.2485,1.8146,1.8146,0,0,0-.7119.13,1.3887,1.3887,0,0,0-.5078.3619,1.5259,1.5259,0,0,0-.3057.5537,2.3462,2.3462,0,0,0-.1016.706v.9947a1.8954,1.8954,0,0,0,.4121,1.26,1.4965,1.4965,0,0,0,1.2149.4917,1.6407,1.6407,0,0,0,1.582-1.0171l.6553.4405a2.3135,2.3135,0,0,1-.8418,1.0058A2.4622,2.4622,0,0,1,112.9429,23.9219Z"/><path class="cls-2" d="M120.6958,23.7861a.89.89,0,0,1-.73-.271,1.3449,1.3449,0,0,1-.2763-.6782h-.0567a1.5055,1.5055,0,0,1-.6328.8135,1.9619,1.9619,0,0,1-1.0508.2715,2.0434,2.0434,0,0,1-1.44-.4746,1.6683,1.6683,0,0,1-.5147-1.2886,1.4693,1.4693,0,0,1,.6045-1.2652,3.2163,3.2163,0,0,1,1.8819-.4409h1.1523v-.5761a1.2614,1.2614,0,0,0-.3388-.9493,1.4463,1.4463,0,0,0-1.04-.3276,1.5651,1.5651,0,0,0-.8867.2373,1.9536,1.9536,0,0,0-.5928.6328l-.5429-.5088a2.0564,2.0564,0,0,1,.7568-.8076,2.8212,2.8212,0,0,1,2.9609.1851,1.8254,1.8254,0,0,1,.5879,1.4433v3.2022h.666v.8022Zm-2.6-.6328a2.3039,2.3039,0,0,0,.6221-.0791,1.5132,1.5132,0,0,0,.4853-.2261,1.1137,1.1137,0,0,0,.3164-.3388.8117.8117,0,0,0,.1133-.418v-.96h-1.1972a2.1879,2.1879,0,0,0-1.1358.2256.7307.7307,0,0,0-.3564.6558V22.25a.7905.7905,0,0,0,.3105.6665A1.355,1.355,0,0,0,118.0962,23.1533Z"/><path class="cls-2" d="M123.7808,23.7861a.9276.9276,0,0,1-.7178-.2646.9867.9867,0,0,1-.2432-.6939v-4.07h-.96v-.8022h.542a.5335.5335,0,0,0,.4013-.1187.618.618,0,0,0,.1075-.4126v-1.085h.8134v1.6163h1.2764v.8022h-1.2764v4.2261h1.1866v.8022Z"/><path class="cls-2" d="M128.605,23.9219a2.6166,2.6166,0,0,1-1.0791-.2149,2.3174,2.3174,0,0,1-.8242-.6157,2.8153,2.8153,0,0,1-.5313-.96,4.3313,4.3313,0,0,1,0-2.5146,2.8044,2.8044,0,0,1,.5313-.9658,2.3174,2.3174,0,0,1,.8242-.6157,2.6166,2.6166,0,0,1,1.0791-.2149,2.4786,2.4786,0,0,1,1.0508.2139,2.313,2.313,0,0,1,.791.5913,2.6213,2.6213,0,0,1,.5029.895,3.522,3.522,0,0,1,.1758,1.1372v.4282h-4.1924v.271a1.995,1.995,0,0,0,.1182.6953,1.658,1.658,0,0,0,.3389.5591,1.555,1.555,0,0,0,.5429.3731,1.8656,1.8656,0,0,0,.7285.1357,1.7768,1.7768,0,0,0,.9668-.26,1.7033,1.7033,0,0,0,.6377-.7456l.6446.4663a2.2523,2.2523,0,0,1-.8819.9721A2.6606,2.6606,0,0,1,128.605,23.9219Zm0-5.3453a1.7258,1.7258,0,0,0-.6777.1294,1.532,1.532,0,0,0-.5254.3648,1.7254,1.7254,0,0,0-.3448.5561,1.9206,1.9206,0,0,0-.124.7022v.0781h3.2207v-.1235a1.7741,1.7741,0,0,0-.4238-1.2407A1.4482,1.4482,0,0,0,128.605,18.5766Z"/><rect id="_Transparent_Rectangle_" data-name=" Transparent Rectangle " class="cls-3" x="3.9398" y="3.1538" width="31.0342" height="31.0342"/><rect id="_Transparent_Rectangle_2" data-name=" Transparent Rectangle " class="cls-3" x="4.3798" y="0.2273" width="29.07" height="36.9202"/><rect id="_Transparent_Rectangle_3" data-name=" Transparent Rectangle " class="cls-3" x="4.1911" y="3.0402" width="29.4474" height="31.0342"/><rect id="_Transparent_Rectangle_4" data-name=" Transparent Rectangle " class="cls-3" x="4.6087" y="0.1136" width="27.5836" height="36.9202"/><polygon class="cls-2" points="30.859 21.6 18.05 21.6 20.56 19.044 19.188 17.652 14.325 22.587 19.188 27.522 20.56 26.131 18.05 23.574 30.859 23.574 30.859 21.6"/><path class="cls-4" d="M29.0075,16.6647V12.7163a.9422.9422,0,0,0-.3158-.7008L21.07,5.106a1.15,1.15,0,0,0-.7731-.2863H9.4092A2.0834,2.0834,0,0,0,7.2316,6.7939v23.69a2.0834,2.0834,0,0,0,2.1776,1.9742H26.83a2.0834,2.0834,0,0,0,2.1776-1.9742V28.51H26.83v1.9741H9.4092V6.7939h8.71v5.9224a2.0834,2.0834,0,0,0,2.1776,1.9742H26.83v1.9742Zm-8.71-3.9484V7.1986l6.0864,5.5177Z"/></g></svg>