<svg xmlns="http://www.w3.org/2000/svg" width="183.9193" height="47.8204" viewBox="0 0 183.9193 47.8204"><defs><style>.cls-1{fill:#002d9c;}.cls-2{fill:#4589ff;}.cls-3{fill:#78a9ff;}.cls-4{fill:#a6c8ff;}</style></defs><g id="Translatable_text" data-name="Translatable text"><path class="cls-1" d="M47.4276,29.6427a4.7027,4.7027,0,0,1-1.88-.36A3.8272,3.8272,0,0,1,44.12,28.2232a4.9049,4.9049,0,0,1-.9131-1.7338,8.0415,8.0415,0,0,1-.3223-2.3863,7.9659,7.9659,0,0,1,.3223-2.3784,4.9917,4.9917,0,0,1,.9131-1.7339,3.8015,3.8015,0,0,1,1.4277-1.0669,5.0641,5.0641,0,0,1,3.752,0,3.794,3.794,0,0,1,1.4345,1.0669,4.9917,4.9917,0,0,1,.9131,1.7339,7.9627,7.9627,0,0,1,.3223,2.3784,8.0382,8.0382,0,0,1-.3223,2.3863,4.9049,4.9049,0,0,1-.9131,1.7338A3.82,3.82,0,0,1,49.3,29.2823,4.725,4.725,0,0,1,47.4276,29.6427Zm0-1.1353a3.2326,3.2326,0,0,0,1.2734-.2466,2.8377,2.8377,0,0,0,1.0049-.7085,3.224,3.224,0,0,0,.6524-1.1084,4.2987,4.2987,0,0,0,.23-1.4477V23.21a4.3018,4.3018,0,0,0-.23-1.4478,3.224,3.224,0,0,0-.6524-1.1084,2.8453,2.8453,0,0,0-1.0049-.7085,3.4137,3.4137,0,0,0-2.5478,0,2.8462,2.8462,0,0,0-1.0049.7085,3.2238,3.2238,0,0,0-.6523,1.1084,4.3,4.3,0,0,0-.23,1.4478v1.7861a4.2966,4.2966,0,0,0,.23,1.4477,3.2238,3.2238,0,0,0,.6523,1.1084,2.8386,2.8386,0,0,0,1.0049.7085A3.2347,3.2347,0,0,0,47.4276,28.5074Z"/><path class="cls-1" d="M54.1639,29.4586v-7.918h1.2276v1.4575h.0761a2.3981,2.3981,0,0,1,.7676-1.0127,2.36,2.36,0,0,1,1.52-.4448H58.23v1.2276h-.7216a2.7748,2.7748,0,0,0-1.5577.3759,1.1092,1.1092,0,0,0-.5595.9439v5.3706Z"/><path class="cls-1" d="M64.7665,28.1842h-.0616a2.4155,2.4155,0,0,1-2.3164,1.4585,3.0133,3.0133,0,0,1-1.3359-.2915,2.9005,2.9005,0,0,1-1.02-.8286,3.7794,3.7794,0,0,1-.6436-1.3042,6.7467,6.7467,0,0,1,0-3.4375,3.7821,3.7821,0,0,1,.6436-1.3042,2.9052,2.9052,0,0,1,1.02-.8287,3.0133,3.0133,0,0,1,1.3359-.2915,2.6953,2.6953,0,0,1,1.419.357,2.2233,2.2233,0,0,1,.8974,1.1015h.0616V18.1031H65.994V29.4586H64.7665Zm-2.041.3691a2.85,2.85,0,0,0,.79-.1079,1.97,1.97,0,0,0,.6523-.3164,1.5353,1.5353,0,0,0,.4375-.5088,1.4288,1.4288,0,0,0,.1612-.6865v-2.961a1.22,1.22,0,0,0-.1612-.6093,1.518,1.518,0,0,0-.4375-.4859,2.2043,2.2043,0,0,0-.6523-.3159,2.6675,2.6675,0,0,0-.79-.1157,2.1122,2.1122,0,0,0-1.6416.6553,2.449,2.449,0,0,0-.5987,1.72v1.3574a2.449,2.449,0,0,0,.5987,1.72A2.1122,2.1122,0,0,0,62.7255,28.5533Z"/><path class="cls-1" d="M71.58,29.6427a3.5593,3.5593,0,0,1-1.4658-.2915,3.1661,3.1661,0,0,1-1.12-.8365,3.8432,3.8432,0,0,1-.7207-1.3042,5.889,5.889,0,0,1,0-3.4145,3.84,3.84,0,0,1,.7207-1.312,3.1707,3.1707,0,0,1,1.12-.836,3.5593,3.5593,0,0,1,1.4658-.2915,3.3591,3.3591,0,0,1,1.4268.2906,3.1549,3.1549,0,0,1,1.0742.8027,3.5816,3.5816,0,0,1,.6836,1.2158,4.8063,4.8063,0,0,1,.2373,1.5445v.581H69.3085v.3682a2.7082,2.7082,0,0,0,.1611.9438,2.2484,2.2484,0,0,0,.4609.76,2.1076,2.1076,0,0,0,.7364.5063,2.5361,2.5361,0,0,0,.99.1841,2.4067,2.4067,0,0,0,1.3115-.353,2.321,2.321,0,0,0,.8672-1.0127l.875.6333a3.059,3.059,0,0,1-1.1973,1.32A3.6086,3.6086,0,0,1,71.58,29.6427Zm0-7.2583a2.3353,2.3353,0,0,0-.9209.1758,2.0588,2.0588,0,0,0-.7128.4956,2.309,2.309,0,0,0-.4688.7544,2.62,2.62,0,0,0-.1689.9536V24.87h4.374v-.1675a2.4116,2.4116,0,0,0-.5752-1.685A1.9648,1.9648,0,0,0,71.58,22.3844Z"/><path class="cls-1" d="M77.0282,29.4586v-7.918h1.2275v1.4575h.0762A2.3973,2.3973,0,0,1,79.1,21.9854a2.36,2.36,0,0,1,1.5195-.4448h.4756v1.2276h-.7217a2.7745,2.7745,0,0,0-1.5576.3759,1.1091,1.1091,0,0,0-.56.9439v5.3706Z"/><path class="cls-1" d="M92.035,29.4586a1.2035,1.2035,0,0,1-.9892-.3682,1.8175,1.8175,0,0,1-.376-.9209h-.0772a2.0461,2.0461,0,0,1-.8593,1.105,2.6659,2.6659,0,0,1-1.4268.3682,2.7786,2.7786,0,0,1-1.957-.6446,2.2656,2.2656,0,0,1-.6983-1.749,1.9984,1.9984,0,0,1,.8213-1.7187,4.364,4.364,0,0,1,2.5547-.5987h1.5654V24.149a1.7125,1.7125,0,0,0-.46-1.289,1.968,1.968,0,0,0-1.4121-.4449,2.1245,2.1245,0,0,0-1.2041.3223,2.6559,2.6559,0,0,0-.8057.8594l-.7373-.6905a2.7959,2.7959,0,0,1,1.0283-1.0971,3.24,3.24,0,0,1,1.78-.4527,3.2764,3.2764,0,0,1,2.24.7041,2.4773,2.4773,0,0,1,.7979,1.96v4.3486h.9053v1.0894Zm-3.5293-.8594a3.1168,3.1168,0,0,0,.8438-.1074,2.0706,2.0706,0,0,0,.66-.3066,1.5189,1.5189,0,0,0,.43-.46,1.0972,1.0972,0,0,0,.1533-.5679V25.8526H88.9667a2.9717,2.9717,0,0,0-1.543.3067.9917.9917,0,0,0-.4834.89v.3223a1.0732,1.0732,0,0,0,.4219.9052A1.84,1.84,0,0,0,88.5057,28.5992Z"/><path class="cls-1" d="M101.0428,29.6427a3.6515,3.6515,0,0,1-1.4892-.2915,3.0388,3.0388,0,0,1-1.1123-.8286,3.6839,3.6839,0,0,1-.6905-1.3042,6.3431,6.3431,0,0,1,0-3.4375,3.6865,3.6865,0,0,1,.6905-1.3042,3.0434,3.0434,0,0,1,1.1123-.8287,3.6515,3.6515,0,0,1,1.4892-.2915,3.1764,3.1764,0,0,1,1.8946.5137,3.1409,3.1409,0,0,1,1.0664,1.3428l-1.0274.522a1.8674,1.8674,0,0,0-.706-.9517,2.124,2.124,0,0,0-1.2276-.3374,2.4615,2.4615,0,0,0-.9668.1763,1.884,1.884,0,0,0-.69.4912,2.0721,2.0721,0,0,0-.415.7519,3.1806,3.1806,0,0,0-.1377.959v1.3506a2.5729,2.5729,0,0,0,.5595,1.7109,2.0342,2.0342,0,0,0,1.65.6675,2.2278,2.2278,0,0,0,2.1485-1.3813l.89.5986a3.14,3.14,0,0,1-1.1435,1.3657A3.3428,3.3428,0,0,1,101.0428,29.6427Z"/><path class="cls-1" d="M108.6991,29.6427a3.5586,3.5586,0,0,1-1.4658-.2915,3.1656,3.1656,0,0,1-1.12-.8365,3.8449,3.8449,0,0,1-.7207-1.3042,5.889,5.889,0,0,1,0-3.4145,3.8421,3.8421,0,0,1,.7207-1.312,3.17,3.17,0,0,1,1.12-.836,3.5586,3.5586,0,0,1,1.4658-.2915,3.359,3.359,0,0,1,1.4267.2906A3.1543,3.1543,0,0,1,111.2,22.45a3.5832,3.5832,0,0,1,.6836,1.2158,4.8063,4.8063,0,0,1,.2373,1.5445v.581h-5.6934v.3682a2.7082,2.7082,0,0,0,.1611.9438,2.25,2.25,0,0,0,.461.76,2.1081,2.1081,0,0,0,.7363.5063,2.5365,2.5365,0,0,0,.99.1841,2.4073,2.4073,0,0,0,1.3116-.353,2.3208,2.3208,0,0,0,.8671-1.0127l.875.6333a3.0582,3.0582,0,0,1-1.1972,1.32A3.6086,3.6086,0,0,1,108.6991,29.6427Zm0-7.2583a2.3349,2.3349,0,0,0-.9209.1758,2.0583,2.0583,0,0,0-.7129.4956,2.3107,2.3107,0,0,0-.4688.7544,2.62,2.62,0,0,0-.1689.9536V24.87h4.374v-.1675a2.4116,2.4116,0,0,0-.5752-1.685A1.9646,1.9646,0,0,0,108.6991,22.3844Z"/><path class="cls-1" d="M114.1473,29.4586v-7.918h1.2276v1.4575h.0761a2.3981,2.3981,0,0,1,.7676-1.0127,2.36,2.36,0,0,1,1.52-.4448h.4756v1.2276h-.7216a2.7748,2.7748,0,0,0-1.5577.3759,1.1092,1.1092,0,0,0-.5595.9439v5.3706Z"/><path class="cls-1" d="M121.5887,29.4586a1.2571,1.2571,0,0,1-.9746-.36,1.3393,1.3393,0,0,1-.33-.9414V22.63H118.98V21.5406h.7364a.7233.7233,0,0,0,.5449-.1611.8391.8391,0,0,0,.1455-.56V19.3463h1.1045v2.1943h1.7344V22.63h-1.7344v5.7392h1.6113v1.0894Z"/><path class="cls-1" d="M125.84,19.6837a.75.75,0,0,1-.5752-.1919.7054.7054,0,0,1-.1767-.4985v-.2a.7055.7055,0,0,1,.1767-.4986.958.958,0,0,1,1.15,0,.7051.7051,0,0,1,.1768.4986v.2a.705.705,0,0,1-.1768.4985A.75.75,0,0,1,125.84,19.6837Zm-.6133,1.8569h1.2276v7.918h-1.2276Z"/><path class="cls-1" d="M129.4921,22.63H128.203V21.5406h1.2891V19.9444a1.9905,1.9905,0,0,1,.43-1.3349,1.6148,1.6148,0,0,1,1.3038-.5064h1.1972v1.0894H130.72v2.3481h4.4346v7.918h-1.2276V22.63H130.72v6.8286h-1.2275Zm5.0478-2.9463a.75.75,0,0,1-.5752-.1919.7094.7094,0,0,1-.1767-.4985v-.2a.71.71,0,0,1,.1767-.4986.9595.9595,0,0,1,1.1514,0,.709.709,0,0,1,.1758.4986v.2a.7089.7089,0,0,1-.1758.4985A.752.752,0,0,1,134.54,19.6837Z"/><path class="cls-1" d="M140.71,29.6427a3.6515,3.6515,0,0,1-1.4892-.2915,3.0388,3.0388,0,0,1-1.1123-.8286,3.6839,3.6839,0,0,1-.6905-1.3042,6.3431,6.3431,0,0,1,0-3.4375,3.6865,3.6865,0,0,1,.6905-1.3042,3.0434,3.0434,0,0,1,1.1123-.8287,3.6515,3.6515,0,0,1,1.4892-.2915,3.1764,3.1764,0,0,1,1.8946.5137,3.1416,3.1416,0,0,1,1.0664,1.3428l-1.0274.522a1.8674,1.8674,0,0,0-.706-.9517,2.124,2.124,0,0,0-1.2276-.3374,2.4615,2.4615,0,0,0-.9668.1763,1.884,1.884,0,0,0-.69.4912,2.0721,2.0721,0,0,0-.415.7519,3.1806,3.1806,0,0,0-.1377.959v1.3506a2.5729,2.5729,0,0,0,.56,1.7109,2.0342,2.0342,0,0,0,1.65.6675,2.2278,2.2278,0,0,0,2.1485-1.3813l.89.5986a3.14,3.14,0,0,1-1.1435,1.3657A3.3428,3.3428,0,0,1,140.71,29.6427Z"/><path class="cls-1" d="M151.2352,29.4586a1.2035,1.2035,0,0,1-.9892-.3682,1.8175,1.8175,0,0,1-.376-.9209h-.0772a2.0461,2.0461,0,0,1-.8593,1.105,2.6659,2.6659,0,0,1-1.4268.3682,2.7786,2.7786,0,0,1-1.957-.6446,2.2656,2.2656,0,0,1-.6983-1.749,1.9984,1.9984,0,0,1,.8213-1.7187,4.364,4.364,0,0,1,2.5547-.5987h1.5654V24.149a1.7125,1.7125,0,0,0-.46-1.289,1.968,1.968,0,0,0-1.4121-.4449,2.1245,2.1245,0,0,0-1.2041.3223,2.6559,2.6559,0,0,0-.8057.8594l-.7373-.6905a2.7959,2.7959,0,0,1,1.0283-1.0971,3.24,3.24,0,0,1,1.78-.4527,3.2764,3.2764,0,0,1,2.24.7041,2.4776,2.4776,0,0,1,.7979,1.96v4.3486h.9052v1.0894Zm-3.5293-.8594a3.1168,3.1168,0,0,0,.8438-.1074,2.0706,2.0706,0,0,0,.66-.3066,1.5189,1.5189,0,0,0,.43-.46,1.0972,1.0972,0,0,0,.1533-.5679V25.8526h-1.6259a2.9717,2.9717,0,0,0-1.543.3067.9917.9917,0,0,0-.4834.89v.3223a1.0732,1.0732,0,0,0,.4219.9052A1.84,1.84,0,0,0,147.7059,28.5992Z"/><path class="cls-1" d="M155.4247,29.4586a1.2569,1.2569,0,0,1-.9746-.36,1.3389,1.3389,0,0,1-.33-.9414V22.63h-1.3037V21.5406h.7363a.7232.7232,0,0,0,.5449-.1611.8391.8391,0,0,0,.1455-.56V19.3463h1.1045v2.1943h1.7344V22.63h-1.7344v5.7392h1.6114v1.0894Z"/><path class="cls-1" d="M161.9774,29.6427a3.5586,3.5586,0,0,1-1.4658-.2915,3.1652,3.1652,0,0,1-1.12-.8365,3.8415,3.8415,0,0,1-.7207-1.3042,5.8868,5.8868,0,0,1,0-3.4145,3.8387,3.8387,0,0,1,.7207-1.312,3.17,3.17,0,0,1,1.12-.836,3.5586,3.5586,0,0,1,1.4658-.2915,3.36,3.36,0,0,1,1.4268.2906,3.1549,3.1549,0,0,1,1.0742.8027,3.5816,3.5816,0,0,1,.6836,1.2158,4.8063,4.8063,0,0,1,.2373,1.5445v.581h-5.6934v.3682a2.7059,2.7059,0,0,0,.1612.9438,2.2484,2.2484,0,0,0,.4609.76,2.1081,2.1081,0,0,0,.7363.5063,2.5366,2.5366,0,0,0,.99.1841,2.4072,2.4072,0,0,0,1.3115-.353,2.3216,2.3216,0,0,0,.8672-1.0127l.875.6333a3.059,3.059,0,0,1-1.1973,1.32A3.6086,3.6086,0,0,1,161.9774,29.6427Zm0-7.2583a2.3349,2.3349,0,0,0-.9209.1758,2.0583,2.0583,0,0,0-.7129.4956,2.3088,2.3088,0,0,0-.4687.7544,2.62,2.62,0,0,0-.169.9536V24.87h4.374v-.1675a2.4111,2.4111,0,0,0-.5752-1.685A1.9645,1.9645,0,0,0,161.9774,22.3844Z"/><rect class="cls-2" x="13.2604" y="24.8247" width="9.2035" height="2.7823"/><rect class="cls-3" x="13.2604" y="19.2601" width="13.8563" height="2.7823"/><rect class="cls-4" x="13.2604" y="13.6956" width="11.9051" height="2.7823"/><path class="cls-4" d="M20.201,38.736H10.766V10.9133H33.41V24.8247h1.887V10.9133c0-1.5366-.8449-2.7822-1.887-2.7822H10.766c-1.0421,0-1.887,1.2456-1.887,2.7822V38.736c0,1.5366.8449,2.7823,1.887,2.7823h9.435Z"/><polygon class="cls-1" points="25.598 36.661 22.095 32.832 20.189 34.917 25.598 40.83 36.418 29.003 34.511 26.919 25.598 36.661"/></g></svg>