<svg xmlns="http://www.w3.org/2000/svg" width="183.9193" height="47.8204" viewBox="0 0 183.9193 47.8204"><defs><style>.cls-1{fill:#002d9c;}.cls-2{fill:#a6c8ff;}</style></defs><g id="Translatable_text" data-name="Translatable text"><path class="cls-1" d="M43.1069,28.3494V27.2752h1.504V18.7127h-1.504V17.6385h4.2969v1.0742H45.9v8.5625h1.5039v1.0742Z"/><path class="cls-1" d="M49.6284,28.3494v-7.918H50.856v1.2744h.0615a4.0111,4.0111,0,0,1,.3144-.57,1.9324,1.9324,0,0,1,1.0206-.7749,2.5033,2.5033,0,0,1,.7978-.1138,2.8844,2.8844,0,0,1,1.4424.3726,2.2527,2.2527,0,0,1,.9814,1.2241h.0313a2.4212,2.4212,0,0,1,.8056-1.1177,2.4741,2.4741,0,0,1,1.6036-.479,2.3741,2.3741,0,0,1,1.8955.79,3.313,3.313,0,0,1,.6826,2.2329v5.0791H59.2651v-4.875a2.5942,2.5942,0,0,0-.415-1.6,1.56,1.56,0,0,0-1.3193-.5381,2.5838,2.5838,0,0,0-.6983.0923,1.9012,1.9012,0,0,0-.5908.2768,1.3454,1.3454,0,0,0-.4141.4693,1.3854,1.3854,0,0,0-.1533.6689v5.5054H54.4468v-4.875a2.5949,2.5949,0,0,0-.415-1.6,1.523,1.523,0,0,0-1.2891-.5381,2.66,2.66,0,0,0-.7051.0923,1.8827,1.8827,0,0,0-.5986.2768,1.4271,1.4271,0,0,0-.4219.4693,1.3342,1.3342,0,0,0-.1611.6689v5.5054Z"/><path class="cls-1" d="M63.0249,20.4314h1.2276v1.2744h.0615a2.2181,2.2181,0,0,1,.8974-1.1015,2.6953,2.6953,0,0,1,1.419-.357,3.0059,3.0059,0,0,1,1.3349.2915,2.8967,2.8967,0,0,1,1.0206.8287,3.8028,3.8028,0,0,1,.6445,1.3042,6.7467,6.7467,0,0,1,0,3.4375,3.8,3.8,0,0,1-.6445,1.3042,2.892,2.892,0,0,1-1.0206.8286,3.0059,3.0059,0,0,1-1.3349.2915A2.3958,2.3958,0,0,1,64.314,27.075h-.0615v4.3432H63.0249Zm3.2686,7.0127a2.1138,2.1138,0,0,0,1.6416-.6553,2.4494,2.4494,0,0,0,.5986-1.72V23.7117a2.4494,2.4494,0,0,0-.5986-1.72,2.1138,2.1138,0,0,0-1.6416-.6553,2.678,2.678,0,0,0-.791.1157,2.2109,2.2109,0,0,0-.6514.3159,1.518,1.518,0,0,0-.4375.4859,1.2209,1.2209,0,0,0-.1611.6094v2.9609a1.43,1.43,0,0,0,.1611.6865,1.5353,1.5353,0,0,0,.4375.5088,1.9748,1.9748,0,0,0,.6514.3164A2.8616,2.8616,0,0,0,66.2935,27.4441Z"/><path class="cls-1" d="M74.9175,28.5335a3.5673,3.5673,0,0,1-1.458-.2915,3.1338,3.1338,0,0,1-1.1279-.8365,3.9259,3.9259,0,0,1-.7286-1.3042,5.72,5.72,0,0,1,0-3.4145,3.9228,3.9228,0,0,1,.7286-1.312,3.1382,3.1382,0,0,1,1.1279-.836,3.5673,3.5673,0,0,1,1.458-.2915,3.5208,3.5208,0,0,1,1.45.2915,3.2422,3.2422,0,0,1,1.1279.836,3.8686,3.8686,0,0,1,.7363,1.312,5.7184,5.7184,0,0,1,0,3.4145,3.8715,3.8715,0,0,1-.7363,1.3042,3.2374,3.2374,0,0,1-1.1279.8365A3.5208,3.5208,0,0,1,74.9175,28.5335Zm0-1.0894a2.2293,2.2293,0,0,0,1.626-.6137,2.5072,2.5072,0,0,0,.63-1.8721V23.8225a2.5068,2.5068,0,0,0-.63-1.872,2.4619,2.4619,0,0,0-3.253,0,2.5065,2.5065,0,0,0-.6289,1.872v1.1358a2.5069,2.5069,0,0,0,.6289,1.8721A2.2333,2.2333,0,0,0,74.9175,27.4441Z"/><path class="cls-1" d="M80.5181,28.3494v-7.918h1.2275v1.4575h.0762a2.3965,2.3965,0,0,1,.7676-1.0127,2.36,2.36,0,0,1,1.52-.4448h.4756V21.659h-.7217a2.7753,2.7753,0,0,0-1.5576.3759,1.1091,1.1091,0,0,0-.56.9439v5.3706Z"/><path class="cls-1" d="M87.9605,28.3494a1.2569,1.2569,0,0,1-.9746-.36,1.3389,1.3389,0,0,1-.33-.9414V21.5208H85.3521V20.4314h.7363a.7232.7232,0,0,0,.5449-.1611.8391.8391,0,0,0,.1455-.56V18.2371h1.1045v2.1943h1.7344v1.0894H87.8833V27.26h1.6113v1.0894Z"/><path class="cls-1" d="M100.9722,28.3494a1.2036,1.2036,0,0,1-.9893-.3682,1.8175,1.8175,0,0,1-.376-.9209H99.53a2.0463,2.0463,0,0,1-.8594,1.105,2.6653,2.6653,0,0,1-1.4267.3682,2.779,2.779,0,0,1-1.9571-.6446,2.2659,2.2659,0,0,1-.6982-1.749,1.9985,1.9985,0,0,1,.8213-1.7187,4.3638,4.3638,0,0,1,2.5547-.5987H99.53V23.04a1.7121,1.7121,0,0,0-.46-1.289,1.968,1.968,0,0,0-1.4121-.4449,2.125,2.125,0,0,0-1.2041.3223,2.6567,2.6567,0,0,0-.8056.8594l-.7373-.6905A2.7959,2.7959,0,0,1,95.939,20.7a3.24,3.24,0,0,1,1.78-.4527,3.2764,3.2764,0,0,1,2.24.7041,2.4775,2.4775,0,0,1,.7978,1.96V27.26h.9053v1.0894ZM97.4429,27.49a3.1161,3.1161,0,0,0,.8437-.1074,2.0712,2.0712,0,0,0,.66-.3066,1.52,1.52,0,0,0,.43-.46,1.0981,1.0981,0,0,0,.1533-.5679V24.7434h-1.626a2.9713,2.9713,0,0,0-1.5429.3067.9917.9917,0,0,0-.4834.89v.3223a1.0736,1.0736,0,0,0,.4218.9053A1.8412,1.8412,0,0,0,97.4429,27.49Z"/><path class="cls-1" d="M109.98,28.5335a3.6523,3.6523,0,0,1-1.4893-.2915,3.04,3.04,0,0,1-1.1123-.8286,3.6853,3.6853,0,0,1-.69-1.3042,6.3431,6.3431,0,0,1,0-3.4375,3.6879,3.6879,0,0,1,.69-1.3042,3.0451,3.0451,0,0,1,1.1123-.8287,3.6523,3.6523,0,0,1,1.4893-.2915,3.1761,3.1761,0,0,1,1.8945.5137,3.14,3.14,0,0,1,1.0664,1.3428l-1.0273.522a1.8676,1.8676,0,0,0-.7061-.9517,2.1237,2.1237,0,0,0-1.2275-.3374,2.4612,2.4612,0,0,0-.9668.1763,1.8832,1.8832,0,0,0-.69.4912,2.0737,2.0737,0,0,0-.4151.7519,3.1806,3.1806,0,0,0-.1377.959v1.3506a2.573,2.573,0,0,0,.56,1.7109,2.0339,2.0339,0,0,0,1.65.6675,2.2276,2.2276,0,0,0,2.1484-1.3813l.89.5986a3.14,3.14,0,0,1-1.1436,1.3657A3.3425,3.3425,0,0,1,109.98,28.5335Z"/><path class="cls-1" d="M117.6372,28.5335a3.5586,3.5586,0,0,1-1.4658-.2915,3.1652,3.1652,0,0,1-1.12-.8365,3.8422,3.8422,0,0,1-.7207-1.3042,5.8868,5.8868,0,0,1,0-3.4145,3.84,3.84,0,0,1,.7207-1.312,3.17,3.17,0,0,1,1.12-.836,3.5586,3.5586,0,0,1,1.4658-.2915,3.36,3.36,0,0,1,1.4268.2906,3.1549,3.1549,0,0,1,1.0742.8027,3.5816,3.5816,0,0,1,.6836,1.2158,4.8063,4.8063,0,0,1,.2373,1.5445v.581h-5.6934V25.05a2.7059,2.7059,0,0,0,.1612.9438,2.2484,2.2484,0,0,0,.4609.76,2.1081,2.1081,0,0,0,.7363.5063,2.5366,2.5366,0,0,0,.99.1841,2.4072,2.4072,0,0,0,1.3115-.353,2.3216,2.3216,0,0,0,.8672-1.0127l.875.6333a3.059,3.059,0,0,1-1.1973,1.32A3.6086,3.6086,0,0,1,117.6372,28.5335Zm0-7.2583a2.3349,2.3349,0,0,0-.9209.1758,2.0592,2.0592,0,0,0-.7129.4956,2.3088,2.3088,0,0,0-.4687.7544,2.62,2.62,0,0,0-.169.9536v.1064H119.74v-.1675a2.4118,2.4118,0,0,0-.5752-1.685A1.9648,1.9648,0,0,0,117.6372,21.2752Z"/><path class="cls-1" d="M123.0855,28.3494v-7.918h1.2275v1.4575h.0762a2.3965,2.3965,0,0,1,.7676-1.0127,2.36,2.36,0,0,1,1.5195-.4448h.4756V21.659H126.43a2.7751,2.7751,0,0,0-1.5576.3759,1.1091,1.1091,0,0,0-.56.9439v5.3706Z"/><path class="cls-1" d="M130.5269,28.3494a1.2569,1.2569,0,0,1-.9746-.36,1.3389,1.3389,0,0,1-.33-.9414V21.5208h-1.3037V20.4314h.7363A.7232.7232,0,0,0,129.2,20.27a.8391.8391,0,0,0,.1455-.56V18.2371H130.45v2.1943h1.7344v1.0894H130.45V27.26h1.6113v1.0894Z"/><path class="cls-1" d="M134.7769,18.5745a.7494.7494,0,0,1-.5752-.1919.7048.7048,0,0,1-.1768-.4985v-.2a.7051.7051,0,0,1,.1768-.4986.958.958,0,0,1,1.15,0,.7055.7055,0,0,1,.1767.4986v.2a.7052.7052,0,0,1-.1767.4985A.75.75,0,0,1,134.7769,18.5745Zm-.6133,1.8569h1.2275v7.918h-1.2275Z"/><path class="cls-1" d="M138.43,21.5208h-1.2891V20.4314H138.43V18.8352a1.9906,1.9906,0,0,1,.43-1.3349,1.6146,1.6146,0,0,1,1.3037-.5064h1.1973v1.0894h-1.7032v2.3481h4.4346v7.918h-1.2275V21.5208h-3.2071v6.8286H138.43Zm5.0478-2.9463a.75.75,0,0,1-.5752-.1919.71.71,0,0,1-.1767-.4985v-.2a.71.71,0,0,1,.1767-.4986.9595.9595,0,0,1,1.1514,0,.709.709,0,0,1,.1758.4986v.2a.7087.7087,0,0,1-.1758.4985A.752.752,0,0,1,143.478,18.5745Z"/><path class="cls-1" d="M149.647,28.5335a3.6523,3.6523,0,0,1-1.4893-.2915,3.04,3.04,0,0,1-1.1123-.8286,3.6853,3.6853,0,0,1-.69-1.3042,6.3431,6.3431,0,0,1,0-3.4375,3.6879,3.6879,0,0,1,.69-1.3042,3.0451,3.0451,0,0,1,1.1123-.8287,3.6523,3.6523,0,0,1,1.4893-.2915,3.1761,3.1761,0,0,1,1.8945.5137,3.14,3.14,0,0,1,1.0664,1.3428l-1.0273.522a1.8676,1.8676,0,0,0-.7061-.9517,2.1237,2.1237,0,0,0-1.2275-.3374,2.4612,2.4612,0,0,0-.9668.1763,1.8832,1.8832,0,0,0-.69.4912,2.0737,2.0737,0,0,0-.4151.7519,3.1806,3.1806,0,0,0-.1377.959v1.3506a2.5725,2.5725,0,0,0,.56,1.7109,2.0339,2.0339,0,0,0,1.65.6675,2.2276,2.2276,0,0,0,2.1484-1.3813l.89.5986a3.14,3.14,0,0,1-1.1436,1.3657A3.3425,3.3425,0,0,1,149.647,28.5335Z"/><path class="cls-1" d="M160.1734,28.3494a1.2036,1.2036,0,0,1-.9893-.3682,1.8175,1.8175,0,0,1-.376-.9209h-.0771a2.0467,2.0467,0,0,1-.8594,1.105,2.6654,2.6654,0,0,1-1.4268.3682,2.7787,2.7787,0,0,1-1.957-.6446,2.2659,2.2659,0,0,1-.6982-1.749,1.9985,1.9985,0,0,1,.8213-1.7187,4.3634,4.3634,0,0,1,2.5546-.5987h1.5655V23.04a1.7125,1.7125,0,0,0-.46-1.289,1.968,1.968,0,0,0-1.4121-.4449,2.1247,2.1247,0,0,0-1.2041.3223,2.657,2.657,0,0,0-.8057.8594l-.7373-.6905A2.7966,2.7966,0,0,1,155.14,20.7a3.24,3.24,0,0,1,1.78-.4527,3.2767,3.2767,0,0,1,2.24.7041,2.4775,2.4775,0,0,1,.7978,1.96V27.26h.9053v1.0894Zm-3.5293-.8594a3.1166,3.1166,0,0,0,.8437-.1074,2.0712,2.0712,0,0,0,.66-.3066,1.52,1.52,0,0,0,.43-.46,1.0973,1.0973,0,0,0,.1534-.5679V24.7434h-1.626a2.9717,2.9717,0,0,0-1.543.3067.9919.9919,0,0,0-.4834.89v.3223a1.0737,1.0737,0,0,0,.4219.9053A1.8412,1.8412,0,0,0,156.6441,27.49Z"/><path class="cls-1" d="M164.3628,28.3494a1.2569,1.2569,0,0,1-.9746-.36,1.3393,1.3393,0,0,1-.33-.9414V21.5208h-1.3037V20.4314h.7363a.7234.7234,0,0,0,.545-.1611.84.84,0,0,0,.1455-.56V18.2371h1.1045v2.1943H166.02v1.0894h-1.7343V27.26h1.6113v1.0894Z"/><path class="cls-1" d="M170.9146,28.5335a3.5594,3.5594,0,0,1-1.4659-.2915,3.1661,3.1661,0,0,1-1.12-.8365,3.8439,3.8439,0,0,1-.7207-1.3042,5.889,5.889,0,0,1,0-3.4145,3.8421,3.8421,0,0,1,.7207-1.312,3.1707,3.1707,0,0,1,1.12-.836,3.5594,3.5594,0,0,1,1.4659-.2915,3.359,3.359,0,0,1,1.4267.2906,3.1539,3.1539,0,0,1,1.0742.8027,3.58,3.58,0,0,1,.6836,1.2158,4.8063,4.8063,0,0,1,.2373,1.5445v.581h-5.6933V25.05a2.7082,2.7082,0,0,0,.1611.9438,2.2484,2.2484,0,0,0,.4609.76,2.1094,2.1094,0,0,0,.7364.5063,2.5361,2.5361,0,0,0,.99.1841,2.4067,2.4067,0,0,0,1.3115-.353,2.321,2.321,0,0,0,.8672-1.0127l.875.6333a3.0588,3.0588,0,0,1-1.1972,1.32A3.6088,3.6088,0,0,1,170.9146,28.5335Zm0-7.2583a2.3346,2.3346,0,0,0-.9209.1758,2.0583,2.0583,0,0,0-.7129.4956,2.309,2.309,0,0,0-.4688.7544,2.62,2.62,0,0,0-.1689.9536v.1064h4.374v-.1675a2.4118,2.4118,0,0,0-.5752-1.685A1.9646,1.9646,0,0,0,170.9146,21.2752Z"/><polygon class="cls-1" points="35.671 27.293 21.349 27.293 24.155 24.204 22.621 22.523 17.184 28.485 22.621 34.447 24.155 32.766 21.349 29.677 35.671 29.677 35.671 27.293"/><path class="cls-2" d="M33.6,21.3307v-4.77a1.18,1.18,0,0,0-.353-.8466L24.7253,7.3677a1.23,1.23,0,0,0-.8643-.3458H11.6873A2.41,2.41,0,0,0,9.2526,9.4067V38.0243a2.41,2.41,0,0,0,2.4347,2.3848H31.1652A2.41,2.41,0,0,0,33.6,38.0243V35.64H31.1652v2.3848H11.6873V9.4067h9.739v7.1544a2.41,2.41,0,0,0,2.4347,2.3848h7.3042v2.3848Zm-9.7389-4.77V9.8956l6.8051,6.6655Z"/></g></svg>